<?xml version="1.0" encoding="UTF-8" standalone="no"?>
<svg xmlns:dc="http://purl.org/dc/elements/1.1/" xmlns:cc="http://creativecommons.org/ns#" xmlns:rdf="http://www.w3.org/1999/02/22-rdf-syntax-ns#" xmlns:svg="http://www.w3.org/2000/svg" xmlns="http://www.w3.org/2000/svg" xmlns:xlink="http://www.w3.org/1999/xlink" viewBox="0 0 512 512" style="enable-background:new" version="1.0" id="svg11300" height="512" width="512">
  <title id="title4162">Adwaita Icon Template</title>
  <defs id="defs3">
    <linearGradient xlink:href="#linearGradient1036" id="linearGradient1099" gradientUnits="userSpaceOnUse" gradientTransform="translate(604.81684,170.58641)" x1="32" y1="236" x2="96" y2="236" />
    <linearGradient id="linearGradient1036">
      <stop style="stop-color:#d5d3cf;stop-opacity:1" offset="0" id="stop1032" />
      <stop style="stop-color:#f6f5f4;stop-opacity:1" offset="1" id="stop1034" />
    </linearGradient>
    <radialGradient xlink:href="#linearGradient1069" id="radialGradient1103" gradientUnits="userSpaceOnUse" gradientTransform="matrix(0.88333331,0,0,0.88333331,-460.35018,463.11973)" cx="-244" cy="-76" fx="-244" fy="-76" r="32" />
    <linearGradient id="linearGradient1069">
      <stop style="stop-color:#d5d3cf;stop-opacity:1" offset="0" id="stop1065" />
      <stop style="stop-color:#949390;stop-opacity:1" offset="1" id="stop1067-1" />
    </linearGradient>
    <linearGradient gradientTransform="translate(-470.5864,432.81685)" xlink:href="#linearGradient1025" id="linearGradient1027" x1="64" y1="262.5" x2="64" y2="232" gradientUnits="userSpaceOnUse" />
    <linearGradient id="linearGradient1025">
      <stop style="stop-color:#9a9996;stop-opacity:1" offset="0" id="stop1021" />
      <stop style="stop-color:#77767b;stop-opacity:1" offset="1" id="stop1023" />
    </linearGradient>
    <clipPath id="clipPath1609-7" clipPathUnits="userSpaceOnUse">
      <path style="fill:#e74747;stroke:none;stroke-width:0.25px;stroke-linecap:butt;stroke-linejoin:miter;stroke-opacity:1" d="m 252,116 28,-28 v -8 h -36 v 36 z" id="path1611-5" />
    </clipPath>
    <linearGradient id="linearGradient1697">
      <stop style="stop-color:#deddda;stop-opacity:1" offset="0" id="stop1685" />
      <stop id="stop1687" offset="0.04545455" style="stop-color:#eeeeec;stop-opacity:1" />
      <stop style="stop-color:#deddda;stop-opacity:1" offset="0.09090909" id="stop1689" />
      <stop id="stop1691" offset="0.90909094" style="stop-color:#deddda;stop-opacity:1" />
      <stop style="stop-color:#eeeeec;stop-opacity:1" offset="0.95454544" id="stop1693" />
      <stop style="stop-color:#c0bfbc;stop-opacity:1" offset="1" id="stop1695" />
    </linearGradient>
    <clipPath id="clipPath1289" clipPathUnits="userSpaceOnUse">
      <path id="path1291" d="m 64,-148 h 64 l 64,-64 64,64 h 192 c 17.728,0 32,14.272 32,32 v 288 c 0,17.728 -14.272,32 -32,32 h -192 l -64,-64 -64,64 h -64 c -17.728,0 -32,-14.272 -32,-32 v -288 c 0,-17.728 14.408898,-34.19889 32,-32 z" style="display:inline;opacity:1;fill:none;fill-opacity:1;stroke:#000000;stroke-width:4;stroke-linecap:round;stroke-linejoin:round;stroke-miterlimit:4;stroke-dasharray:none;stroke-dashoffset:0;stroke-opacity:1;marker:none;marker-start:none;marker-mid:none;marker-end:none;paint-order:normal" />
    </clipPath>
    <linearGradient gradientTransform="matrix(0,6,-12,0,-64,209.99687)" gradientUnits="userSpaceOnUse" x2="1" id="paint3_linear-2-6-5">
      <stop id="stop91-0-7-4" stop-color="#C01C27" />
      <stop id="stop93-2-5-7" stop-color="#E01B24" offset="1" />
    </linearGradient>
    <clipPath id="clipPath1609" clipPathUnits="userSpaceOnUse">
      <path style="fill:#e74747;stroke:none;stroke-width:0.25px;stroke-linecap:butt;stroke-linejoin:miter;stroke-opacity:1" d="m 252,116 28,-28 v -8 h -36 v 36 z" id="path1611" />
    </clipPath>
    <linearGradient id="a" x1="382" y1="354" x2="319" y2="267" gradientTransform="matrix(0.32312993,0,0,0.28349509,163.91286,-188.85987)" gradientUnits="userSpaceOnUse">
      <stop offset="0%" stop-color="#FFF" id="stop2636" />
      <stop offset="100%" id="stop2638" />
    </linearGradient>
    <filter id="filter3252">
      <feGaussianBlur id="feGaussianBlur3254" stdDeviation="1.1789063" />
    </filter>
    <filter id="filter3208">
      <feGaussianBlur id="feGaussianBlur3210" stdDeviation="1.14875" />
    </filter>
    <filter id="filter3148">
      <feGaussianBlur id="feGaussianBlur3150" stdDeviation="1.4028125" />
    </filter>
    <filter id="filter3135">
      <feGaussianBlur id="feGaussianBlur3137" stdDeviation="2.8346875" />
    </filter>
    <linearGradient gradientTransform="translate(-6.9551821,-150.69561)" gradientUnits="userSpaceOnUse" y2="462.91049" x2="423.1069" y1="547.53186" x1="428.3233" id="linearGradient3112" xlink:href="#linearGradient3106" />
    <linearGradient id="linearGradient3106">
      <stop id="stop3108" offset="0" style="stop-color:#000000;stop-opacity:1" />
      <stop id="stop3110" offset="1" style="stop-color:#000000;stop-opacity:0" />
    </linearGradient>
    <linearGradient y2="54.551899" x2="57.110199" y1="16.8853" x1="13.6104" gradientUnits="userSpaceOnUse" id="XMLID_10_">
      <stop id="stop2849" style="stop-color:#E6E6E6" offset="0" />
      <stop id="stop2851" style="stop-color:#979797" offset="1" />
    </linearGradient>
    <linearGradient y2="-1.0127" x2="33.959999" y1="59.389198" x1="33.959999" gradientUnits="userSpaceOnUse" id="XMLID_11_">
      <stop id="stop2856" style="stop-color:#E6E6E6" offset="0" />
      <stop id="stop2858" style="stop-color:#979797" offset="1" />
    </linearGradient>
    <linearGradient y2="34.503399" x2="56.628899" y1="34.503399" x1="11.2871" gradientUnits="userSpaceOnUse" id="XMLID_12_">
      <stop id="stop2863" style="stop-color:#E6E6E6" offset="0" />
      <stop id="stop2865" style="stop-color:#979797" offset="1" />
    </linearGradient>
    <linearGradient y2="15.3784" x2="25.7759" y1="36.797401" x1="25.7759" gradientUnits="userSpaceOnUse" id="XMLID_13_">
      <stop id="stop2870" style="stop-color:#E6E6E6" offset="0" />
      <stop id="stop2872" style="stop-color:#979797" offset="1" />
    </linearGradient>
    <linearGradient y2="75.385696" x2="67.683197" y1="69.9692" x1="73.099098" gradientUnits="userSpaceOnUse" id="XMLID_15_">
      <stop id="stop2892" style="stop-color:#BDBDBD" offset="0.0048" />
      <stop id="stop2894" style="stop-color:#D6D6D6" offset="0.281" />
      <stop id="stop2896" style="stop-color:#7F7F7F" offset="1" />
    </linearGradient>
    <linearGradient y2="71.174797" x2="71.805199" y1="62.508301" x1="80.472198" gradientUnits="userSpaceOnUse" id="XMLID_16_">
      <stop id="stop2901" style="stop-color:#BDBDBD" offset="0.0048" />
      <stop id="stop2903" style="stop-color:#D6D6D6" offset="0.281" />
      <stop id="stop2905" style="stop-color:#7F7F7F" offset="1" />
    </linearGradient>
    <linearGradient id="XMLID_14_" gradientUnits="userSpaceOnUse" x1="93.256302" y1="34.317902" x2="92.784698" y2="52.9324" gradientTransform="matrix(0.7248,0.689,-0.689,0.7248,33.3646,-26.2798)">
      <stop offset="0.0048" style="stop-color:#BEBEBE" id="stop2881" />
      <stop offset="0.4857" style="stop-color:#D6D6D6" id="stop2883" />
      <stop offset="1" style="stop-color:#BEBEBE" id="stop2885" />
    </linearGradient>
    <linearGradient id="linearGradient1224" gradientUnits="userSpaceOnUse" x1="93.147003" y1="32.462898" x2="93.147003" y2="55.1217" gradientTransform="matrix(0.7248,0.689,-0.689,0.7248,33.3646,-26.2798)">
      <stop offset="0.0048" style="stop-color:#BEBEBE" id="stop1218" />
      <stop offset="0.4857" style="stop-color:#D6D6D6" id="stop1220" />
      <stop offset="1" style="stop-color:#BEBEBE" id="stop1222" />
    </linearGradient>
    <filter id="filter2567" style="color-interpolation-filters:sRGB">
      <feFlood id="feFlood2557" result="flood" flood-color="rgb(0,0,0)" flood-opacity="1" />
      <feComposite id="feComposite2559" result="composite1" operator="in" in2="SourceGraphic" in="flood" />
      <feGaussianBlur id="feGaussianBlur2561" result="blur" stdDeviation="4" in="composite1" />
      <feOffset id="feOffset2563" result="offset" dy="0" dx="0" />
      <feComposite id="feComposite2565" result="fbSourceGraphic" operator="over" in2="offset" in="SourceGraphic" />
      <feColorMatrix id="feColorMatrix2569" values="0 0 0 -1 0 0 0 0 -1 0 0 0 0 -1 0 0 0 0 1 0" in="fbSourceGraphic" result="fbSourceGraphicAlpha" />
      <feFlood result="flood" flood-color="rgb(255,255,255)" flood-opacity="1" id="feFlood2571" />
      <feComposite result="composite1" operator="in" in="flood" id="feComposite2573" in2="fbSourceGraphic" />
      <feGaussianBlur result="blur" stdDeviation="4" in="composite1" id="feGaussianBlur2575" />
      <feOffset result="offset" dy="0" dx="0" id="feOffset2577" />
      <feComposite result="fbSourceGraphic" operator="over" in="fbSourceGraphic" id="feComposite2579" in2="offset" />
      <feColorMatrix id="feColorMatrix2641" values="0 0 0 -1 0 0 0 0 -1 0 0 0 0 -1 0 0 0 0 1 0" in="fbSourceGraphic" result="fbSourceGraphicAlpha" />
      <feFlood result="flood" flood-color="rgb(0,255,0)" flood-opacity="1" id="feFlood2643" />
      <feComposite result="composite1" operator="in" in="flood" id="feComposite2645" in2="fbSourceGraphic" />
      <feGaussianBlur result="blur" stdDeviation="8" in="composite1" id="feGaussianBlur2647" />
      <feOffset result="offset" dy="0" dx="0" id="feOffset2649" />
      <feComposite result="fbSourceGraphic" operator="over" in="fbSourceGraphic" id="feComposite2651" in2="offset" />
      <feColorMatrix id="feColorMatrix2665" values="0 0 0 -1 0 0 0 0 -1 0 0 0 0 -1 0 0 0 0 1 0" in="fbSourceGraphic" result="fbSourceGraphicAlpha" />
      <feFlood result="flood" flood-color="rgb(0,255,0)" flood-opacity="0.498039" id="feFlood2667" />
      <feComposite result="composite1" operator="in" in="flood" id="feComposite2669" in2="fbSourceGraphic" />
      <feGaussianBlur result="blur" stdDeviation="8" in="composite1" id="feGaussianBlur2671" />
      <feOffset result="offset" dy="0" dx="0" id="feOffset2673" />
      <feComposite result="composite2" operator="over" in="fbSourceGraphic" id="feComposite2675" in2="offset" />
    </filter>
  </defs>
  <metadata id="metadata4">
    <rdf:RDF>
      <cc:Work rdf:about="">
        <dc:format>image/svg+xml</dc:format>
        <dc:type rdf:resource="http://purl.org/dc/dcmitype/StillImage" />
        <dc:creator>
          <cc:Agent>
            <dc:title>GNOME Design Team</dc:title>
          </cc:Agent>
        </dc:creator>
        <dc:source />
        <cc:license rdf:resource="http://creativecommons.org/licenses/by-sa/4.0/" />
        <dc:title>Adwaita Icon Template</dc:title>
        <dc:subject>
          <rdf:Bag />
        </dc:subject>
        <dc:date />
        <dc:rights>
          <cc:Agent>
            <dc:title />
          </cc:Agent>
        </dc:rights>
        <dc:publisher>
          <cc:Agent>
            <dc:title />
          </cc:Agent>
        </dc:publisher>
        <dc:identifier />
        <dc:relation />
        <dc:language />
        <dc:coverage />
        <dc:description />
        <dc:contributor>
          <cc:Agent>
            <dc:title />
          </cc:Agent>
        </dc:contributor>
      </cc:Work>
      <cc:License rdf:about="http://creativecommons.org/licenses/by-sa/4.0/">
        <cc:permits rdf:resource="http://creativecommons.org/ns#Reproduction" />
        <cc:permits rdf:resource="http://creativecommons.org/ns#Distribution" />
        <cc:requires rdf:resource="http://creativecommons.org/ns#Notice" />
        <cc:requires rdf:resource="http://creativecommons.org/ns#Attribution" />
        <cc:permits rdf:resource="http://creativecommons.org/ns#DerivativeWorks" />
        <cc:requires rdf:resource="http://creativecommons.org/ns#ShareAlike" />
      </cc:License>
    </rdf:RDF>
  </metadata>
  <g transform="translate(0,212)" id="layer1">
    <g id="g3154">
      <g transform="matrix(1.0666818,0,0,1.0666818,-17.070541,-2.9339992)" id="g3315">
        <circle style="fill:#ffffff;stroke:#000000;stroke-width:4.0226531;stroke-linejoin:round;paint-order:fill markers stroke" cx="256" cy="44" id="path2689" r="237.98526" />
        <g transform="matrix(-0.22829212,0,0,0.22829212,454.12301,81.66504)" id="layer1-6">
          <g id="g2346" transform="matrix(2.1165915,0,0,2.1165915,-102.64501,-421.37693)">
            <path id="path2907" d="m 173.53125,283.5625 c -53.64548,0 -97.187503,40.88651 -97.1875,91.28125 0,50.39475 43.54201,91.3125 97.1875,91.3125 40.28604,0 74.86505,-23.07036 89.59375,-55.90625 h 25.25 c 0.33673,-17.88805 -0.69012,-15.4375 -0.69012,-15.4375 l 20.8776,8.24565 2.12502,4e-5 10.375,-15.43319 9.47091,14.28402 3.06185,0.10828 12.65474,-13.86105 19.32558,17.05008 8.40221,0.009 22.08471,-17.58999 14.80919,16.10582 3.40241,-0.13117 9.5384,-6.72465 13.12963,5.01816 11.56744,-0.53771 14.83418,-15.7617 11.2089,14.38223 6.93771,4.1e-4 36.35339,-47.13264 v -13.40625 h -254.71875 c -14.7287,-32.82711 -49.30771,-55.875 -89.59375,-55.875 z m -46.375,65.875 c 14.03637,-10e-6 25.40625,11.40113 25.40625,25.4375 0,14.03637 -11.36988,25.40625 -25.40625,25.40625 -14.03637,10e-6 -25.4375,-11.40113 -25.4375,-25.4375 0,-14.03637 11.40113,-25.40625 25.4375,-25.40625 z" style="fill:#ffcc00;stroke:#000000;stroke-width:0.5;stroke-linecap:round;stroke-linejoin:round" />
            <rect y="347.76212" x="268.09952" height="7.6530967" width="236.01192" id="rect2918" style="fill:#d4aa00;stroke:#000000;stroke-width:0.49999997;stroke-linecap:round;stroke-linejoin:round" />
            <rect style="fill:#d4aa00;stroke:#000000;stroke-width:0.49999997;stroke-linecap:round;stroke-linejoin:round" id="rect2920" width="223.84035" height="7.6530967" x="268.09952" y="364.67529" />
            <path id="path3126" d="m 517.27419,337.70247 v 11.09375 l -36.375,47.125 h -6.9375 l -11.1875,-14.375 -14.84375,15.75 -11.5625,0.53125 -13.125,-5 -9.5625,6.71875 -3.375,0.125 -14.8125,-16.09375 -22.09375,17.59375 -8.40625,-0.0312 -19.3125,-17.03125 -12.65625,13.84375 -3.0625,-0.0937 -9.46875,-14.28125 -10.375,15.4375 h -2.125 l -20.625,-8.15625 c 0.2763,0.71871 0.65532,3.77241 0.4375,15.34375 h -25.25 c -14.7287,32.83589 -49.30771,55.90624 -89.59375,55.90625 -45.57046,0 -83.852111,-29.53222 -94.343751,-69.3125 9.5992,40.93641 48.462141,71.625 94.906251,71.625 40.28604,2e-5 74.86505,-23.07036 89.59375,-55.90625 h 25.25 c 0.21046,-11.18002 -0.10376,-14.42699 -0.375,-15.28125 l 20.5625,8.09375 h 2.125 l 10.375,-15.4375 9.46875,14.28125 3.0625,0.0937 12.65625,-13.84375 19.34375,17.03125 8.40625,0.0312 22.0625,-17.59375 14.8125,16.09375 3.40625,-0.125 9.53125,-6.71875 13.125,5 11.59375,-0.53125 14.8125,-15.75 11.21875,14.375 h 6.9375 l 36.34375,-47.125 v -13.40625 z m -390.6875,7.6875 c -14.03637,0 -25.4375,11.36987 -25.4375,25.40625 0,2.58721 0.37395,5.08425 1.09375,7.4375 -0.33916,-1.65507 -0.53125,-3.37045 -0.53125,-5.125 0,-14.03635 11.40113,-25.40625 25.4375,-25.40625 11.40455,10e-6 21.0656,7.52376 24.28125,17.875 -2.41592,-11.52341 -12.60602,-20.18751 -24.84375,-20.1875 z" style="fill:#000000;stroke:#000000;stroke-width:0.5;stroke-linecap:round;stroke-linejoin:round;filter:url(#filter3135)" />
            <path id="path3139" d="m 173.53125,283.5625 c -53.64548,-10e-6 -97.1875,40.88651 -97.1875,91.28125 0,6.29935 0.673372,12.46447 1.96875,18.40625 -0.917961,-5.03701 -1.375,-10.21862 -1.375,-15.5 0,-50.39474 43.54203,-91.28125 97.1875,-91.28125 40.28604,0 74.86504,23.04789 89.59375,55.875 h 254.125 v -2.90625 h -254.71875 c -14.72869,-32.82709 -49.30771,-55.875 -89.59375,-55.875 z m -21.1875,87.875 c 0.15187,1.12438 0.21875,2.27174 0.21875,3.4375 0,14.03639 -11.36988,25.40625 -25.40625,25.40625 -11.81881,3e-5 -21.74466,-8.06654 -24.59375,-19 1.72249,12.36759 12.3498,21.90626 25.1875,21.90625 14.03637,0 25.40626,-11.36988 25.40625,-25.40625 0,-2.19318 -0.29053,-4.31268 -0.8125,-6.34375 z" style="fill:#ffffff;stroke-width:0.5;stroke-linecap:round;stroke-linejoin:round;filter:url(#filter3148)" />
            <path id="path3171" d="m 190.99738,294.92188 c -2.03568,0.37319 -3.956,1.35147 -5.46875,2.8125 -2.06874,1.998 -3.22125,4.74894 -3.21875,7.625 v 138.53125 c -0.004,2.8257 1.12132,5.52623 3.09375,7.5 -0.87543,-1.56042 -1.37735,-3.31865 -1.375,-5.15625 v -138.53125 c -0.002,-2.87606 1.15001,-5.627 3.21875,-7.625 1.07628,-1.03949 2.36633,-1.83706 3.75,-2.34375 z m 4.625,0.1875 v 159.03125 c 0.58026,-0.14075 1.14443,-0.28564 1.71875,-0.4375 v -156.25 c 2.56001,0.62043 5.07399,1.3598 7.53125,2.1875 v -1.75 c -3.01256,-1.07802 -6.0861,-2.01446 -9.25,-2.78125 z m 13.875,4.5625 v 149.90625 c 0.58305,-0.24553 1.14177,-0.49277 1.71875,-0.75 v -146.8125 c 2.5743,1.08324 5.09332,2.25918 7.53125,3.5625 v -1.375 c -2.96738,-1.67143 -6.06546,-3.19122 -9.25,-4.53125 z m 13.875,7.34375 v 135.21875 c 0.57891,-0.37453 1.15063,-0.73733 1.71875,-1.125 v -131.75 c 2.61991,1.6942 5.13049,3.49727 7.53125,5.4375 v -0.90625 c -2.91132,-2.48193 -5.99879,-4.77256 -9.25,-6.875 z m 13.875,11.15625 v 112.90625 c 0.58654,-0.57973 1.14855,-1.15466 1.71875,-1.75 v -108.8125 c 2.5365,2.50572 4.92965,5.12702 7.125,7.90625 -2.65524,-3.63555 -5.61539,-7.06081 -8.84375,-10.25 z m 8.84375,10.25 c 0.13785,0.17451 0.26994,0.35563 0.40625,0.53125 v -0.0312 c -0.12484,-0.17406 -0.27989,-0.32698 -0.40625,-0.5 z m 5.03125,7.78125 v 76.8125 c 0.60243,-1.06266 1.16505,-2.12952 1.71875,-3.21875 v -70.34375 c -0.5537,-1.08898 -1.11632,-2.18773 -1.71875,-3.25 z" style="fill:#808080;stroke-width:0.5;stroke-linecap:round;stroke-linejoin:round;filter:url(#filter3208)" />
            <path id="path3166" d="m 191.49738,295.42188 c -1.00825,0.18484 -1.9901,0.53316 -2.90625,1 v 156.0625 c -1.10144,-0.20173 -2.1635,-0.58732 -3.15625,-1.125 0.42506,0.48524 0.89084,0.93685 1.40625,1.34375 1.37421,1.08491 2.97704,1.7862 4.65625,2.09375 z m 10.96875,2 v 152.125 c -2.07956,0.74478 -4.19659,1.43148 -6.34375,2.03125 v 3.0625 c 3.16413,-0.76752 6.23724,-1.70226 9.25,-2.78125 v -153.46875 c -0.95859,-0.34303 -1.93437,-0.6553 -2.90625,-0.96875 z m 13.875,5.71875 v 140.09375 c -2.05712,1.15952 -4.17573,2.24663 -6.34375,3.25 v 3.59375 c 3.18453,-1.34102 6.28264,-2.85866 9.25,-4.53125 v -140.84375 c -0.95437,-0.53758 -1.92631,-1.05724 -2.90625,-1.5625 z m 13.875,8.9375 v 121.4375 c -2.02733,1.72934 -4.15165,3.35469 -6.34375,4.90625 v 4.3125 c 3.25356,-2.10489 6.33678,-4.42124 9.25,-6.90625 v -121.4375 c -0.94295,-0.80389 -1.92676,-1.54865 -2.90625,-2.3125 z m 7.53125,6.59375 v 0.6875 c 2.27889,2.46373 4.39858,5.03781 6.34375,7.75 v 91.375 c -1.94144,2.70814 -4.06978,5.28164 -6.34375,7.75 v 5.34375 c 3.382,-3.34272 6.50197,-6.94799 9.25,-10.78125 v -91.375 c -2.74803,-3.83164 -5.868,-7.40904 -9.25,-10.75 z m 13.875,18.03125 v 3.3125 c 4.69912,10.05926 7.3125,21.15011 7.3125,32.78125 0,11.63132 -2.6134,22.7205 -7.3125,32.78125 v 7.9375 c 6.5118,-11.48655 10.21875,-24.5634 10.21875,-38.40625 10e-6,-13.8426 -3.70692,-26.92386 -10.21875,-38.40625 z" style="fill:#ffdd55;stroke-width:0.5;stroke-linecap:round;stroke-linejoin:round;filter:url(#filter3252)" />
          </g>
        </g>
        <g id="g3358" transform="matrix(0.95964279,0,0,0.95964279,10.331444,-19.150259)">
          <text id="text3349" y="160" x="149.61749" style="font-size:102.30000305px;line-height:1.25;font-family:sans-serif;-inkscape-font-specification:sans-serif;letter-spacing:0px;word-spacing:0px;fill:#000000" xml:space="preserve"><tspan style="font-weight:500;font-size:56px;font-family:'Unifont Upper';-inkscape-font-specification:'Unifont Upper Medium'" y="160" x="149.61749" id="tspan3347">COMMS</tspan></text>
          <text id="text3345" y="112.446" x="78.562752" style="font-size:102.30000305px;line-height:1.25;font-family:sans-serif;-inkscape-font-specification:sans-serif;letter-spacing:0px;word-spacing:0px;fill:#000000" xml:space="preserve"><tspan style="font-size:96px;font-family:GNUTypewriter;-inkscape-font-specification:GNUTypewriter" y="112.446" x="78.562752" id="tspan3343">Vitrea</tspan></text>
          <text id="text3335" y="39.596012" x="256.96451" style="font-size:102.30000305px;line-height:1.25;font-family:sans-serif;-inkscape-font-specification:sans-serif;letter-spacing:0px;word-spacing:0px;fill:#000000" xml:space="preserve"><tspan style="font-weight:bold;font-size:96px;line-height:13px;font-family:GNUTypewriter;-inkscape-font-specification:'GNUTypewriter Bold';text-anchor:middle" y="39.596012" x="256.96451" id="tspan3333">Clavis</tspan><tspan style="font-size:48px;line-height:13px;text-anchor:middle" id="tspan3339" y="167.47101" x="256.96451" /></text>
        </g>
        <g id="g2357" transform="matrix(0.22829212,0,0,0.22829212,77.87699,-181.0404)">
          <g transform="matrix(2.1165915,0,0,2.1165915,-102.64501,-421.37693)" id="g2355">
            <path style="fill:#ffcc00;stroke:#000000;stroke-width:0.5;stroke-linecap:round;stroke-linejoin:round" d="m 173.53125,283.5625 c -53.64548,0 -97.187503,40.88651 -97.1875,91.28125 0,50.39475 43.54201,91.3125 97.1875,91.3125 40.28604,0 74.86505,-23.07036 89.59375,-55.90625 h 25.25 c 0.33673,-17.88805 -0.69012,-15.4375 -0.69012,-15.4375 l 20.8776,8.24565 2.12502,4e-5 10.375,-15.43319 9.47091,14.28402 3.06185,0.10828 12.65474,-13.86105 19.32558,17.05008 8.40221,0.009 22.08471,-17.58999 14.80919,16.10582 3.40241,-0.13117 9.5384,-6.72465 13.12963,5.01816 11.56744,-0.53771 14.83418,-15.7617 11.2089,14.38223 6.93771,4.1e-4 36.35339,-47.13264 v -13.40625 h -254.71875 c -14.7287,-32.82711 -49.30771,-55.875 -89.59375,-55.875 z m -46.375,65.875 c 14.03637,-10e-6 25.40625,11.40113 25.40625,25.4375 0,14.03637 -11.36988,25.40625 -25.40625,25.40625 -14.03637,10e-6 -25.4375,-11.40113 -25.4375,-25.4375 0,-14.03637 11.40113,-25.40625 25.4375,-25.40625 z" id="path2341" />
            <rect style="fill:#d4aa00;stroke:#000000;stroke-width:0.49999997;stroke-linecap:round;stroke-linejoin:round" id="rect2343" width="236.01192" height="7.6530967" x="268.09952" y="347.76212" />
            <rect y="364.67529" x="268.09952" height="7.6530967" width="223.84035" id="rect2345" style="fill:#d4aa00;stroke:#000000;stroke-width:0.49999997;stroke-linecap:round;stroke-linejoin:round" />
            <path style="fill:#000000;stroke:#000000;stroke-width:0.5;stroke-linecap:round;stroke-linejoin:round;filter:url(#filter3135)" d="m 517.27419,337.70247 v 11.09375 l -36.375,47.125 h -6.9375 l -11.1875,-14.375 -14.84375,15.75 -11.5625,0.53125 -13.125,-5 -9.5625,6.71875 -3.375,0.125 -14.8125,-16.09375 -22.09375,17.59375 -8.40625,-0.0312 -19.3125,-17.03125 -12.65625,13.84375 -3.0625,-0.0937 -9.46875,-14.28125 -10.375,15.4375 h -2.125 l -20.625,-8.15625 c 0.2763,0.71871 0.65532,3.77241 0.4375,15.34375 h -25.25 c -14.7287,32.83589 -49.30771,55.90624 -89.59375,55.90625 -45.57046,0 -83.852111,-29.53222 -94.343751,-69.3125 9.5992,40.93641 48.462141,71.625 94.906251,71.625 40.28604,2e-5 74.86505,-23.07036 89.59375,-55.90625 h 25.25 c 0.21046,-11.18002 -0.10376,-14.42699 -0.375,-15.28125 l 20.5625,8.09375 h 2.125 l 10.375,-15.4375 9.46875,14.28125 3.0625,0.0937 12.65625,-13.84375 19.34375,17.03125 8.40625,0.0312 22.0625,-17.59375 14.8125,16.09375 3.40625,-0.125 9.53125,-6.71875 13.125,5 11.59375,-0.53125 14.8125,-15.75 11.21875,14.375 h 6.9375 l 36.34375,-47.125 v -13.40625 z m -390.6875,7.6875 c -14.03637,0 -25.4375,11.36987 -25.4375,25.40625 0,2.58721 0.37395,5.08425 1.09375,7.4375 -0.33916,-1.65507 -0.53125,-3.37045 -0.53125,-5.125 0,-14.03635 11.40113,-25.40625 25.4375,-25.40625 11.40455,10e-6 21.0656,7.52376 24.28125,17.875 -2.41592,-11.52341 -12.60602,-20.18751 -24.84375,-20.1875 z" id="path2347" />
            <path style="fill:#ffffff;stroke-width:0.5;stroke-linecap:round;stroke-linejoin:round;filter:url(#filter3148)" d="m 173.53125,283.5625 c -53.64548,-10e-6 -97.1875,40.88651 -97.1875,91.28125 0,6.29935 0.673372,12.46447 1.96875,18.40625 -0.917961,-5.03701 -1.375,-10.21862 -1.375,-15.5 0,-50.39474 43.54203,-91.28125 97.1875,-91.28125 40.28604,0 74.86504,23.04789 89.59375,55.875 h 254.125 v -2.90625 h -254.71875 c -14.72869,-32.82709 -49.30771,-55.875 -89.59375,-55.875 z m -21.1875,87.875 c 0.15187,1.12438 0.21875,2.27174 0.21875,3.4375 0,14.03639 -11.36988,25.40625 -25.40625,25.40625 -11.81881,3e-5 -21.74466,-8.06654 -24.59375,-19 1.72249,12.36759 12.3498,21.90626 25.1875,21.90625 14.03637,0 25.40626,-11.36988 25.40625,-25.40625 0,-2.19318 -0.29053,-4.31268 -0.8125,-6.34375 z" id="path2349" />
            <path style="fill:#808080;stroke-width:0.5;stroke-linecap:round;stroke-linejoin:round;filter:url(#filter3208)" d="m 190.99738,294.92188 c -2.03568,0.37319 -3.956,1.35147 -5.46875,2.8125 -2.06874,1.998 -3.22125,4.74894 -3.21875,7.625 v 138.53125 c -0.004,2.8257 1.12132,5.52623 3.09375,7.5 -0.87543,-1.56042 -1.37735,-3.31865 -1.375,-5.15625 v -138.53125 c -0.002,-2.87606 1.15001,-5.627 3.21875,-7.625 1.07628,-1.03949 2.36633,-1.83706 3.75,-2.34375 z m 4.625,0.1875 v 159.03125 c 0.58026,-0.14075 1.14443,-0.28564 1.71875,-0.4375 v -156.25 c 2.56001,0.62043 5.07399,1.3598 7.53125,2.1875 v -1.75 c -3.01256,-1.07802 -6.0861,-2.01446 -9.25,-2.78125 z m 13.875,4.5625 v 149.90625 c 0.58305,-0.24553 1.14177,-0.49277 1.71875,-0.75 v -146.8125 c 2.5743,1.08324 5.09332,2.25918 7.53125,3.5625 v -1.375 c -2.96738,-1.67143 -6.06546,-3.19122 -9.25,-4.53125 z m 13.875,7.34375 v 135.21875 c 0.57891,-0.37453 1.15063,-0.73733 1.71875,-1.125 v -131.75 c 2.61991,1.6942 5.13049,3.49727 7.53125,5.4375 v -0.90625 c -2.91132,-2.48193 -5.99879,-4.77256 -9.25,-6.875 z m 13.875,11.15625 v 112.90625 c 0.58654,-0.57973 1.14855,-1.15466 1.71875,-1.75 v -108.8125 c 2.5365,2.50572 4.92965,5.12702 7.125,7.90625 -2.65524,-3.63555 -5.61539,-7.06081 -8.84375,-10.25 z m 8.84375,10.25 c 0.13785,0.17451 0.26994,0.35563 0.40625,0.53125 v -0.0312 c -0.12484,-0.17406 -0.27989,-0.32698 -0.40625,-0.5 z m 5.03125,7.78125 v 76.8125 c 0.60243,-1.06266 1.16505,-2.12952 1.71875,-3.21875 v -70.34375 c -0.5537,-1.08898 -1.11632,-2.18773 -1.71875,-3.25 z" id="path2351" />
            <path style="fill:#ffdd55;stroke-width:0.5;stroke-linecap:round;stroke-linejoin:round;filter:url(#filter3252)" d="m 191.49738,295.42188 c -1.00825,0.18484 -1.9901,0.53316 -2.90625,1 v 156.0625 c -1.10144,-0.20173 -2.1635,-0.58732 -3.15625,-1.125 0.42506,0.48524 0.89084,0.93685 1.40625,1.34375 1.37421,1.08491 2.97704,1.7862 4.65625,2.09375 z m 10.96875,2 v 152.125 c -2.07956,0.74478 -4.19659,1.43148 -6.34375,2.03125 v 3.0625 c 3.16413,-0.76752 6.23724,-1.70226 9.25,-2.78125 v -153.46875 c -0.95859,-0.34303 -1.93437,-0.6553 -2.90625,-0.96875 z m 13.875,5.71875 v 140.09375 c -2.05712,1.15952 -4.17573,2.24663 -6.34375,3.25 v 3.59375 c 3.18453,-1.34102 6.28264,-2.85866 9.25,-4.53125 v -140.84375 c -0.95437,-0.53758 -1.92631,-1.05724 -2.90625,-1.5625 z m 13.875,8.9375 v 121.4375 c -2.02733,1.72934 -4.15165,3.35469 -6.34375,4.90625 v 4.3125 c 3.25356,-2.10489 6.33678,-4.42124 9.25,-6.90625 v -121.4375 c -0.94295,-0.80389 -1.92676,-1.54865 -2.90625,-2.3125 z m 7.53125,6.59375 v 0.6875 c 2.27889,2.46373 4.39858,5.03781 6.34375,7.75 v 91.375 c -1.94144,2.70814 -4.06978,5.28164 -6.34375,7.75 v 5.34375 c 3.382,-3.34272 6.50197,-6.94799 9.25,-10.78125 v -91.375 c -2.74803,-3.83164 -5.868,-7.40904 -9.25,-10.75 z m 13.875,18.03125 v 3.3125 c 4.69912,10.05926 7.3125,21.15011 7.3125,32.78125 0,11.63132 -2.6134,22.7205 -7.3125,32.78125 v 7.9375 c 6.5118,-11.48655 10.21875,-24.5634 10.21875,-38.40625 10e-6,-13.8426 -3.70692,-26.92386 -10.21875,-38.40625 z" id="path2353" />
          </g>
        </g>
        <g id="g2846" transform="matrix(0.839485,0,0,0.839485,6.9697351,53.344989)" style="fill:#ffcc00;stroke:#000000">
          <g id="g35596" transform="matrix(5.7931868,0,0,5.7931868,122.96492,-1538.3108)">
            <rect style="color:#000000;stroke-width:2;stroke-linecap:round;stroke-linejoin:round" id="rect35604" width="12" height="9" x="21.9998" y="300" />
            <path style="stroke-width:1.99999976;stroke-linecap:round" d="m 22.999801,300.99992 5.000005,4.00007 4.999994,-4.00002" id="path35600" />
          </g>
          <path id="path2694" d="m 160.61922,154.74799 c -8.02356,0 -14.48297,6.45941 -14.48297,14.48297 v 28.96593 c 0,8.02357 6.45941,14.48297 14.48297,14.48297 h 36.93156 l 18.10371,23.17275 v -23.53482 c 6.61153,-1.34605 11.58638,-7.1003 11.58638,-14.1209 v -28.96593 c 0,-8.02356 -6.45941,-14.48297 -14.48297,-14.48297 z" style="stroke-width:5.79318666px" />
        </g>
      </g>
      <text xml:space="preserve" style="font-size:95.42472839px;line-height:1.25;font-family:'Unifont Upper';-inkscape-font-specification:'Unifont Upper';letter-spacing:0px;word-spacing:0px;fill:#000000;stroke-width:0.93279308;filter:url(#filter2567)" x="-5.8765965" y="236.47679" id="text2361"><tspan id="tspan2359" x="-5.8765965" y="236.47679" style="font-weight:500;font-size:186.55860901px;-inkscape-font-specification:'Unifont Upper Medium';fill:#00ff00;stroke:#008000">β</tspan></text>
    </g>
  </g>
</svg>
