<?xml version="1.0" encoding="UTF-8" standalone="no"?>
<!-- Created with Inkscape (http://www.inkscape.org/) -->

<svg xmlns:dc="http://purl.org/dc/elements/1.1/" xmlns:cc="http://creativecommons.org/ns#" xmlns:rdf="http://www.w3.org/1999/02/22-rdf-syntax-ns#" xmlns:svg="http://www.w3.org/2000/svg" xmlns="http://www.w3.org/2000/svg" xmlns:xlink="http://www.w3.org/1999/xlink" xmlns:sodipodi="http://sodipodi.sourceforge.net/DTD/sodipodi-0.dtd" xmlns:inkscape="http://www.inkscape.org/namespaces/inkscape" inkscape:export-ydpi="96" inkscape:export-xdpi="96" inkscape:export-filename="/home/mzhukov/devel/zeit/clavis-vitrea-comms___canvas-cra/MiscResources-noGit/images/logos/logo/clavis-vitrea-comms_1024x1024.png" width="1024" height="1024" id="svg11300" sodipodi:version="0.32" inkscape:version="0.92.4 (5da689c313, 2019-01-14)" sodipodi:docname="clavis-vitrea-comms_1024x1024.svg" inkscape:output_extension="org.inkscape.output.svg.inkscape" version="1.0" style="enable-background:new" viewBox="0 0 1024 1024">
  <title id="title4162">Adwaita Icon Template</title>
  <defs id="defs3">
    <linearGradient y2="236" x2="96" y1="236" x1="32" gradientTransform="translate(604.81684,170.58641)" gradientUnits="userSpaceOnUse" id="linearGradient1099" xlink:href="#linearGradient1036" />
    <linearGradient id="linearGradient1036">
      <stop id="stop1032" offset="0" style="stop-color:#d5d3cf;stop-opacity:1" />
      <stop id="stop1034" offset="1" style="stop-color:#f6f5f4;stop-opacity:1" />
    </linearGradient>
    <radialGradient r="32" fy="-76" fx="-244" cy="-76" cx="-244" gradientTransform="matrix(0.88333331,0,0,0.88333331,-460.35018,463.11973)" gradientUnits="userSpaceOnUse" id="radialGradient1103" xlink:href="#linearGradient1069" />
    <linearGradient id="linearGradient1069">
      <stop id="stop1065" offset="0" style="stop-color:#d5d3cf;stop-opacity:1" />
      <stop id="stop1067-1" offset="1" style="stop-color:#949390;stop-opacity:1" />
    </linearGradient>
    <linearGradient gradientUnits="userSpaceOnUse" y2="232" x2="64" y1="262.5" x1="64" id="linearGradient1027" xlink:href="#linearGradient1025" gradientTransform="translate(-470.5864,432.81685)" />
    <linearGradient id="linearGradient1025">
      <stop id="stop1021" offset="0" style="stop-color:#9a9996;stop-opacity:1" />
      <stop id="stop1023" offset="1" style="stop-color:#77767b;stop-opacity:1" />
    </linearGradient>
    <inkscape:path-effect effect="spiro" id="path-effect35304-9" is_visible="true" />
    <clipPath clipPathUnits="userSpaceOnUse" id="clipPath1609-7">
      <path sodipodi:nodetypes="cccccc" inkscape:connector-curvature="0" id="path1611-5" d="m 252,116 28,-28 v -8 h -36 v 36 z" style="fill:#e74747;stroke:none;stroke-width:0.25px;stroke-linecap:butt;stroke-linejoin:miter;stroke-opacity:1" />
    </clipPath>
    <linearGradient id="linearGradient1697">
      <stop id="stop1685" offset="0" style="stop-color:#deddda;stop-opacity:1" />
      <stop style="stop-color:#eeeeec;stop-opacity:1" offset="0.04545455" id="stop1687" />
      <stop id="stop1689" offset="0.09090909" style="stop-color:#deddda;stop-opacity:1" />
      <stop style="stop-color:#deddda;stop-opacity:1" offset="0.90909094" id="stop1691" />
      <stop id="stop1693" offset="0.95454544" style="stop-color:#eeeeec;stop-opacity:1" />
      <stop id="stop1695" offset="1" style="stop-color:#c0bfbc;stop-opacity:1" />
    </linearGradient>
    <clipPath clipPathUnits="userSpaceOnUse" id="clipPath1289">
      <path style="display:inline;opacity:1;fill:none;fill-opacity:1;stroke:#000000;stroke-width:4;stroke-linecap:round;stroke-linejoin:round;stroke-miterlimit:4;stroke-dasharray:none;stroke-dashoffset:0;stroke-opacity:1;marker:none;marker-start:none;marker-mid:none;marker-end:none;paint-order:normal" d="m 64,-148 h 64 l 64,-64 64,64 h 192 c 17.728,0 32,14.272 32,32 v 288 c 0,17.728 -14.272,32 -32,32 h -192 l -64,-64 -64,64 h -64 c -17.728,0 -32,-14.272 -32,-32 v -288 c 0,-17.728 14.408898,-34.19889 32,-32 z" id="path1291" inkscape:connector-curvature="0" sodipodi:nodetypes="scccsssscccssss" />
    </clipPath>
    <linearGradient id="paint3_linear-2-6-5" x2="1" gradientUnits="userSpaceOnUse" gradientTransform="matrix(0,6,-12,0,-64,209.99687)">
      <stop stop-color="#C01C27" id="stop91-0-7-4" />
      <stop offset="1" stop-color="#E01B24" id="stop93-2-5-7" />
    </linearGradient>
    <clipPath clipPathUnits="userSpaceOnUse" id="clipPath1609">
      <path sodipodi:nodetypes="cccccc" inkscape:connector-curvature="0" id="path1611" d="m 252,116 28,-28 v -8 h -36 v 36 z" style="fill:#e74747;stroke:none;stroke-width:0.25px;stroke-linecap:butt;stroke-linejoin:miter;stroke-opacity:1" />
    </clipPath>
    <linearGradient gradientUnits="userSpaceOnUse" gradientTransform="matrix(0.32312993,0,0,0.28349509,163.91286,-188.85987)" y2="267" x2="319" y1="354" x1="382" id="a">
      <stop id="stop2636" stop-color="#FFF" offset="0%" />
      <stop id="stop2638" offset="100%" />
    </linearGradient>
    <filter inkscape:collect="always" id="filter3252">
      <feGaussianBlur inkscape:collect="always" stdDeviation="1.1789063" id="feGaussianBlur3254" />
    </filter>
    <filter inkscape:collect="always" id="filter3208">
      <feGaussianBlur inkscape:collect="always" stdDeviation="1.14875" id="feGaussianBlur3210" />
    </filter>
    <filter inkscape:collect="always" id="filter3148">
      <feGaussianBlur inkscape:collect="always" stdDeviation="1.4028125" id="feGaussianBlur3150" />
    </filter>
    <filter inkscape:collect="always" id="filter3135">
      <feGaussianBlur inkscape:collect="always" stdDeviation="2.8346875" id="feGaussianBlur3137" />
    </filter>
    <linearGradient inkscape:collect="always" xlink:href="#linearGradient3106" id="linearGradient3112" x1="428.3233" y1="547.53186" x2="423.1069" y2="462.91049" gradientUnits="userSpaceOnUse" gradientTransform="translate(-6.9551821,-150.69561)" />
    <linearGradient inkscape:collect="always" id="linearGradient3106">
      <stop style="stop-color:#000000;stop-opacity:1" offset="0" id="stop3108" />
      <stop style="stop-color:#000000;stop-opacity:0" offset="1" id="stop3110" />
    </linearGradient>
    <linearGradient id="XMLID_10_" gradientUnits="userSpaceOnUse" x1="13.6104" y1="16.8853" x2="57.110199" y2="54.551899">
      <stop offset="0" style="stop-color:#E6E6E6" id="stop2849" />
      <stop offset="1" style="stop-color:#979797" id="stop2851" />
    </linearGradient>
    <linearGradient id="XMLID_11_" gradientUnits="userSpaceOnUse" x1="33.959999" y1="59.389198" x2="33.959999" y2="-1.0127">
      <stop offset="0" style="stop-color:#E6E6E6" id="stop2856" />
      <stop offset="1" style="stop-color:#979797" id="stop2858" />
    </linearGradient>
    <linearGradient id="XMLID_12_" gradientUnits="userSpaceOnUse" x1="11.2871" y1="34.503399" x2="56.628899" y2="34.503399">
      <stop offset="0" style="stop-color:#E6E6E6" id="stop2863" />
      <stop offset="1" style="stop-color:#979797" id="stop2865" />
    </linearGradient>
    <linearGradient id="XMLID_13_" gradientUnits="userSpaceOnUse" x1="25.7759" y1="36.797401" x2="25.7759" y2="15.3784">
      <stop offset="0" style="stop-color:#E6E6E6" id="stop2870" />
      <stop offset="1" style="stop-color:#979797" id="stop2872" />
    </linearGradient>
    <linearGradient id="XMLID_15_" gradientUnits="userSpaceOnUse" x1="73.099098" y1="69.9692" x2="67.683197" y2="75.385696">
      <stop offset="0.0048" style="stop-color:#BDBDBD" id="stop2892" />
      <stop offset="0.281" style="stop-color:#D6D6D6" id="stop2894" />
      <stop offset="1" style="stop-color:#7F7F7F" id="stop2896" />
    </linearGradient>
    <linearGradient id="XMLID_16_" gradientUnits="userSpaceOnUse" x1="80.472198" y1="62.508301" x2="71.805199" y2="71.174797">
      <stop offset="0.0048" style="stop-color:#BDBDBD" id="stop2901" />
      <stop offset="0.281" style="stop-color:#D6D6D6" id="stop2903" />
      <stop offset="1" style="stop-color:#7F7F7F" id="stop2905" />
    </linearGradient>
    <linearGradient gradientTransform="matrix(0.7248,0.689,-0.689,0.7248,33.3646,-26.2798)" y2="52.9324" x2="92.784698" y1="34.317902" x1="93.256302" gradientUnits="userSpaceOnUse" id="XMLID_14_">
      <stop id="stop2881" style="stop-color:#BEBEBE" offset="0.0048" />
      <stop id="stop2883" style="stop-color:#D6D6D6" offset="0.4857" />
      <stop id="stop2885" style="stop-color:#BEBEBE" offset="1" />
    </linearGradient>
    <linearGradient gradientTransform="matrix(0.7248,0.689,-0.689,0.7248,33.3646,-26.2798)" y2="55.1217" x2="93.147003" y1="32.462898" x1="93.147003" gradientUnits="userSpaceOnUse" id="linearGradient1224">
      <stop id="stop1218" style="stop-color:#BEBEBE" offset="0.0048" />
      <stop id="stop1220" style="stop-color:#D6D6D6" offset="0.4857" />
      <stop id="stop1222" style="stop-color:#BEBEBE" offset="1" />
    </linearGradient>
    <filter style="color-interpolation-filters:sRGB" inkscape:label="Drop Shadow" id="filter2567">
      <feFlood flood-opacity="1" flood-color="rgb(0,0,0)" result="flood" id="feFlood2557" />
      <feComposite in="flood" in2="SourceGraphic" operator="in" result="composite1" id="feComposite2559" />
      <feGaussianBlur in="composite1" stdDeviation="4" result="blur" id="feGaussianBlur2561" />
      <feOffset dx="0" dy="0" result="offset" id="feOffset2563" />
      <feComposite in="SourceGraphic" in2="offset" operator="over" result="fbSourceGraphic" id="feComposite2565" />
      <feColorMatrix result="fbSourceGraphicAlpha" in="fbSourceGraphic" values="0 0 0 -1 0 0 0 0 -1 0 0 0 0 -1 0 0 0 0 1 0" id="feColorMatrix2569" />
      <feFlood id="feFlood2571" flood-opacity="1" flood-color="rgb(255,255,255)" result="flood" />
      <feComposite in2="fbSourceGraphic" id="feComposite2573" in="flood" operator="in" result="composite1" />
      <feGaussianBlur id="feGaussianBlur2575" in="composite1" stdDeviation="4" result="blur" />
      <feOffset id="feOffset2577" dx="0" dy="0" result="offset" />
      <feComposite in2="offset" id="feComposite2579" in="fbSourceGraphic" operator="over" result="fbSourceGraphic" />
      <feColorMatrix result="fbSourceGraphicAlpha" in="fbSourceGraphic" values="0 0 0 -1 0 0 0 0 -1 0 0 0 0 -1 0 0 0 0 1 0" id="feColorMatrix2641" />
      <feFlood id="feFlood2643" flood-opacity="1" flood-color="rgb(0,255,0)" result="flood" />
      <feComposite in2="fbSourceGraphic" id="feComposite2645" in="flood" operator="in" result="composite1" />
      <feGaussianBlur id="feGaussianBlur2647" in="composite1" stdDeviation="8" result="blur" />
      <feOffset id="feOffset2649" dx="0" dy="0" result="offset" />
      <feComposite in2="offset" id="feComposite2651" in="fbSourceGraphic" operator="over" result="fbSourceGraphic" />
      <feColorMatrix result="fbSourceGraphicAlpha" in="fbSourceGraphic" values="0 0 0 -1 0 0 0 0 -1 0 0 0 0 -1 0 0 0 0 1 0" id="feColorMatrix2665" />
      <feFlood id="feFlood2667" flood-opacity="0.498039" flood-color="rgb(0,255,0)" result="flood" />
      <feComposite in2="fbSourceGraphic" id="feComposite2669" in="flood" operator="in" result="composite1" />
      <feGaussianBlur id="feGaussianBlur2671" in="composite1" stdDeviation="8" result="blur" />
      <feOffset id="feOffset2673" dx="0" dy="0" result="offset" />
      <feComposite in2="offset" id="feComposite2675" in="fbSourceGraphic" operator="over" result="composite2" />
    </filter>
  </defs>
  <sodipodi:namedview stroke="#ef2929" fill="#f57900" id="base" pagecolor="#ffffff" bordercolor="#666666" borderopacity="0.25490196" inkscape:pageopacity="0.0" inkscape:pageshadow="2" inkscape:zoom="0.3535534" inkscape:cx="283.83797" inkscape:cy="437.18929" inkscape:current-layer="layer1" showgrid="false" inkscape:grid-bbox="true" inkscape:document-units="px" inkscape:showpageshadow="false" inkscape:window-width="1280" inkscape:window-height="789" inkscape:window-x="0" inkscape:window-y="0" width="400px" height="300px" inkscape:snap-nodes="true" inkscape:snap-bbox="true" objecttolerance="7" gridtolerance="12" guidetolerance="13" inkscape:window-maximized="1" inkscape:pagecheckerboard="true" showguides="false" inkscape:guide-bbox="true" inkscape:locked="false" inkscape:measure-start="0,0" inkscape:measure-end="0,0" inkscape:object-nodes="true" inkscape:bbox-nodes="true" inkscape:snap-global="true" inkscape:object-paths="true" inkscape:snap-intersection-paths="true" inkscape:snap-bbox-edge-midpoints="true" inkscape:snap-bbox-midpoints="true" showborder="true" inkscape:snap-center="true" inkscape:snap-object-midpoints="true" inkscape:snap-midpoints="true" inkscape:snap-smooth-nodes="true" inkscape:snap-text-baseline="true">
    <inkscape:grid type="xygrid" id="grid5883" spacingx="2" spacingy="2" enabled="true" visible="true" empspacing="4" originx="0" originy="0" />
    <sodipodi:guide position="64,8" orientation="0,1" id="guide1073" inkscape:locked="false" inkscape:label="" inkscape:color="rgb(0,0,255)" />
    <sodipodi:guide position="12,64" orientation="1,0" id="guide1075" inkscape:locked="false" inkscape:label="" inkscape:color="rgb(0,0,255)" />
    <sodipodi:guide position="64,104" orientation="0,1" id="guide1099" inkscape:locked="false" inkscape:label="" inkscape:color="rgb(0,0,255)" />
    <sodipodi:guide position="64,128" orientation="0,1" id="guide993" inkscape:locked="false" inkscape:label="" inkscape:color="rgb(0,0,255)" />
    <sodipodi:guide position="104,64" orientation="1,0" id="guide995" inkscape:locked="false" inkscape:label="" inkscape:color="rgb(0,0,255)" />
    <sodipodi:guide position="9.2651362e-08,64" orientation="1,0" id="guide867" inkscape:locked="false" inkscape:label="" inkscape:color="rgb(0,0,255)" />
    <sodipodi:guide position="120,64" orientation="1,0" id="guide869" inkscape:locked="false" inkscape:label="" inkscape:color="rgb(0,0,255)" />
    <sodipodi:guide position="64,116" orientation="0,1" id="guide871" inkscape:locked="false" inkscape:label="" inkscape:color="rgb(0,0,255)" />
    <inkscape:grid type="xygrid" id="grid873" spacingx="1" spacingy="1" empspacing="8" color="#000000" opacity="0.49019608" empcolor="#000000" empopacity="0.08627451" dotted="true" />
    <sodipodi:guide position="24,64" orientation="1,0" id="guide877" inkscape:locked="false" inkscape:label="" inkscape:color="rgb(0,0,255)" />
    <sodipodi:guide position="116,64" orientation="1,0" id="guide879" inkscape:locked="false" inkscape:label="" inkscape:color="rgb(0,0,255)" />
    <sodipodi:guide position="64,120" orientation="0,1" id="guide881" inkscape:locked="false" inkscape:label="" inkscape:color="rgb(0,0,255)" />
    <sodipodi:guide position="64,12" orientation="0,1" id="guide883" inkscape:locked="false" inkscape:label="" inkscape:color="rgb(0,0,255)" />
    <sodipodi:guide position="8,64" orientation="1,0" id="guide885" inkscape:locked="false" inkscape:label="" inkscape:color="rgb(0,0,255)" />
    <sodipodi:guide position="128,64" orientation="1,0" id="guide887" inkscape:locked="false" inkscape:label="" inkscape:color="rgb(0,0,255)" />
    <sodipodi:guide position="64,0" orientation="0,1" id="guide897" inkscape:locked="false" inkscape:label="" inkscape:color="rgb(0,0,255)" />
    <sodipodi:guide position="64,24" orientation="0,1" id="guide899" inkscape:locked="false" inkscape:label="" inkscape:color="rgb(0,0,255)" />
    <sodipodi:guide position="256,256" orientation="-0.70710678,0.70710678" id="guide950" inkscape:locked="false" inkscape:label="" inkscape:color="rgb(0,0,255)" />
    <sodipodi:guide position="64,64" orientation="0.70710678,0.70710678" id="guide952" inkscape:locked="false" inkscape:label="" inkscape:color="rgb(0,0,255)" />
  </sodipodi:namedview>
  <metadata id="metadata4">
    <rdf:RDF>
      <cc:Work rdf:about="">
        <dc:format>image/svg+xml</dc:format>
        <dc:type rdf:resource="http://purl.org/dc/dcmitype/StillImage" />
        <dc:creator>
          <cc:Agent>
            <dc:title>GNOME Design Team</dc:title>
          </cc:Agent>
        </dc:creator>
        <dc:source />
        <cc:license rdf:resource="http://creativecommons.org/licenses/by-sa/4.0/" />
        <dc:title>Adwaita Icon Template</dc:title>
        <dc:subject>
          <rdf:Bag />
        </dc:subject>
        <dc:date />
        <dc:rights>
          <cc:Agent>
            <dc:title />
          </cc:Agent>
        </dc:rights>
        <dc:publisher>
          <cc:Agent>
            <dc:title />
          </cc:Agent>
        </dc:publisher>
        <dc:identifier />
        <dc:relation />
        <dc:language />
        <dc:coverage />
        <dc:description />
        <dc:contributor>
          <cc:Agent>
            <dc:title />
          </cc:Agent>
        </dc:contributor>
      </cc:Work>
      <cc:License rdf:about="http://creativecommons.org/licenses/by-sa/4.0/">
        <cc:permits rdf:resource="http://creativecommons.org/ns#Reproduction" />
        <cc:permits rdf:resource="http://creativecommons.org/ns#Distribution" />
        <cc:requires rdf:resource="http://creativecommons.org/ns#Notice" />
        <cc:requires rdf:resource="http://creativecommons.org/ns#Attribution" />
        <cc:permits rdf:resource="http://creativecommons.org/ns#DerivativeWorks" />
        <cc:requires rdf:resource="http://creativecommons.org/ns#ShareAlike" />
      </cc:License>
    </rdf:RDF>
  </metadata>
  <g id="layer1" inkscape:label="App Icon" inkscape:groupmode="layer" transform="translate(0,724)">
    <g id="g3154" inkscape:label="clavis-vitrea-comms beta" transform="matrix(2,0,0,2,9.2148931e-6,-300.00001)">
      <g inkscape:label="clavis-vitrea-comms" id="g3315" transform="matrix(1.0666818,0,0,1.0666818,-17.070541,-2.9339992)">
        <circle inkscape:label="Backdrop circle" r="237.98526" id="path2689" cy="44" cx="256" style="fill:#ffffff;stroke:#000000;stroke-width:4.0226531;stroke-linejoin:round;paint-order:fill markers stroke" />
        <g id="layer1-6" inkscape:label="Key 01 bottom" transform="matrix(-0.22829212,0,0,0.22829212,454.12301,81.66504)">
          <g transform="matrix(2.1165915,0,0,2.1165915,-102.64501,-421.37693)" inkscape:label="Warstwa 1" id="g2346">
            <path style="fill:#ffcc00;stroke:#000000;stroke-width:0.5;stroke-linecap:round;stroke-linejoin:round" d="m 173.53125,283.5625 c -53.64548,0 -97.187503,40.88651 -97.1875,91.28125 0,50.39475 43.54201,91.3125 97.1875,91.3125 40.28604,0 74.86505,-23.07036 89.59375,-55.90625 h 25.25 c 0.33673,-17.88805 -0.69012,-15.4375 -0.69012,-15.4375 l 20.8776,8.24565 2.12502,4e-5 10.375,-15.43319 9.47091,14.28402 3.06185,0.10828 12.65474,-13.86105 19.32558,17.05008 8.40221,0.009 22.08471,-17.58999 14.80919,16.10582 3.40241,-0.13117 9.5384,-6.72465 13.12963,5.01816 11.56744,-0.53771 14.83418,-15.7617 11.2089,14.38223 6.93771,4.1e-4 36.35339,-47.13264 v -13.40625 h -254.71875 c -14.7287,-32.82711 -49.30771,-55.875 -89.59375,-55.875 z m -46.375,65.875 c 14.03637,-10e-6 25.40625,11.40113 25.40625,25.4375 0,14.03637 -11.36988,25.40625 -25.40625,25.40625 -14.03637,10e-6 -25.4375,-11.40113 -25.4375,-25.4375 0,-14.03637 11.40113,-25.40625 25.4375,-25.40625 z" id="path2907" sodipodi:nodetypes="csscccccccccccccccccccccccccsssc" inkscape:connector-curvature="0" />
            <rect style="fill:#d4aa00;stroke:#000000;stroke-width:0.49999997;stroke-linecap:round;stroke-linejoin:round" id="rect2918" width="236.01192" height="7.6530967" x="268.09952" y="347.76212" />
            <rect y="364.67529" x="268.09952" height="7.6530967" width="223.84035" id="rect2920" style="fill:#d4aa00;stroke:#000000;stroke-width:0.49999997;stroke-linecap:round;stroke-linejoin:round" />
            <path style="fill:#000000;stroke:#000000;stroke-width:0.5;stroke-linecap:round;stroke-linejoin:round;filter:url(#filter3135)" d="m 517.27419,337.70247 v 11.09375 l -36.375,47.125 h -6.9375 l -11.1875,-14.375 -14.84375,15.75 -11.5625,0.53125 -13.125,-5 -9.5625,6.71875 -3.375,0.125 -14.8125,-16.09375 -22.09375,17.59375 -8.40625,-0.0312 -19.3125,-17.03125 -12.65625,13.84375 -3.0625,-0.0937 -9.46875,-14.28125 -10.375,15.4375 h -2.125 l -20.625,-8.15625 c 0.2763,0.71871 0.65532,3.77241 0.4375,15.34375 h -25.25 c -14.7287,32.83589 -49.30771,55.90624 -89.59375,55.90625 -45.57046,0 -83.852111,-29.53222 -94.343751,-69.3125 9.5992,40.93641 48.462141,71.625 94.906251,71.625 40.28604,2e-5 74.86505,-23.07036 89.59375,-55.90625 h 25.25 c 0.21046,-11.18002 -0.10376,-14.42699 -0.375,-15.28125 l 20.5625,8.09375 h 2.125 l 10.375,-15.4375 9.46875,14.28125 3.0625,0.0937 12.65625,-13.84375 19.34375,17.03125 8.40625,0.0312 22.0625,-17.59375 14.8125,16.09375 3.40625,-0.125 9.53125,-6.71875 13.125,5 11.59375,-0.53125 14.8125,-15.75 11.21875,14.375 h 6.9375 l 36.34375,-47.125 v -13.40625 z m -390.6875,7.6875 c -14.03637,0 -25.4375,11.36987 -25.4375,25.40625 0,2.58721 0.37395,5.08425 1.09375,7.4375 -0.33916,-1.65507 -0.53125,-3.37045 -0.53125,-5.125 0,-14.03635 11.40113,-25.40625 25.4375,-25.40625 11.40455,10e-6 21.0656,7.52376 24.28125,17.875 -2.41592,-11.52341 -12.60602,-20.18751 -24.84375,-20.1875 z" id="path3126" inkscape:connector-curvature="0" />
            <path style="fill:#ffffff;stroke-width:0.5;stroke-linecap:round;stroke-linejoin:round;filter:url(#filter3148)" d="m 173.53125,283.5625 c -53.64548,-10e-6 -97.1875,40.88651 -97.1875,91.28125 0,6.29935 0.673372,12.46447 1.96875,18.40625 -0.917961,-5.03701 -1.375,-10.21862 -1.375,-15.5 0,-50.39474 43.54203,-91.28125 97.1875,-91.28125 40.28604,0 74.86504,23.04789 89.59375,55.875 h 254.125 v -2.90625 h -254.71875 c -14.72869,-32.82709 -49.30771,-55.875 -89.59375,-55.875 z m -21.1875,87.875 c 0.15187,1.12438 0.21875,2.27174 0.21875,3.4375 0,14.03639 -11.36988,25.40625 -25.40625,25.40625 -11.81881,3e-5 -21.74466,-8.06654 -24.59375,-19 1.72249,12.36759 12.3498,21.90626 25.1875,21.90625 14.03637,0 25.40626,-11.36988 25.40625,-25.40625 0,-2.19318 -0.29053,-4.31268 -0.8125,-6.34375 z" id="path3139" inkscape:connector-curvature="0" />
            <path style="fill:#808080;stroke-width:0.5;stroke-linecap:round;stroke-linejoin:round;filter:url(#filter3208)" d="m 190.99738,294.92188 c -2.03568,0.37319 -3.956,1.35147 -5.46875,2.8125 -2.06874,1.998 -3.22125,4.74894 -3.21875,7.625 v 138.53125 c -0.004,2.8257 1.12132,5.52623 3.09375,7.5 -0.87543,-1.56042 -1.37735,-3.31865 -1.375,-5.15625 v -138.53125 c -0.002,-2.87606 1.15001,-5.627 3.21875,-7.625 1.07628,-1.03949 2.36633,-1.83706 3.75,-2.34375 z m 4.625,0.1875 v 159.03125 c 0.58026,-0.14075 1.14443,-0.28564 1.71875,-0.4375 v -156.25 c 2.56001,0.62043 5.07399,1.3598 7.53125,2.1875 v -1.75 c -3.01256,-1.07802 -6.0861,-2.01446 -9.25,-2.78125 z m 13.875,4.5625 v 149.90625 c 0.58305,-0.24553 1.14177,-0.49277 1.71875,-0.75 v -146.8125 c 2.5743,1.08324 5.09332,2.25918 7.53125,3.5625 v -1.375 c -2.96738,-1.67143 -6.06546,-3.19122 -9.25,-4.53125 z m 13.875,7.34375 v 135.21875 c 0.57891,-0.37453 1.15063,-0.73733 1.71875,-1.125 v -131.75 c 2.61991,1.6942 5.13049,3.49727 7.53125,5.4375 v -0.90625 c -2.91132,-2.48193 -5.99879,-4.77256 -9.25,-6.875 z m 13.875,11.15625 v 112.90625 c 0.58654,-0.57973 1.14855,-1.15466 1.71875,-1.75 v -108.8125 c 2.5365,2.50572 4.92965,5.12702 7.125,7.90625 -2.65524,-3.63555 -5.61539,-7.06081 -8.84375,-10.25 z m 8.84375,10.25 c 0.13785,0.17451 0.26994,0.35563 0.40625,0.53125 v -0.0312 c -0.12484,-0.17406 -0.27989,-0.32698 -0.40625,-0.5 z m 5.03125,7.78125 v 76.8125 c 0.60243,-1.06266 1.16505,-2.12952 1.71875,-3.21875 v -70.34375 c -0.5537,-1.08898 -1.11632,-2.18773 -1.71875,-3.25 z" id="path3171" inkscape:connector-curvature="0" />
            <path style="fill:#ffdd55;stroke-width:0.5;stroke-linecap:round;stroke-linejoin:round;filter:url(#filter3252)" d="m 191.49738,295.42188 c -1.00825,0.18484 -1.9901,0.53316 -2.90625,1 v 156.0625 c -1.10144,-0.20173 -2.1635,-0.58732 -3.15625,-1.125 0.42506,0.48524 0.89084,0.93685 1.40625,1.34375 1.37421,1.08491 2.97704,1.7862 4.65625,2.09375 z m 10.96875,2 v 152.125 c -2.07956,0.74478 -4.19659,1.43148 -6.34375,2.03125 v 3.0625 c 3.16413,-0.76752 6.23724,-1.70226 9.25,-2.78125 v -153.46875 c -0.95859,-0.34303 -1.93437,-0.6553 -2.90625,-0.96875 z m 13.875,5.71875 v 140.09375 c -2.05712,1.15952 -4.17573,2.24663 -6.34375,3.25 v 3.59375 c 3.18453,-1.34102 6.28264,-2.85866 9.25,-4.53125 v -140.84375 c -0.95437,-0.53758 -1.92631,-1.05724 -2.90625,-1.5625 z m 13.875,8.9375 v 121.4375 c -2.02733,1.72934 -4.15165,3.35469 -6.34375,4.90625 v 4.3125 c 3.25356,-2.10489 6.33678,-4.42124 9.25,-6.90625 v -121.4375 c -0.94295,-0.80389 -1.92676,-1.54865 -2.90625,-2.3125 z m 7.53125,6.59375 v 0.6875 c 2.27889,2.46373 4.39858,5.03781 6.34375,7.75 v 91.375 c -1.94144,2.70814 -4.06978,5.28164 -6.34375,7.75 v 5.34375 c 3.382,-3.34272 6.50197,-6.94799 9.25,-10.78125 v -91.375 c -2.74803,-3.83164 -5.868,-7.40904 -9.25,-10.75 z m 13.875,18.03125 v 3.3125 c 4.69912,10.05926 7.3125,21.15011 7.3125,32.78125 0,11.63132 -2.6134,22.7205 -7.3125,32.78125 v 7.9375 c 6.5118,-11.48655 10.21875,-24.5634 10.21875,-38.40625 10e-6,-13.8426 -3.70692,-26.92386 -10.21875,-38.40625 z" id="path3166" inkscape:connector-curvature="0" />
          </g>
        </g>
        <g transform="matrix(0.95964279,0,0,0.95964279,10.331444,-19.150259)" inkscape:label="Clavis Vitrea Comms" id="g3358">
          <text xml:space="preserve" style="font-size:102.30000305px;line-height:1.25;font-family:sans-serif;-inkscape-font-specification:sans-serif;letter-spacing:0px;word-spacing:0px;fill:#000000" x="149.61749" y="160" id="text3349" inkscape:label="comms"><tspan sodipodi:role="line" id="tspan3347" x="149.61749" y="160" style="font-weight:500;font-size:56px;font-family:'Unifont Upper';-inkscape-font-specification:'Unifont Upper Medium'">COMMS</tspan></text>
          <text xml:space="preserve" style="font-size:102.30000305px;line-height:1.25;font-family:sans-serif;-inkscape-font-specification:sans-serif;letter-spacing:0px;word-spacing:0px;fill:#000000" x="78.562752" y="112.446" id="text3345" inkscape:label="Vitrea"><tspan sodipodi:role="line" id="tspan3343" x="78.562752" y="112.446" style="font-size:96px;font-family:GNUTypewriter;-inkscape-font-specification:GNUTypewriter">Vitrea</tspan></text>
          <text xml:space="preserve" style="font-size:102.30000305px;line-height:1.25;font-family:sans-serif;-inkscape-font-specification:sans-serif;letter-spacing:0px;word-spacing:0px;fill:#000000" x="256.96451" y="39.596012" id="text3335" inkscape:label="Clavis"><tspan sodipodi:role="line" id="tspan3333" x="256.96451" y="39.596012" style="font-weight:bold;font-size:96px;line-height:13px;font-family:GNUTypewriter;-inkscape-font-specification:'GNUTypewriter Bold';text-anchor:middle">Clavis</tspan><tspan sodipodi:role="line" x="256.96451" y="167.47101" id="tspan3339" style="font-size:48px;line-height:13px;text-anchor:middle" /></text>
        </g>
        <g transform="matrix(0.22829212,0,0,0.22829212,77.87699,-181.0404)" inkscape:label="Key 01 top" id="g2357">
          <g id="g2355" inkscape:label="Warstwa 1" transform="matrix(2.1165915,0,0,2.1165915,-102.64501,-421.37693)">
            <path inkscape:connector-curvature="0" sodipodi:nodetypes="csscccccccccccccccccccccccccsssc" id="path2341" d="m 173.53125,283.5625 c -53.64548,0 -97.187503,40.88651 -97.1875,91.28125 0,50.39475 43.54201,91.3125 97.1875,91.3125 40.28604,0 74.86505,-23.07036 89.59375,-55.90625 h 25.25 c 0.33673,-17.88805 -0.69012,-15.4375 -0.69012,-15.4375 l 20.8776,8.24565 2.12502,4e-5 10.375,-15.43319 9.47091,14.28402 3.06185,0.10828 12.65474,-13.86105 19.32558,17.05008 8.40221,0.009 22.08471,-17.58999 14.80919,16.10582 3.40241,-0.13117 9.5384,-6.72465 13.12963,5.01816 11.56744,-0.53771 14.83418,-15.7617 11.2089,14.38223 6.93771,4.1e-4 36.35339,-47.13264 v -13.40625 h -254.71875 c -14.7287,-32.82711 -49.30771,-55.875 -89.59375,-55.875 z m -46.375,65.875 c 14.03637,-10e-6 25.40625,11.40113 25.40625,25.4375 0,14.03637 -11.36988,25.40625 -25.40625,25.40625 -14.03637,10e-6 -25.4375,-11.40113 -25.4375,-25.4375 0,-14.03637 11.40113,-25.40625 25.4375,-25.40625 z" style="fill:#ffcc00;stroke:#000000;stroke-width:0.5;stroke-linecap:round;stroke-linejoin:round" />
            <rect y="347.76212" x="268.09952" height="7.6530967" width="236.01192" id="rect2343" style="fill:#d4aa00;stroke:#000000;stroke-width:0.49999997;stroke-linecap:round;stroke-linejoin:round" />
            <rect style="fill:#d4aa00;stroke:#000000;stroke-width:0.49999997;stroke-linecap:round;stroke-linejoin:round" id="rect2345" width="223.84035" height="7.6530967" x="268.09952" y="364.67529" />
            <path inkscape:connector-curvature="0" id="path2347" d="m 517.27419,337.70247 v 11.09375 l -36.375,47.125 h -6.9375 l -11.1875,-14.375 -14.84375,15.75 -11.5625,0.53125 -13.125,-5 -9.5625,6.71875 -3.375,0.125 -14.8125,-16.09375 -22.09375,17.59375 -8.40625,-0.0312 -19.3125,-17.03125 -12.65625,13.84375 -3.0625,-0.0937 -9.46875,-14.28125 -10.375,15.4375 h -2.125 l -20.625,-8.15625 c 0.2763,0.71871 0.65532,3.77241 0.4375,15.34375 h -25.25 c -14.7287,32.83589 -49.30771,55.90624 -89.59375,55.90625 -45.57046,0 -83.852111,-29.53222 -94.343751,-69.3125 9.5992,40.93641 48.462141,71.625 94.906251,71.625 40.28604,2e-5 74.86505,-23.07036 89.59375,-55.90625 h 25.25 c 0.21046,-11.18002 -0.10376,-14.42699 -0.375,-15.28125 l 20.5625,8.09375 h 2.125 l 10.375,-15.4375 9.46875,14.28125 3.0625,0.0937 12.65625,-13.84375 19.34375,17.03125 8.40625,0.0312 22.0625,-17.59375 14.8125,16.09375 3.40625,-0.125 9.53125,-6.71875 13.125,5 11.59375,-0.53125 14.8125,-15.75 11.21875,14.375 h 6.9375 l 36.34375,-47.125 v -13.40625 z m -390.6875,7.6875 c -14.03637,0 -25.4375,11.36987 -25.4375,25.40625 0,2.58721 0.37395,5.08425 1.09375,7.4375 -0.33916,-1.65507 -0.53125,-3.37045 -0.53125,-5.125 0,-14.03635 11.40113,-25.40625 25.4375,-25.40625 11.40455,10e-6 21.0656,7.52376 24.28125,17.875 -2.41592,-11.52341 -12.60602,-20.18751 -24.84375,-20.1875 z" style="fill:#000000;stroke:#000000;stroke-width:0.5;stroke-linecap:round;stroke-linejoin:round;filter:url(#filter3135)" />
            <path inkscape:connector-curvature="0" id="path2349" d="m 173.53125,283.5625 c -53.64548,-10e-6 -97.1875,40.88651 -97.1875,91.28125 0,6.29935 0.673372,12.46447 1.96875,18.40625 -0.917961,-5.03701 -1.375,-10.21862 -1.375,-15.5 0,-50.39474 43.54203,-91.28125 97.1875,-91.28125 40.28604,0 74.86504,23.04789 89.59375,55.875 h 254.125 v -2.90625 h -254.71875 c -14.72869,-32.82709 -49.30771,-55.875 -89.59375,-55.875 z m -21.1875,87.875 c 0.15187,1.12438 0.21875,2.27174 0.21875,3.4375 0,14.03639 -11.36988,25.40625 -25.40625,25.40625 -11.81881,3e-5 -21.74466,-8.06654 -24.59375,-19 1.72249,12.36759 12.3498,21.90626 25.1875,21.90625 14.03637,0 25.40626,-11.36988 25.40625,-25.40625 0,-2.19318 -0.29053,-4.31268 -0.8125,-6.34375 z" style="fill:#ffffff;stroke-width:0.5;stroke-linecap:round;stroke-linejoin:round;filter:url(#filter3148)" />
            <path inkscape:connector-curvature="0" id="path2351" d="m 190.99738,294.92188 c -2.03568,0.37319 -3.956,1.35147 -5.46875,2.8125 -2.06874,1.998 -3.22125,4.74894 -3.21875,7.625 v 138.53125 c -0.004,2.8257 1.12132,5.52623 3.09375,7.5 -0.87543,-1.56042 -1.37735,-3.31865 -1.375,-5.15625 v -138.53125 c -0.002,-2.87606 1.15001,-5.627 3.21875,-7.625 1.07628,-1.03949 2.36633,-1.83706 3.75,-2.34375 z m 4.625,0.1875 v 159.03125 c 0.58026,-0.14075 1.14443,-0.28564 1.71875,-0.4375 v -156.25 c 2.56001,0.62043 5.07399,1.3598 7.53125,2.1875 v -1.75 c -3.01256,-1.07802 -6.0861,-2.01446 -9.25,-2.78125 z m 13.875,4.5625 v 149.90625 c 0.58305,-0.24553 1.14177,-0.49277 1.71875,-0.75 v -146.8125 c 2.5743,1.08324 5.09332,2.25918 7.53125,3.5625 v -1.375 c -2.96738,-1.67143 -6.06546,-3.19122 -9.25,-4.53125 z m 13.875,7.34375 v 135.21875 c 0.57891,-0.37453 1.15063,-0.73733 1.71875,-1.125 v -131.75 c 2.61991,1.6942 5.13049,3.49727 7.53125,5.4375 v -0.90625 c -2.91132,-2.48193 -5.99879,-4.77256 -9.25,-6.875 z m 13.875,11.15625 v 112.90625 c 0.58654,-0.57973 1.14855,-1.15466 1.71875,-1.75 v -108.8125 c 2.5365,2.50572 4.92965,5.12702 7.125,7.90625 -2.65524,-3.63555 -5.61539,-7.06081 -8.84375,-10.25 z m 8.84375,10.25 c 0.13785,0.17451 0.26994,0.35563 0.40625,0.53125 v -0.0312 c -0.12484,-0.17406 -0.27989,-0.32698 -0.40625,-0.5 z m 5.03125,7.78125 v 76.8125 c 0.60243,-1.06266 1.16505,-2.12952 1.71875,-3.21875 v -70.34375 c -0.5537,-1.08898 -1.11632,-2.18773 -1.71875,-3.25 z" style="fill:#808080;stroke-width:0.5;stroke-linecap:round;stroke-linejoin:round;filter:url(#filter3208)" />
            <path inkscape:connector-curvature="0" id="path2353" d="m 191.49738,295.42188 c -1.00825,0.18484 -1.9901,0.53316 -2.90625,1 v 156.0625 c -1.10144,-0.20173 -2.1635,-0.58732 -3.15625,-1.125 0.42506,0.48524 0.89084,0.93685 1.40625,1.34375 1.37421,1.08491 2.97704,1.7862 4.65625,2.09375 z m 10.96875,2 v 152.125 c -2.07956,0.74478 -4.19659,1.43148 -6.34375,2.03125 v 3.0625 c 3.16413,-0.76752 6.23724,-1.70226 9.25,-2.78125 v -153.46875 c -0.95859,-0.34303 -1.93437,-0.6553 -2.90625,-0.96875 z m 13.875,5.71875 v 140.09375 c -2.05712,1.15952 -4.17573,2.24663 -6.34375,3.25 v 3.59375 c 3.18453,-1.34102 6.28264,-2.85866 9.25,-4.53125 v -140.84375 c -0.95437,-0.53758 -1.92631,-1.05724 -2.90625,-1.5625 z m 13.875,8.9375 v 121.4375 c -2.02733,1.72934 -4.15165,3.35469 -6.34375,4.90625 v 4.3125 c 3.25356,-2.10489 6.33678,-4.42124 9.25,-6.90625 v -121.4375 c -0.94295,-0.80389 -1.92676,-1.54865 -2.90625,-2.3125 z m 7.53125,6.59375 v 0.6875 c 2.27889,2.46373 4.39858,5.03781 6.34375,7.75 v 91.375 c -1.94144,2.70814 -4.06978,5.28164 -6.34375,7.75 v 5.34375 c 3.382,-3.34272 6.50197,-6.94799 9.25,-10.78125 v -91.375 c -2.74803,-3.83164 -5.868,-7.40904 -9.25,-10.75 z m 13.875,18.03125 v 3.3125 c 4.69912,10.05926 7.3125,21.15011 7.3125,32.78125 0,11.63132 -2.6134,22.7205 -7.3125,32.78125 v 7.9375 c 6.5118,-11.48655 10.21875,-24.5634 10.21875,-38.40625 10e-6,-13.8426 -3.70692,-26.92386 -10.21875,-38.40625 z" style="fill:#ffdd55;stroke-width:0.5;stroke-linecap:round;stroke-linejoin:round;filter:url(#filter3252)" />
          </g>
        </g>
        <g style="fill:#ffcc00;stroke:#000000" transform="matrix(0.839485,0,0,0.839485,6.9697351,53.344989)" inkscape:label="Comms icons bottom" id="g2846">
          <g transform="matrix(5.7931868,0,0,5.7931868,122.96492,-1538.3108)" inkscape:label="Letter symbol" id="g35596">
            <rect y="300" x="21.9998" height="9" width="12" id="rect35604" style="color:#000000;stroke-width:2;stroke-linecap:round;stroke-linejoin:round" />
            <path inkscape:connector-curvature="0" sodipodi:nodetypes="ccc" id="path35600" d="m 22.999801,300.99992 5.000005,4.00007 4.999994,-4.00002" style="stroke-width:1.99999976;stroke-linecap:round" />
          </g>
          <path inkscape:label="Chat symbol" style="stroke-width:5.79318666px" d="m 160.61922,154.74799 c -8.02356,0 -14.48297,6.45941 -14.48297,14.48297 v 28.96593 c 0,8.02357 6.45941,14.48297 14.48297,14.48297 h 36.93156 l 18.10371,23.17275 v -23.53482 c 6.61153,-1.34605 11.58638,-7.1003 11.58638,-14.1209 v -28.96593 c 0,-8.02356 -6.45941,-14.48297 -14.48297,-14.48297 z" id="path2694" inkscape:connector-curvature="0" />
        </g>
      </g>
      <text inkscape:label="Beta" id="text2361" y="236.47679" x="-5.8765965" style="font-size:95.42472839px;line-height:1.25;font-family:'Unifont Upper';-inkscape-font-specification:'Unifont Upper';letter-spacing:0px;word-spacing:0px;fill:#000000;stroke-width:0.93279308;filter:url(#filter2567)" xml:space="preserve"><tspan style="font-weight:500;font-size:186.55860901px;-inkscape-font-specification:'Unifont Upper Medium';fill:#00ff00;stroke:#008000" y="236.47679" x="-5.8765965" id="tspan2359" sodipodi:role="line">β</tspan></text>
    </g>
  </g>
</svg>
