<?xml version="1.0" encoding="utf-8"?>
<!-- Svg Vector Icons : http://www.onlinewebfonts.com/icon -->
<!DOCTYPE svg PUBLIC "-//W3C//DTD SVG 1.1//EN" "http://www.w3.org/Graphics/SVG/1.1/DTD/svg11.dtd">
<svg version="1.1" xmlns="http://www.w3.org/2000/svg" xmlns:xlink="http://www.w3.org/1999/xlink" x="0px" y="0px" viewBox="0 0 1000 1000" enable-background="new 0 0 1000 1000" xml:space="preserve">
<metadata> Svg Vector Icons : http://www.onlinewebfonts.com/icon </metadata>
<g><g transform="translate(0.000000,511.000000) scale(0.100000,-0.100000)"><path d="M2202.2,4987.9c-746.7-145.3-1366-670.7-1620.9-1372.7c-373.4-1030.7,80.5-2162,1062-2642.7c505.3-248.2,1059.7-286.2,1603-111.8l194.5,60.4l2130.7-2796.9C7293-4134,7720-4681.7,7791.5-4722c194.5-109.6,420.3-85,581.3,60.4c49.2,44.7,286.2,230.3,525.4,413.6c628.2,476.2,650.6,500.8,650.6,717.7c0,143.1-60.3,266.1-212.4,424.8c-89.4,91.7-102.8,98.4-210.1,98.4c-114,0-120.7-4.5-532.1-315.2c-228-172.2-418.1-310.8-420.3-306.3c-2.2,2.2-58.1,76-123,158.7c-67.1,85-111.8,161-100.6,169.9c11.2,8.9,127.5,100.6,259.4,201.2c261.6,199,297.3,239.2,333.1,366.7c62.6,232.5-172.1,474-411.4,418.1c-98.4-20.1-96.1-20.1-362.2-223.6c-123-93.9-234.8-176.6-250.4-185.6s-69.3,44.7-138.6,138.6c-62.6,85-114,158.7-114,165.4c0,6.7,187.8,156.5,420.3,330.9c460.6,348.8,496.3,382.3,496.3,456.1c0,64.8-322,496.3-413.6,552.2c-46.9,31.3-93.9,40.2-161,33.5c-96.1-11.2-145.3-42.5-735.5-498.6l-181.1-140.9L5497.7-118.5c-657.3,860.8-1207.3,1589.6-1225.2,1616.4c-29.1,44.7-22.4,60.4,58.1,181.1c357.7,525.4,462.8,1142.5,306.3,1764c-47,181.1-210.2,520.9-330.9,690.8c-286.2,400.2-749,708.7-1247.6,831.7C2861.7,5012.5,2396.7,5025.9,2202.2,4987.9z M2998.1,4053.4c498.6-185.6,813.8-641.7,811.6-1180.5c-2.2-241.5-62.6-453.9-187.8-648.4c-100.6-156.5-330.9-364.4-496.3-444.9c-704.3-346.5-1547.1,40.2-1750.6,802.6c-42.5,158.7-42.5,447.2,0,610.4c109.6,422.6,462.8,780.3,885.4,898.8C2445.9,4142.8,2808.1,4124.9,2998.1,4053.4z"/></g></g>
</svg>