<?xml version="1.0" encoding="utf-8"?>
<!-- Svg Vector Icons : http://www.onlinewebfonts.com/icon -->
<!DOCTYPE svg PUBLIC "-//W3C//DTD SVG 1.1//EN" "http://www.w3.org/Graphics/SVG/1.1/DTD/svg11.dtd">
<svg version="1.1" xmlns="http://www.w3.org/2000/svg" xmlns:xlink="http://www.w3.org/1999/xlink" x="0px" y="0px" viewBox="0 0 1000 1000" enable-background="new 0 0 1000 1000" xml:space="preserve">
<metadata> Svg Vector Icons : http://www.onlinewebfonts.com/icon </metadata>
<g><g transform="translate(0.000000,511.000000) scale(0.100000,-0.100000)"><path d="M7597.9,2956.3c-680.9-147.7-1244.8-664.5-1454-1335.1c-30.8-90.2-59.5-213.3-67.7-270.7l-14.4-104.6H3081.9H100v-605v-605h348.6h348.6l4.1-875.7l6.1-877.8l693.2-6.2l691.1-4.1v881.9V35.9h184.6H2561v-881.9v-881.9l693.2,4.1l691.1,6.2l6.2,877.8l4.1,875.7h1043.9h1043.9l10.3-568.1c8.2-527.1,12.3-584.5,61.5-767c53.3-203,168.2-459.4,285.1-629.6c108.7-162,424.5-457.3,607-566c352.8-209.2,789.6-307.6,1169-260.5c445,53.3,812.1,235.8,1142.3,566c242,242,373.3,447.1,473.7,744.5c104.6,303.5,114.9,467.6,104.6,1698.1c-6.2,1037.7-10.3,1093.1-53.3,1259.2c-57.4,221.5-215.3,543.5-356.8,728c-276.9,361-717.8,635.8-1158.7,719.8C8135.2,2997.3,7780.4,2995.3,7597.9,2956.3z M8209,2640.5c668.6-96.4,1179.2-580.4,1314.6-1240.8c28.7-143.6,30.8-319.9,26.7-1353.6c-8.2-1341.2-2-1279.7-174.3-1630.4c-80-164.1-125.1-223.5-281-381.4c-157.9-155.9-217.4-201-381.4-281c-281-139.5-408.1-168.2-738.3-168.2c-330.2,0-457.3,28.7-738.3,168.2c-164.1,80-223.6,123-381.4,281c-155.9,157.9-198.9,217.4-281,381.4c-162,334.3-164.1,342.5-172.3,1195.6L6392,364.1l-914.7,2.1c-504.5,2.1-1839.6,6.1-2967.6,8.2l-2050.8,6.1l-6.1,258.4l-6.2,258.4h2975.8h2973.7v162c0,674.7,393.8,1263.3,994.7,1488.9C7651.2,2646.6,7938.3,2679.5,8209,2640.5z M1853.5-671.6v-697.3l-352.7-6.2l-354.8-4.1V-686c0,381.5,6.1,701.4,14.4,709.6c8.2,6.2,166.1,10.3,352.7,8.2l340.4-6.2V-671.6z M3602.8-677.8l4.1-701.4l-352.7,4.1l-354.8,6.2l-6.1,676.8c-2.1,371.2,0,689.1,6.1,703.4c6.1,20.5,88.2,24.6,352.7,20.5l344.5-6.2L3602.8-677.8z"/><path d="M7759.9,2099.1c-379.4-88.2-687-319.9-859.3-648.1c-133.3-252.3-135.4-270.7-135.4-1347.4v-968l51.3-160c157.9-496.3,652.2-867.5,1158.7-867.5c319.9,0,600.9,125.1,853.1,377.4c127.1,127.2,182.5,201,237.9,319.9c127.1,268.7,129.2,283,129.2,1322.8c0,1052.1,0,1043.9-147.7,1326.9C8801.7,1924.8,8233.6,2207.8,7759.9,2099.1z M8213.1,1750.4c227.7-59.5,440.9-225.6,539.4-418.4c98.4-192.8,104.6-262.5,104.6-1208c0-578.3-8.2-922.9-22.5-994.7c-55.4-258.4-225.6-477.8-465.5-594.7c-133.3-65.6-143.6-67.7-393.8-67.7c-248.1,0-262.5,2.1-389.7,65.6c-242,118.9-422.5,356.9-471.7,619.4c-26.7,145.6-26.7,1788.3,0,1929.8c61.5,324,297.4,580.4,613.2,668.6C7854.2,1785.3,8083.9,1785.3,8213.1,1750.4z"/></g></g>
</svg>