<svg version="1" xmlns="http://www.w3.org/2000/svg" width="1365.333" height="1365.333" viewBox="0 0 1024.000000 1024.000000"><path d="M726 142.9c-.5 1.1-1 2.6-1 3.4 0 .8-1.3 1.7-2.9 2-1.8.4-3.6 1.8-4.7 3.7-1.1 1.7-3.2 3.5-5.1 4.1-2.8.9-3.3 1.4-2.7 3.2.3 1.2 1.2 2.9 2 3.7 1 1.2 3.4 11.7 3.4 15.3 0 1.5 6.9 3.7 11.4 3.7 2.4 0 4.6.4 4.8 1 .3.9 9.1 3 12.8 3 .9 0 2.4-1.6 3.3-3.5.9-2 3.3-4.5 5.2-5.6 3.9-2.3 4.5-4.4 1.5-5.4-1.8-.6-1.9-.9-.6-3.3.7-1.5 1.7-4.1 2-5.8.6-2.7.3-3.5-2.3-5.7-2.2-1.8-3.1-3.5-3.1-5.5 0-3.6-.8-4.3-9.1-7.6-8-3.2-13.4-3.4-14.9-.7zM256 149.1c-1.4.6-6.5 1.3-11.4 1.6l-8.8.6.7 4.6c.9 5.7.9 9.6 0 13.8-.6 2.9-.4 3.3 1.9 3.9 1.5.3 7 .5 12.4.2 7.8-.3 10.5-.8 13.5-2.6 4.5-2.6 7-2.8 8.8-.6.7.9 2.3 2 3.5 2.4 3.1 1.2 4.4 10.8 2.9 21.8-.7 4.5-.5 5.6 1.2 7.5 3.5 3.8 4.6 6.6 2.9 7.3-1.8.7-3.3 5-4.2 12-.6 4.6-.4 5.3 1.6 6.7 2.1 1.5 2.2 1.9 1 4.7-1 2.4-1 4-.1 6.9.9 3.2.8 4.5-.5 7.7-2.5 5.8-3.2 23.6-1 26.8 2 3.2 2 4.6.1 4.6-.9 0-2.8 1.2-4.3 2.7-2.1 2.1-3.5 2.6-6.3 2.4-2.3-.1-4 .3-4.8 1.3-1.9 2.2-4.8 2-5.6-.4-.8-2.6-2.9-2.6-4.6.1-1.3 1.9-1.8 2-6.2.8-2.6-.6-5-.9-5.3-.7-.2.3.5 2.7 1.6 5.3 1.1 2.6 1.9 4.9 1.8 5-.2.1-1.8.7-3.5 1.4-2.4 1-3.3 2-3.3 3.6 0 1.8 1.4 3.1 6.5 5.9 7 3.9 13.1 4.8 14.1 2.1.4-1 2-1.5 5-1.5 2.4 0 4.4-.5 4.4-1 0-.6 2.8-1 6.5-1s6.5.4 6.5 1c0 .5 2 1 4.5 1s4.5-.5 4.5-1c0-1.3 8.3-1.3 15.4.1 4.2.9 6.6.9 9.4.1 2.9-.9 4.6-.8 7.7.3 2.4.8 7.9 1.4 13.6 1.5 9.2 0 9.6-.1 12.2-2.8 3.7-3.8 3.4-7.2-.9-12.9l-3.6-4.7 2.6-1.3c2.4-1.2 4.4-4.9 3.3-6-.3-.3-2 .2-3.8 1.1-3.9 2-6.3 2-7.8.2-.6-.7-3.5-1.6-6.4-1.9-2.8-.3-6-.8-6.9-1.2-1.1-.4-2.4.2-3.8 1.8-1.2 1.4-3.7 2.7-5.8 3.1-2 .3-4.9 1.2-6.4 2s-2.9 1.2-3.2.8c-1.1-1.9-1.7-12.2-.7-12.2.6 0 1.1-1 1.1-2.2 0-1.2.5-3.6 1.2-5.3 1-2.9.8-3.8-2-9-3.2-5.8-3.2-5.9-1.2-7.7 2.3-2.2 2.3-2 .9-5.1-.8-1.7-.8-3-.1-4.4.8-1.3.8-3.2 0-6.1-.7-2.7-.7-5.1 0-6.9.6-1.8.6-3.8 0-5.3s-.5-4 .1-6.5c1-4.1 0-10.7-3-18.8-1.1-3.3-1.1-4.1.8-7.9 1.1-2.4 2.4-6.4 2.7-8.9.6-4.2.5-4.6-1.9-5.7-2.3-1.1-2.5-1.6-2.5-8.2 0-5.1-.6-8.2-2-11-2-3.9-2.2-4-7.4-4-3.9 0-5.5-.4-6-1.5-.4-1.1-2.1-1.5-6.1-1.5-3.1 0-7.2.7-9.2 1.5-1.9.8-4.3 1.5-5.3 1.5s-2.3-.7-3-1.5c-1.4-1.7-4.3-1.8-8-.4zM149.4 150.5c-.5 1.2-2.7 1.5-10.9 1.5h-10.3l-1.6 4c-.9 2.2-1.6 4.6-1.6 5.3 0 .6-3.2 2.7-7 4.5-5.8 2.8-7.2 4-8.2 6.9-.7 1.9-2.6 4.3-4.5 5.4-3.5 2.2-4.3 5.5-2.1 7.7.9.9.4 2-2.2 4.7-3 3.1-3.2 3.7-2.2 5.9.9 2.1.8 2.6-.7 3.1-1 .3-2.6 1.3-3.4 2.3-1.4 1.5-1.5 2.4-.5 5.5 1 3.2.9 4-.8 5.8-3.1 3.4-5.7 19-3.4 20.4.6.3 1 3.9 1 7.9 0 6.9.2 7.4 3.4 10.5 3.3 3.2 3.4 3.4 3.8 13.6.5 11.2 2 15.1 6 15.7 1.8.2 2.4 1.1 2.9 4.2.6 3.9 1.9 5.4 8.3 9.9 1.4 1 2.6 2.8 2.6 4 .1 3.3 8 6.7 15.7 6.7 4.8 0 6.4.4 7.9 2.1 1.5 1.6 2.6 1.9 5.4 1.4 1.9-.3 8.9-1 15.6-1.4 6.7-.5 13-1.4 14.2-2 1.3-.7 2.3-2.5 2.7-5.1.6-3.8.9-4 4.1-4 2.7 0 3.4-.4 3.4-2 0-1.4 1.4-2.7 4.5-4.2 4.3-2.1 4.5-2.4 4.5-6.6 0-2.9.7-5.3 2-6.9 1.1-1.4 2-3.4 2-4.4 0-1 1.6-3.3 3.5-5 3.9-3.6 4.5-6.7 1.6-9.3-1.6-1.5-1.8-2.2-.9-4.1.7-1.6.7-2.9-.1-4.4-1.1-2.1-1.8-2.1-13.4-1.9l-12.2.3-.3 4.9c-.2 3-1.1 5.9-2.3 7.4-1 1.4-1.9 3.4-1.9 4.6-.1 1.3-1.4 2.9-3.3 4.1-1.8 1.1-3.3 3-3.5 4.3-.8 5.6-10.4 10.6-16 8.3-2.9-1.2-5.6-.6-9.3 2.1-1.4.9-2.3.7-4.8-1.5-1.7-1.4-4.7-2.9-6.6-3.3-3.5-.6-3.9-1.2-5.1-7.7-.4-2.7-1.4-4.2-3-4.9-1.5-.7-2.4-2-2.4-3.4 0-1.3-1.2-3.2-3-4.6-2.8-2.2-3-2.7-2-5.2.7-1.9.7-4 0-6.5-.5-2-1-6.4-1-9.8 0-3.4-.7-8.3-1.6-10.8-1.4-4.2-1.4-4.9 0-7 .9-1.4 1.6-3.8 1.6-5.6 0-1.7.9-4.2 1.9-5.6 1.6-1.9 1.8-3 1-4.9-1.5-4-1.1-4.8 3.2-6.8 3.9-1.8 4-2 3.4-5.6-.6-3.5-.5-3.8 2.4-4.3 2.8-.6 3.1-1 3.1-4.5 0-5 1.4-6.2 7.1-6.2h4.7l1.1-4.6c1-4.1 1.4-4.5 3.4-4 1.2.3 5 .6 8.4.6h6.2l2.5 5.5c2.5 5.5 2.5 5.5 7 5.5 4.6 0 4.6 0 4.6 3.5 0 1.9.5 4.3 1.1 5.3.7 1.3.4 4.1-1.4 10.9l-2.4 9.2 3 1.1c1.6.5 3.7 1 4.6 1 .9 0 2.2.9 2.9 2 1.3 2.1 7.5 2.9 8.7 1 .3-.6 3.3-1 6.6-1h6l-.3-4.7c-.3-4.1-.7-5-3.5-6.8-2.9-1.8-3.2-2.5-3.3-7.1 0-3.2.5-5.6 1.4-6.3 2.2-1.9 3.4-12.4 2.1-18.8-.6-2.5-.3-3.3 1.4-4.2 3.1-1.7 2.8-6.8-.6-10.3-3.6-3.7-9.9-3.8-16.2-.3-4.3 2.5-12.1 3.5-12.1 1.5 0-.6-2-1-4.5-1-3.6 0-4.7-.4-6.1-2.5-1.4-2.1-2.4-2.5-6.5-2.5-3.5 0-5.1.4-5.5 1.5zM422.5 184.2c-2.7.5-6.5 1.2-8.3 1.4-2.4.4-3.9 1.4-5 3.5-1.5 2.6-2.2 2.9-6.4 2.9-2.7 0-4.8.4-4.8.8 0 1.8-6.9 8.2-8.9 8.2-1.8 0-2.1.6-2.1 4.5 0 3.5-.4 4.7-2.1 5.6-1.8.9-2 1.7-1.5 5.2.4 2.3 1 7.1 1.4 10.7.5 4.3 1.7 8.1 3.5 11.1 3.2 5.4 3.3 5.9.9 5.9-.9 0-3.4 1.4-5.5 3.1-2.7 2.2-3.7 3.8-3.7 6 0 1.6-.4 2.9-.9 2.9-.4 0-1.9 2-3.2 4.5l-2.4 4.6 2.4 1.8c2.1 1.6 2.3 2.2 1.4 4.8-1.4 3.8.2 10.3 4.7 19.3 3.1 6.4 7.9 11 11.5 11 .8 0 2.4.5 3.5 1.2 1.5 1 2.7 1 5.5-.1 2-.7 3.7-1.1 3.9-.9.1.1.7 1.6 1.4 3.1 1.1 2.7 1.5 2.8 5.1 2.2 2.4-.4 4.8-.2 6.1.5 3 1.6 13.2 1.5 15.8-.1 1.1-.7 2.5-2.3 3.1-3.6l1.1-2.4 4.1 2.2 4.1 2.1 4-3.9 3.9-3.8 2.4 2.9 2.3 2.9 2.8-2 2.7-2 3.1 3.9c3.1 3.9 3.2 4 10.1 4.2 3.9.1 8.2-.2 9.6-.6 1.5-.5 3.7-.4 5.4.2 4.3 1.6 6-.5 4.6-5.8-1.1-3.8-.9-4.3 1.4-6.6 2.1-2.1 2.5-3.4 2.5-8.5 0-5.8.1-6 3.1-6.6 1.6-.4 2.9-1 2.7-1.3-5-10.8-7.2-14.1-10.9-15.7-4.2-2-6.5-1.1-7.1 2.6-.2 1.5-1.1.9-4.5-3.3-4.3-5.3-4.3-5.3-1.9-5.9 4.5-1.2 4.8-1.9 2.6-5.5-2.1-3.8-2.6-7.9-1-8.9.6-.3 1-4.3 1-8.9 0-7.5-.2-8.5-2.5-10.6-2.3-2.1-2.5-3.1-2.5-10.1 0-7.6-.1-7.9-3.2-10.2-1.8-1.4-4.3-2.8-5.5-3.1-1.2-.4-3.6-2.6-5.5-5-4.8-6.3-9.9-8.3-24.3-9.5-6.6-.5-12.7-1.2-13.5-1.4-.8-.2-3.7 0-6.5.5zm15 27.2c1.7-.1 4.4-.2 6-.3 1.7-.2 5.1.1 7.7.4 4.7.7 4.7.8 6.2 5.9 1.2 4 1.3 6.1.5 8.9-1.2 4.4-2.5 4.7-4.1.9-.7-1.5-1.3-2.8-1.4-3 0-.1-2.1.7-4.5 1.8-5.6 2.5-6.9 2.5-6.9 0 0-1.5-.7-2-2.5-2-1.4 0-2.5.5-2.5 1.2 0 1.9-3.1 4.8-5.2 4.8-1 0-2.7-.9-3.8-2-1.6-1.6-2.5-1.8-4-1-3.8 2-4.2 1.3-3.5-5.3.3-3.4.8-6.9 1.1-7.8.6-2.2 6.1-3.8 10.4-3.1 1.9.4 4.9.6 6.5.6zm20.3 44.9c.6.8.6 3.5-.2 7.7l-1.2 6.5-3.9.7c-2.2.4-6.2 1.4-8.9 2.2-4.6 1.4-5.1 1.4-7.4-.5-3.5-2.7-4.2-2.4-4.2 2.1v4.1l-9.7-.3-9.8-.3-.3-4.8c-.2-3.1-1-5.5-2.3-6.8-3.1-3.1-2.3-5.2 2.9-7.7 5.3-2.5 13.9-3 20.4-1 3.4 1 4.1.9 5.8-.8 1.6-1.5 3.6-1.9 9.9-2.1 5.1-.1 8.3.3 8.9 1zm-48.9 11.6c2.3 1.5-.5 7.1-3.4 7.1-2.8 0-5.4-5.8-3.3-7.2 1.7-1 5-1 6.7.1z"/><path d="M424.6 214.5c-.5 1.4 2.2 5.1 3 4.2.5-.5-1.3-5.7-2-5.7-.2 0-.6.7-1 1.5zM421 261.8c0 1.2.9 2.6 2 3.2 1.6.8 2 .8 2-.3 0-.8-.9-2.2-2-3.2-1.9-1.8-2-1.7-2 .3zM680.2 188.3c-1.2 1.3-2.2 2.6-2.2 3 0 .4-1.2 2.1-2.7 3.8-2.8 3.1-4.6 7.5-3.7 9 .2.4 1.7 1 3.4 1.4 2.3.5 2.9 1.2 3.2 3.8.3 3.1.4 3.2 8.3 4.5 8.3 1.4 14.2.6 17.1-2.2 2.1-2.1 9.3-2.9 11-1.2.8.8 2.3 1.8 3.4 2.1 2.6.8 4 6.2 3.8 15.4-.1 5.7-.6 7.9-2 9.3-2.1 2.1-2.3 4.9-.6 6.6.9.9.9 2 .1 4.5-1.5 4.8-.9 18.6 1 22.4 2.2 4.1 2.1 5-.3 5.8-1.1.4-3.1 1.8-4.4 3.2-2.1 2.3-3 2.5-6.9 2-2.5-.4-6.1-1.4-8.1-2.4-3.1-1.4-4.2-1.5-7-.5-2.4.9-4.1.9-6.4.1-4.5-1.5-6.1-.6-6.8 4-.5 3.1-1.5 4.6-5 7.1l-4.3 3.3 1.6 3.1c4.1 8.1 4.7 8.5 15.8 10.7 11.3 2.3 12.3 2.3 13 0 .5-1.8 1.4-2.1 6.1-2.1 4.1 0 5.9.5 7.4 2 2.1 2.1 7.4 2.7 8.5 1 .3-.6 2.1-1 3.8-1 1.8 0 4.8-.4 6.6-1 3-.8 3.8-.7 5.4 1.1 1.8 2 2.7 2.1 11.6 1.5 5.3-.3 10.4-.6 11.4-.6.9.1 3.6.1 6 .1 2.3-.1 5.8 0 7.7 0 4.9.2 7.8 0 13.6-.7 4.8-.5 5.2-.8 5.8-3.6.3-1.7.6-5.8.6-9.3 0-5.8-.2-6.4-3.5-9.3-1.9-1.8-3.9-3.2-4.4-3.2-.5 0-1.3-.9-1.6-2-.6-1.9-4.5-2.9-4.5-1.3 0 .5-.4 1.4-.8 2.1-.7 1-1.9.8-5.6-.8-5-2.1-13.6-2.7-13.6-1 0 .5-1.5 1-3.4 1s-3.8.4-4.1 1c-.8 1.3-5.5 1.3-5.5 0 0-.5-1.4-2.5-3-4.4l-3-3.4 2.1-7.9c1.1-4.3 2.7-8.8 3.5-10 2-3.1 1.8-4.2-1-5.4-2.1-1-2.2-1.4-1.4-5.4.6-2.8.6-5 0-6.2-.7-1.2-.7-2.5 0-3.6.6-1.1.6-3.3 0-6-.8-3.8-.6-4.8 1.5-7.7 2.8-4.2 3.3-13.9.8-16-.8-.7-1.5-2.3-1.5-3.6 0-1.3-.4-2.4-1-2.4-.5 0-1-1.5-1-3.3-.1-4.6-7-9.7-13.4-9.7-2.6 0-4.6.5-4.8 1.2-.3.9-1.8.9-6.2-.2-4.5-1.1-6.2-1.1-7.7-.2-2.5 1.6-12.6 1.6-13.1 0-.3-.9-1.5-.9-5 .1-2.5.7-5.7 1-6.9.6-1.3-.4-3.1-.9-4-1.1-.8-.2-2.5.6-3.7 1.9zM532.8 189c-1 1.5-2.4 2-5.5 2s-4.3.4-4.7 1.7c-.8 2.7-.6 21.7.3 23.1.5.9 3.6 1.1 10.5.9l9.8-.4 1.9 3.1c1.1 1.7 2.6 5.1 3.3 7.6.8 2.5 2.4 6.7 3.6 9.3 1.2 2.7 3.2 9.1 4.5 14.3 2.4 9.6 4.5 14.1 7 15 .8.3 1.7 2 2.1 3.7.9 4.5 4.2 11.6 7.2 15.5 1.5 1.9 2.6 4.9 2.8 7.2.3 4.6 4.8 13.4 8.2 16.1 3.8 3 6.3 2.3 13.2-3.5 7.4-6.3 8.4-7.9 10.1-16.6.7-3.6 2.2-8.5 3.5-11 1.2-2.5 5.4-14.9 9.4-27.5 3.9-12.7 8.1-24.8 9.3-27 2.9-5.4 9.5-8.8 15.4-8.1 7 .9 7.1.6 7.2-10.2 0-12.4-.4-13-6.8-12.2-4.5.6-5.3.4-7.3-1.7-1.2-1.3-2.5-2.3-2.9-2.3-.4 0-1.1 2.5-1.4 5.5-.4 3-1.1 5.5-1.4 5.5-.4 0-2.2-1.8-4-4-2.7-3.4-3.8-4-6.9-4-3 0-4.5.8-8.2 4.5l-4.5 4.4-8.1-3.7c-4.5-2.1-9.3-4.6-10.7-5.5-1.7-1.1-2.8-1.3-3.2-.6-1.1 1.7-18.4.3-20.6-1.7-1.7-1.5-2-1.5-4.8.5-1.6 1.2-3.4 2.1-4 2.1-.6 0-2 1.3-3.3 3-1.2 1.6-2.6 3-3.1 3s-3.4-2.3-6.6-5c-6.2-5.4-9.3-6.2-11.3-3zm46.2 12.5c1.7 2 1.1 2.4-2.2 1.8-1.6-.3-2.8-1.2-2.8-1.9 0-1.9 3.4-1.8 5 .1zm-36.7 1c.1.5-.6 1.1-1.5 1.3-1.1.2-1.8-.3-1.8-1.3 0-1.7 3-1.8 3.3 0zm46.9.2c1 .9 1.8 2.5 1.8 3.5 0 1.5-.6 1.9-2.7 1.6-2.3-.2-2.9-.8-3.1-3.6-.4-3.6 1.1-4.2 4-1.5zm8 16.3c6.6 6.7 7.3 9.3 2.7 10.9-3.1 1.1-3.1 1.1-2.5 6.5.6 4.5.4 5.8-1.1 7.3-1.3 1.3-1.8 3.5-1.9 7.3-.1 6.1-1.8 11.5-3.4 10.5-.5-.3-1-2.1-1-4 0-2.6-.5-3.5-2.2-4.1-5.3-1.6-8.1-6.1-13.9-22.6l-3.7-10.7 3.6-.3c3.1-.3 3.8-.8 4.6-3.3.9-2.9 1.1-3 7-3.2l6.1-.1 5.7 5.8zM586 261.5c0 .8-.7 1.5-1.5 1.5s-1.5-.7-1.5-1.5.7-1.5 1.5-1.5 1.5.7 1.5 1.5zM856.1 192c-1.3 1.1-3.1 2-4.1 2-1 0-2.3.7-3.1 1.6-.7.9-3.2 2.9-5.6 4.5-3.9 2.7-4.3 3.4-4.3 7.1 0 3.7-.5 4.7-4.6 8.2-4.3 3.8-4.5 4.3-3.5 6.9.6 1.6 1.1 5.5 1.1 8.8 0 4.6.3 5.9 1.5 5.9 1.1 0 1.5 1.2 1.5 4.4v4.5l4.3.6c5.3.8 8 2.3 5.7 3.2-.8.4-2.6 1.8-4 3.3l-2.4 2.7-3.1-1.9-3.2-1.8-3.1 4.4c-3 4.1-3.2 5-3.2 12.4 0 5 .4 8.2 1.1 8.4.8.3.8 1.9-.1 6.1-.9 4.4-.9 7.9 0 15 .7 5.1 1.5 9.9 2 10.7.5 1.2 2.7 1.5 9.1 1.5h8.4l.9-4.3c1-4.7 1.4-4.9 4.7-2.4 1.3 1 4.6 2.9 7.2 4.2 4.2 2.1 5.3 2.3 9.8 1.3 3.9-.7 6-.7 8.8.3 5.3 1.9 23 1.8 23.7-.1.5-1.1 2.3-1.5 7.4-1.5h6.9l.8-4.2c.7-3.4 1.3-4.3 3.8-5 1.7-.5 4.6-1.6 6.7-2.5 3.4-1.4 3.7-1.9 4.1-6.7.2-2.8 1.3-7.3 2.3-9.9 2-4.9 1.8-5.6-2.1-7-.5-.2.1-1.9 1.4-3.7 2.1-2.9 2.2-3.7 1.2-6.9-.7-2.3-2.1-4.2-4.1-5.3-1.9-1.1-3.8-3.5-5-6.2-1.7-4-2.3-4.5-5.5-4.8-4.8-.4-4.5-2.2.5-2.6 2.8-.2 4.3-.9 4.7-2 .4-.9 1.5-3 2.6-4.5 1.8-2.7 1.8-3 .3-7.7-2.2-6.6-2.1-7 2-12.4 3.3-4.4 3.5-5.1 2.9-9.3-1-6.8-3.4-11.3-6.1-11.3-1.1 0-3.3-.9-4.7-2-2.5-2-2.8-2-5.6-.5-1.7.8-3.4 2.3-4 3.2-.8 1.5-1.4 1.5-4.7.5-2-.6-4.1-.9-4.6-.6-.5.3-3.4.9-6.4 1.3l-5.4.8v-4.4c0-4.2-.1-4.3-3.4-4.3-1.8 0-4.4.9-5.8 1.9-2.3 1.9-2.4 1.9-4.8 0-3.1-2.3-4.4-2.4-8.1-.2-2.6 1.6-2.9 1.6-4.7 0-2.4-2.2-5.1-2.1-8.1.3zm23.2 23.5c.9.8 1.7 1.9 1.9 2.4.2.6 2.1.5 4.9-.1 4.2-1 5.1-.8 9 1.3 3.8 2.1 4.4 3 5.4 7.4 1.4 6.4 1.9 7.1 5.2 8 1.5.3 3.4 1.1 4 1.7 1.5 1.2 1.8 8.8.4 8.8-2.8 0-4.1-1.4-4.1-4.6 0-4.2-1.1-4.3-4.4-.4l-2.5 3.1-4-2c-2.2-1.2-4.2-2.5-4.6-3.1-.8-1.2-7.9-1.3-12.1-.1-2.4.7-3.6.5-5.5-1-1.3-1-4.5-2.1-7-2.5l-4.6-.6-2.1-6.5-2.1-6.4 2.2-.8c1.2-.5 3.3-2.1 4.6-3.5 2.1-2.2 3.3-2.6 8.2-2.6 3.8 0 6.3.5 7.2 1.5zm-19.5 41.8c1.5.7 3.7 2 4.9 2.7 1.8 1.1 2.9 1.2 5.5.3 1.8-.7 6.5-1.1 10.3-1 6.8.3 7 .4 8.5 3.5.8 1.7 2.1 3 2.7 2.7 5-1.8 11.1-1.5 16 .7l5.1 2.3-2.7 6c-2.5 5.5-3.3 6.2-8.8 8.9-5.1 2.4-6.3 2.6-8.2 1.6-1.8-.9-2.9-.9-5.2 0-2.3 1-3.5 1-5.9 0-2.3-1-3.6-1-5.8-.1-2.3 1-3.6.8-7.5-.9-3.9-1.7-4.8-2.7-5.8-6.1-1.1-3.5-2-4.4-6.8-6.8l-5.6-2.7-.3-6.8-.3-6.9 3.6.6c2 .3 4.8 1.2 6.3 2z"/><path d="M883.5 263.7c-1.9.5-3.5 2-3.5 3.5 0 1.3 4.1-.5 5.1-2.3.5-1.1.8-1.8.7-1.8-.2.1-1.2.4-2.3.6zM287 322.9c-.5 1.1-1 2.6-1 3.4 0 .8-1.3 1.7-3 2.1-1.9.3-3.4 1.5-4.2 3-.6 1.5-2.5 3-4.4 3.6-3.9 1.3-4.5 3.9-1.5 6.7 1.1 1.1 2.1 4 2.5 7.3.4 3 1 6.5 1.2 7.7.7 2.6 5 4.3 11.2 4.3 2.7 0 4.9.6 5.6 1.4.6.8 3.8 1.7 7.2 2.1l6.1.7 2.1-3.6c1.2-2 3.7-4.6 5.7-5.7 4-2.4 4.3-3.1 1.5-5-2-1.4-2-1.4-.1-6.4 2.2-5.7 1.6-8-2.5-9.5-1.9-.8-2.4-1.7-2.4-4.4 0-3.9-.3-4.2-8-7.3-7-2.9-14.5-3.1-16-.4zM167.5 323.6c-1.3 1-3.1 1.3-5.1.9-4.7-.8-9.2 1.9-10.4 6.4-1.3 4.9-4.6 9.2-6.5 8.5-1.2-.5-.9-1.3 1.1-3.9 1.7-2.2 2.4-4.3 2.2-6.2-.3-2.5-.6-2.8-3.6-2.5-1.9.2-5.7-.6-8.7-1.8-4.6-1.9-5.9-2-8.9-1-2.6.8-4 .8-5.6 0-1.6-.9-3.4-.9-7.2 0-3.4.9-9 1-17.7.5-12.1-.6-12.7-.6-15.5 1.6-5.2 4.1-7 11.4-4.1 16.9 2.2 4.2 5 5.4 13.5 6l7.5.5 3.2 4.9c3 4.4 3.2 5.2 2.6 10.3-.4 3.5-.2 5.7.5 6.2.6.3 2 5.3 3.2 11 1.1 5.7 3 13 4.1 16.3 1.2 3.3 1.8 6.9 1.5 8.1-.3 1.1.3 4 1.4 6.4 1 2.4 2.4 7.7 2.9 11.7 1.4 9.7 2.7 15.6 4.7 20.6.9 2.3 1.3 5.1 1 6.6-.5 1.7 0 3.4 1.4 5.4 1.3 1.8 2 4.4 2 7.2 0 12.7 9.1 24.8 18.7 24.8 8.9 0 18.3-12.4 18.3-24 0-6.5 1.5-8.5 4.6-5.9 1.4 1.1 1.5.6.8-4.9-.7-6.6 1-11.2 4.1-11.2 2.2 0 1.8-2.6-.5-4.3-2-1.4-2-1.4 0-5.2 1.3-2.6 2-5.9 2-9.6 0-3.9.6-6.3 1.8-8 1.1-1.3 2.9-5.8 4.1-9.9 1.2-4.1 3.3-10.4 4.6-14 1.4-3.6 2.4-7.4 2.3-8.5-.1-1.1 1.6-8.4 3.8-16.3l3.9-14.3 3.2.5c1.8.3 4.8.9 6.7 1.2 3.2.6 4 .1 9.5-5.3 5.3-5.1 6.1-6.4 6.1-9.6 0-4.8-1.9-8.6-6.4-12.5-2.8-2.5-4.7-3.2-10.2-3.7-4.1-.5-8-.4-9.8.3-4 1.3-14.4 1-17.3-.6-3-1.6-7.4-1.5-9.8.4zm-6 8.4c.3.5-.1 1-.9 1-.9 0-1.6-.5-1.6-1 0-.6.4-1 .9-1 .6 0 1.3.4 1.6 1zm.9 20.1c3.1-2.6 6.3 1.8 3.4 4.7-.7.7-1.1 3.4-.9 6.3.2 4.8-.1 5.5-3.5 9-3.5 3.6-3.7 4-2.4 6.4.7 1.4 1 2.8.6 3.2-.4.5-4.9 1-9.9 1.3l-9.2.5-.3 3.3c-.3 2.5.4 4.1 2.6 6.6 1.5 1.8 3.4 5.3 4.1 7.9 1 3.4 1.9 4.7 3.7 5.1 3.1.8 3.1 3.9 0 9.1-1.6 2.6-2.1 4.5-1.6 5.5.5.9.5 2.2 0 3-.8 1.2-1.4 1.2-4.2-.2-3.2-1.5-3.4-2-5.1-10.8-.9-5.1-2.9-12.2-4.3-15.8-2.4-5.8-2.5-6.6-1-7.4 3.2-1.8.7-8.8-3.1-8.8-1.1 0-1.3-1.2-1.1-4.8.2-3.8.7-4.9 2.6-5.7 1.2-.5 2.2-1.6 2.2-2.3 0-.8-2.5-4.1-5.5-7.5-5.5-6.1-6.4-8.5-2.9-7.8 1 .2 5.4.5 9.6.7 4.3.1 8.6.8 9.7 1.3 1.6.9 2.5.6 4.7-1.2 2.4-2.1 3.2-2.3 6.6-1.4 2.7.7 4.2.6 5.2-.2zm-5.2 38.5c1.4.9.9 4.1-.8 5.5-3.2 2.6-10.6-3.6-7.7-6.5.7-.7 7 .1 8.5 1z"/><path d="M137.6 358.6c-.9.8-1.6 2.1-1.6 2.8 0 1.3 2 3.6 3.1 3.6.6 0 4.9-6.6 4.9-7.6 0-1.1-5-.2-6.4 1.2zM428.8 333.3c-4.4 3.9-4.8 4.8-5.9 11.3-1.2 6.8-1.2 7.2 1.1 10.4s2.1 4.1-1.4 5.3c-.5.2-.5 1.5.1 3.2.9 2.7.6 3.1-2.4 5.2-2.7 1.8-3.8 2.1-5.9 1.3-2-.8-3.2-.6-5.5 1-1.6 1.2-3.3 2.8-3.7 3.7-.7 1.2-1.3 1.3-3.1.4-1.2-.7-3.4-1.1-4.9-.9-2.2.2-2.9 1-3.6 4.3-.6 2.8-1.8 4.6-4 6-5.4 3.5-4.4 8.1 2.8 12.3 2.7 1.5 3.8 1.6 8.1.7 4.6-1.1 5.2-1 7.8 1.2 2.3 1.9 4 2.3 9.3 2.3h6.4v3.2c0 1.7-.5 6-1.1 9.4-.8 4.7-.8 7.2.1 9.8.8 2.5.8 4.1 0 5.5-.8 1.5-.7 2.6.2 4 .9 1.5.9 2.5 0 4.6-1.5 3.2-1.6 10.5-.2 10.5.6 0 1 2.8 1 6.5 0 3.6.4 6.5 1 6.5.5 0 1 2.5 1.2 5.7.3 5.3.5 5.7 3.5 6.7 1.8.6 4.5 2.9 6.2 5.3 2.1 2.9 3.9 4.3 5.4 4.3 1.3 0 3.8 1.5 5.7 3.5 3.2 3.3 3.7 3.5 10.2 3.5 3.9 0 6.8-.4 6.8-1s2.6-1 5.8-1h5.7l3.8-5.9c2.6-4.2 4.9-6.5 7.7-7.8 3.7-1.7 4-2.1 4-6.3.1-3.9.5-4.7 3.3-6.5 3.9-2.5 4.7-6.2 1.9-8.4-1.8-1.5-1.9-2.1-.9-6.8 1-5.1 1-5.4-1.6-8.1-1.5-1.5-2.7-3.8-2.7-5.1 0-4-1.7-5.9-4.7-5.3-1.5.2-3.7 1.2-4.8 2.2-1.1.9-3.4 2.2-5.2 2.9-1.8.7-3.9 2.4-4.8 3.7-1.3 2-2.4 2.4-6.5 2.4-4.3 0-5 .3-5 1.9 0 1.1.4 2.2.9 2.5 1.1.7 2.1 5.5 2.5 12.2l.4 5.1-4 1-4 1.1.7-3.7c.4-2 .7-4 .8-4.5.1-.5-1.7-1.8-4.1-3-3.4-1.7-4.2-2.5-3.7-4.1.3-1.1.9-5.5 1.2-9.8.5-7 .4-8.1-1.6-10.7-2.6-3.6-2.6-4.7 0-5.5 1.7-.6 2-1.2 1.5-3.3-.4-1.5-1-6.2-1.3-10.5-.5-7.1-.4-7.7 1.4-7.7 2.4 0 4.3-1.9 4.3-4.3 0-1.5.5-1.8 2.3-1.4 1.2.3 4.5 1.1 7.2 1.7 2.8.7 5.9 2 7 3 2.2 1.9 4 1.7 7-1 1.1-1 3.6-2.1 5.5-2.5 1.9-.4 4.9-1.4 6.6-2.3 3.7-1.7 3.6-3.7-.7-7.8-2.5-2.4-2.9-3.5-2.9-8.5 0-7.7-.8-8.2-12.2-7.7-7.6.2-9.9.7-12.2 2.4l-2.9 2.1-6.4-2c-6.7-2.2-7-2.8-5.4-8.7.4-1.5.2-3.6-.6-5.1-1.1-2.3-1-3.5 1.4-9.8l2.6-7.1-2.3-2.5c-1.3-1.4-3.3-2.5-4.4-2.5-1.3-.1-2.9-1.4-4.1-3.3-3-4.7-6-4.6-11.7.6zM865.3 363.1c-1.2.4-4.9 1.1-8.3 1.5-5.1.6-6.4 1.1-8.1 3.5-1.7 2.5-2.7 2.9-6.5 2.9-2.4 0-4.4.4-4.4.8 0 1.8-7.2 8.2-9 8.2-1.7 0-2 .7-2 4.5 0 3.6-.4 4.7-2.5 6.1-2.9 1.9-3.1 3.7-1 7.8.8 1.5 1.5 5.2 1.5 8.2 0 4.1.7 6.5 3 10.4 3.5 6 3.5 6 1.2 6-2.9 0-9.2 5.8-9.2 8.6 0 1.4-1.1 3.7-2.5 5.1-4.3 4.7-4.3 9.1-.1 10.6.6.2.4 1.7-.3 3.6-1.1 2.5-1.1 3.8-.2 5.7.6 1.4 1.1 3.4 1.1 4.5 0 3.3 6.6 15.3 9.6 17.5 4.6 3.3 12.4 4.7 17.2 3.1 1.8-.7 2.2-.5 2.2 1 0 1.1.6 2.7 1.3 3.7 1 1.4 1.7 1.5 4.1.6 2.3-.8 4-.7 7.8.6 7.9 2.6 16.3.4 18-4.7.4-1.1 1.3-1 4.7.5l4.2 1.9 3.2-3.1c3.8-3.7 6.3-4.1 7.2-1.2.8 2.5 2.6 2.5 5.8 0 2.5-2 2.6-2 3.1-.2 1.4 4.4 5 6.3 12.7 6.6 4.1.2 8.1 0 9-.5 1-.5 2.9-.3 4.8.4 2.5.9 3.4.9 4.6-.3 1.1-1.2 1.2-2.3.3-5.8-1-3.9-.9-4.5 1.1-5.8 1.8-1.3 2.1-2.5 2.1-7.9v-6.3l3.5-1.2 3.5-1.1-3.5-6.9c-5.3-10.5-12.8-14.1-14.5-6.9-.5 2.2-.9 2-4.9-3.1l-4.4-5.5 2.7-.3c3.7-.5 4.3-2.8 1.7-6.2-2.5-3.4-2.6-4.9-.6-7.6 1-1.3 1.4-4.4 1.5-9.7 0-7-.3-8-2.5-10.3-2.2-2.2-2.5-3.3-2.5-10.4 0-7.6-.1-7.9-3-10-1.6-1.1-4.2-2.5-5.7-3.1-1.5-.5-4.1-2.8-5.6-5-4.4-6.1-10.2-8.5-22.8-9.3-5.8-.3-11.9-1-13.5-1.5-1.6-.4-3.9-.5-5.1 0zm9.5 27.8c.7.4 3.2.4 5.5-.2 2.9-.6 6-.6 9.7.2 5.3 1.1 5.6 1.3 7.2 5.7 1.2 3.5 1.4 5.3.6 8.5-1.2 4.4-2.6 4.6-4.6.6l-1.3-2.6-4.2 1.9c-5.4 2.5-6.7 2.5-6.7 0 0-1.5-.7-2-2.5-2-1.4 0-2.5.5-2.5 1.2 0 2-3.2 4.8-5.5 4.8-1.2 0-3-.9-3.9-1.9-1.5-1.6-2.2-1.8-4.2-.9-1.3.6-2.7.9-3 .6-.3-.4-.2-3.8.2-7.8.6-6 1-7.3 2.8-8 2.7-1.1 10.7-1.2 12.4-.1zm22.8 44.3c.9.6.8 2.5-.1 7.3-.6 3.6-1.4 6.6-1.6 6.8-.2.1-4.2 1.2-8.8 2.4-8.4 2.1-8.5 2.1-11.2.2-1.5-1-3-1.9-3.2-1.9-.3 0-.7 1.9-.9 4.2l-.3 4.3-8.3.3c-5.2.2-8.9-.1-9.7-.8-.8-.7-1.5-3.2-1.7-5.6-.4-5.2-1.9-5.9-3.1-1.4-.7 2.6-1.2 3.1-3.4 2.8-1.9-.2-2.9-1.1-3.6-3.2-1.2-3.5.4-4.9 4.6-4.1 2.7.4 2.8.3 2.2-2.8-.5-3-.3-3.3 4.2-5.5 5.4-2.5 12.6-2.9 19.8-1 4.1 1.1 4.7 1 6.5-.7 1.6-1.6 3.4-2 9.7-2 4.3 0 8.3.3 8.9.7z"/><path d="M864.4 393.4c-.4 1.1 0 2.4 1 3.4 1.5 1.5 1.6 1.5 1.6-.3 0-1.1-.4-2.7-1-3.5-.8-1.2-1-1.2-1.6.4zM860.7 441c.5 2 4.3 4.9 4.3 3.3 0-1.3-3-5.3-4-5.3-.4 0-.6.9-.3 2zM727.5 363.9c-1.1.5-4.1 1-6.7 1-4.3.1-5.3.6-9.8 5-4.1 4-6.1 5.1-11.9 6.7-7 1.8-7.1 1.8-11.6 8.6-2.9 4.4-4.5 7.9-4.5 9.9 0 2.1-1 4.3-3.1 6.7-2.6 3-3 4.1-2.5 7.1.4 2.9.2 3.9-1.3 4.8-2.5 1.5-3.4 8.5-2.1 14.8 1.5 6.5 1.5 7.1.6 13-.7 4.9-.6 5.1 2.4 6.8 2.3 1.4 2.9 2.4 2.5 3.5-1.9 4.6-1.7 5 3.8 8.7 4.1 2.7 5.8 4.5 6.2 6.7.4 1.6 2 4.5 3.7 6.4 2.6 2.9 3.7 3.4 7.3 3.4 4.1 0 4.4.2 5.5 3.5 1 3.2 1.7 3.6 7.9 5.5 3.8 1.1 7.3 2 8 2 .6 0 1.1 1.1 1.1 2.4 0 1.3.7 2.9 1.5 3.6 1.2 1 2 .6 4.6-1.9 2.8-2.8 3.6-3.1 9.4-3.1 5.3 0 6.8-.4 9.3-2.5 1.9-1.5 3.3-2.1 3.7-1.5 1.3 2.1 5.4 1 7.8-2.1 2-2.6 2.7-3 4.4-2.1 1.7.9 2.5.6 5.1-2.1 1.7-1.8 3.2-4.5 3.4-6.2.2-1.9 1.1-3.4 2.7-4.2 1.4-.6 3.1-2.3 3.8-3.7.9-1.7 2.2-2.6 3.8-2.6 3 0 3.4-.7 4.5-7.6.8-5 .7-6.1-1.5-10.5-2.6-4.9-4.8-5.7-6-2-.5 1.6-1 1.6-7.2.4l-6.6-1.4-3.7 3.6c-2.6 2.5-4.5 3.5-6.8 3.5-1.8 0-5 .9-7.2 2s-4.6 2-5.4 2c-1 0-1.5.8-1.3 2.2.2 1.9-.5 2.4-4.8 3.5-5.9 1.5-7.5 1.1-7.5-1.7s-1.9-6.2-3-5.5c-.4.3-.4 2.1.2 4.1.5 2 .8 3.8.5 4-.2.2-2.7 0-5.4-.6-3.7-.8-5.3-1.7-6.1-3.5-.7-1.5-2.1-2.5-3.8-2.7-3.3-.4-6.4-5.1-5.7-8.9.3-1.4-.2-4.2-1.1-6.2-.8-2-1.3-3.7-1-3.7.3 0 2.2.9 4.4 2 3.3 1.7 4.6 1.8 9.1 1 2.9-.6 5.3-.9 5.4-.8.1.2.7 1.6 1.2 3.3.7 2.1 1.9 3.3 4.4 4.1 1.9.7 3.7 1 4.1.8.3-.2.9-2.3 1.3-4.5.7-3.8.9-4 3.4-3.4 3.3.9 6.9.9 10.1 0 2.4-.6 2.7-.3 3.5 3.7.8 3.6 1.4 4.3 3.6 4.6 2.4.3 2.8-.2 3.7-4.1l1.2-4.4 3.8.7c4.3.7 11.1-.7 18.1-3.8 3.7-1.7 4.6-2.8 6.7-7.8 2.7-6.3 2.6-8.1-.2-16.1-1.6-4.2-2.5-5.3-4.9-6-2.7-.7-3.3-1.7-5.6-8.8-2.3-7.2-2.8-8-5.7-8.9-2-.6-4.7-2.9-7.7-6.7-4.4-5.6-4.9-5.9-9-5.9-3.9 0-4.6-.4-6.4-3.4-1.6-2.6-3-3.5-5.9-4-8.1-1.3-12.8-1.5-14.7-.7zm12.1 30.6c1.3 2 1.9 2.2 3.5 1.2 1.6-1 2.4-.7 5.4 2.4 3.3 3.2 3.5 3.9 2.9 7.6-1 6.3-.9 6.2-10.7 5-6.8-.8-9-1.4-9.8-2.9-1.4-2.6-3.2-2.2-5.3 1.3-1.8 3.1-1.9 3.1-8 2.5-10.3-1.2-10.3-1.2-10-5.8.2-4.9 2.1-6.3 7.4-5.4 3.6.6 3.9.4 4.5-2.4.8-3.5 1-3.6 7.4-1l5 1.9 1.1-3.4c1.4-4.2 4.2-4.6 6.6-1z"/><path d="M738.5 404c-.4.6.9 1.7 2.7 2.4 2.9 1.3 3.3 1.3 3.6-.1.6-2.7-4.9-4.6-6.3-2.3zM559.4 366.1c-1.5 1.7-2.6 1.9-6 1.4-2.2-.3-5.2-.1-6.6.4-1.8.7-4 .6-7.2-.4-5.1-1.5-5.6-1.2-8.6 5.6-.7 1.5-2.3 3.2-3.6 3.7-2.5 1.2-4.8 4.3-5.9 7.9-.5 2-.3 2.3 1.9 2.3 1.4 0 2.8.4 3.1 1 .3.5 2.1 1 4 1 1.8 0 3.5.5 3.7 1 .6 1.8 12 3.2 17.5 2.2 5-.9 5.1-.8 5.8 1.7 1.3 5.5 2.7 13.7 2.7 16.1 0 4.7-1.5 12-2.3 12-.5 0-.9 1.5-.9 3.3 0 1.8-.5 5.9-1.1 9.1-1 5.4-.9 6 1.1 8.1 1.8 1.9 2 2.7 1 4.4-.8 1.5-.8 3.2 0 5.9 1.4 5.3 1.5 5.2-4.5 5.2-3 0-5.5-.5-5.5-1 0-1.9-8.6-1.1-11.3 1.1-2.1 1.6-3.1 1.8-4.6 1-3.2-1.7-4.1-1.3-4.1 2 0 2.2.5 3.2 2 3.6 2.3.6 2.3.6.9 5.5-.8 3-1.5 3.8-3.3 3.8-3.4 0-5.2 2.5-4 5.8.8 2.3 1.9 2.9 7.2 4 3.9.9 6.2 1.9 6.2 2.7 0 .8 1.5 1.7 3.6 2.1 2.8.5 4 .2 5.8-1.5 1.5-1.4 3.5-2.1 6.4-2.1 2.3 0 4.2-.5 4.2-1 0-1.6 3.8-1.2 9.1 1.1l4.9 2.2 5.9-2.2c7.2-2.6 8.6-2.6 11.8-.1 3.2 2.5 5.9 2.5 10.1 0 1.8-1.1 5-2 7.3-2s6.1-1.1 8.9-2.5c4.6-2.3 5-2.8 4.4-5.3-.7-3.1-3.1-7.2-4.2-7.2-.4 0-1.6-.7-2.6-1.5-2-1.5-4.9-13.6-3.9-16.2.6-1.6-2-1.7-4.8-.3-1.5.9-1.9 2.2-1.9 6.5 0 3-.3 5.5-.7 5.5-.5 0-2.1-.9-3.8-2-3-2-7.5-2.7-7.5-1.3-.1 2.5-1.7 3.3-4.8 2.2-1.8-.6-3.2-1.3-3.2-1.6 0-.3.9-1.8 2-3.4 1.8-2.5 2-3.4 1-6.8-.7-2.7-.7-4.8 0-6.6 1.7-4.6 1.3-9.3-1-10-1.7-.5-2-1.5-2-6.5 0-5.6.1-5.8 3-6.9 2.2-.7 3-1.6 3-3.5 0-1.8-.8-2.7-3-3.5-1.6-.5-3-1.2-3-1.5 0-.3.5-2.8 1.1-5.6 1.1-5.3 2.3-6.3 3.4-3 .3 1.1 1.5 2 2.6 2 1.4 0 2-.9 2.5-3.9.6-3.8.6-3.8 6.2-4.4 3.3-.4 6.7-1.4 8.3-2.6 3.6-2.6 6.5-2.7 7.9-.1.6 1.1 2 2 3 2 2.5 0 2.5.8.1 3.4-1.9 2.1-1.9 2.2 0 7.9 1.7 5.1 1.8 6.3.7 9.4-1.1 3.1-1.1 3.6.7 4.9 2.1 1.5 6.3 1.8 8.3.6.7-.5 3.9-.4 7.2.1 5.3.9 6.3.7 8-.8 1.1-1 2-3.1 2-4.6 0-2.2.9-3.4 3.9-5.3 5.2-3.3 5.3-3.6 4-9.4-.9-4.4-.8-5.4 1-8.3 2.9-4.7 2.6-6.5-.9-7.8-2.7-.9-3-1.4-3-5.3 0-3.7-.4-4.6-3.3-6.6-1.8-1.2-4.7-2.2-6.3-2.2-3.6 0-8.4-2.1-8.4-3.6 0-1.3-4.3-3.4-6.8-3.4-1 0-2.3.5-2.8 1-.8.8-2.6.7-5.9-.2-3.9-1-4.9-1-5.2-.1-.3.9-2.6 1.3-6.6 1.3-5.6 0-6.4.3-9.7 3.5-3.3 3.2-3.8 3.4-7 2.5-1.9-.6-6.4-1-10-1-6.5 0-6.6 0-8.4-3.5-2.3-4.1-6.2-4.7-9.2-1.4zM242.1 367.4c-1.2 1.2-2.1 2.8-2.1 3.4 0 .7-.7 1.2-1.5 1.2s-1.5.5-1.5 1.1c0 .6-.9 2.2-2 3.6-3.1 3.9-2.6 6.8 1.2 7.9 2.6.8 3.4 1.6 3.8 3.9.4 2.6 1.1 3.1 4.5 3.8 2.2.4 5.7 1.2 7.8 1.6 3.8.9 10.2-.6 11.6-2.6.3-.5 2.8-1.5 5.4-2.2 4.4-1 5.1-1 7.4.9 1.4 1.1 3.2 2 3.9 2 .8 0 1.4 1 1.4 2.3 0 1.3.3 2.7.8 3.1.4.4.7 4.5.7 8.9 0 6.6-.3 8.4-1.7 9.5-2 1.4-2.5 7.2-.7 7.2.7 0 .9 1 .4 2.7-.4 1.6-.8 6.8-1 11.8-.2 7.2.1 9.7 1.6 12.7 1.1 2.1 1.9 3.9 1.9 4.1 0 .3-1.4 1-3 1.7-1.7.7-3.5 2.1-4.1 3.1-1.3 2.6-7.7 2.5-14-.2-4.2-1.8-5.3-2-7.8-.9-2.1.8-3.9.9-6.7.1-3.3-.9-4.1-.8-5.1.6-.7.9-1.3 2.7-1.3 4 0 2.1-2.6 5.1-7.5 8.7-1.8 1.3-1.7 1.6 1.5 7 2.4 3.9 4 5.6 5.5 5.6 1.2 0 2.5.4 3.1.9.5.5 2.9 1.2 5.4 1.5 2.5.3 6.1.8 8.2 1.2 3 .5 3.8.3 4.7-1.5 1.6-3 10.9-3 13.6-.1 1.9 2.1 7.9 2.8 9 1 .3-.6 2.1-1 3.8-1 1.8 0 4.7-.4 6.6-1 3-.8 3.6-.7 4.9 1.1 1.4 2 2.1 2.1 11.6 1.5 5.5-.3 10.9-.6 11.9-.6.9.1 3.6.1 6 .1 2.3 0 5.6 0 7.2.1 4.7.1 8.6-.1 13.7-.8 4.1-.5 4.8-1 5.7-3.6.6-1.7 1.1-5.7 1.1-8.8 0-4.6-.4-6-2.3-7.8-1.3-1.2-2.9-2.2-3.5-2.2-.7 0-1.2-.4-1.2-.9 0-1.4-4.5-6.1-5.8-6.1-.6 0-1.4.9-1.7 2-.3 1.1-1 2-1.5 2s-2.9-.9-5.5-2c-4.9-2.1-12.5-2.7-12.5-1 0 .5-1.5 1-3.4 1s-3.8.4-4.1 1c-1.5 2.5-5.2.9-8.4-3.7l-3.3-4.7 2-7c1.1-3.9 2.6-8.6 3.3-10.4 1.3-3.1 1.2-3.4-.9-5.1-2.1-1.5-2.2-2.1-1.4-5.8.6-2.6.6-4.7-.1-5.8-.7-1.2-.6-2.4.1-3.5.7-1.2.7-3 0-5.8-.9-3.5-.7-4.6 1.1-7.5 1.4-2.3 2.1-5.1 2.1-8.6 0-5.3-1.9-13.1-3.2-13.1-.5 0-.8-1.5-.8-3.4 0-2.9-.7-3.9-4.9-7-5.4-4-11.4-4.9-13.5-2-1.1 1.4-1.6 1.4-5.6 0-5.6-2-7.4-2-9-.1-1.8 2.2-12 2.1-12-.1 0-1.2-.7-1.4-3.2-.9-1.8.4-3.9 1.1-4.7 1.5-.7.4-3.3.1-5.6-.6-4-1.2-4.4-1.1-6.4 1zM489 374.8c0 1.2 2.3 3.2 3.7 3.2.7 0 1.3-.9 1.3-2 0-1.5-.7-2-2.5-2-1.4 0-2.5.4-2.5.8z"/><path d="M600 403.9c0 1.7.5 3.1 1 3.1.6 0 1-1.1 1-2.4 0-1.4-.4-2.8-1-3.1-.6-.4-1 .7-1 2.4zM694.5 540.6c-33 6.1-62.5 24.6-82.3 51.2-6.7 9.2-14.4 23.5-17.8 33.4-5.2 15.1-6.5 23.2-7.1 44l-.6 19.7-7.1 3c-3.9 1.6-37.5 15.4-74.6 30.6-180.4 74-265.4 109.3-269.8 112.1-1.2.8-2 1.9-1.7 2.5 1.2 1.9-3.7 17.6-8.4 26.9-5.9 11.5-8.4 16.3-9.1 17-.3.3-3.1 4-6.3 8.2-3.1 4.3-9.1 10.6-13.2 14-4.1 3.4-7.5 6.7-7.5 7.3 0 1.1 15.5 38.9 20.3 49.7 4.4 9.9 8 14.3 13.9 16.8 10.1 4.4 21.6 2.7 34.7-5.2 6.3-3.8 8.5-8.3 7.8-15.8-.2-2.6-4.9-15.9-11.1-31.4-5.9-14.8-10.5-27.4-10.3-28.1.7-1.5 18.9-8.8 21.2-8.4 1.3.3 3.7 5 8.6 16.7 3.8 8.9 8.2 18.2 9.8 20.6 9.2 13.4 30.1 10.7 36.5-4.6 2.9-6.9 2.1-11.5-5.4-30.3-3.9-9.6-7-18.1-7-18.9 0-1.3 10.1-6.3 17.4-8.6 3.4-1.1 4.1-1 5.1.4.7.9 4.5 9.6 8.5 19.4 13.1 31.8 16.2 38.6 18.7 42.1 2.4 3.1 2.9 3.3 7 2.7 5.2-.7 22.4-7.3 30.8-11.9 10.9-5.9 12.2-12.5 5.7-29.8-2.2-5.7-7.4-18.5-11.5-28.4-4.2-9.8-7.5-18-7.4-18.1.2-.2 42.9-17.8 134.2-55.1 68.6-28.1 91.7-37.3 93.6-37.3 1.2 0 6.5 4.5 13.2 11.3 6.2 6.3 14.6 13.8 18.7 16.6 27.3 19.2 62 27.5 93 22.6 31.8-5.1 54.4-16.8 75.8-39 18.7-19.3 27.1-35.5 34.3-66 2.9-12.4 2.9-32.8 0-47.2-10.6-51.7-46.6-89.6-97.6-102.9-8.5-2.3-12.6-2.7-27.5-3-12.6-.2-19.7.1-25.5 1.2zm36.2 54c16.6 3.4 27.7 9 38.4 19.4 10.3 10.1 18 23.2 22 37.5.9 3.1 1.4 9.7 1.3 17.5 0 10.9-.4 13.6-2.8 21-7.2 21.9-20 37.2-38.8 46.4-11.5 5.7-18.4 7.1-33.3 7.1-15-.1-21.7-1.6-34-7.5-9.8-4.8-18-11.2-24-18.8-6.2-7.8-14.2-24.2-16-32.7-2.1-10-1.9-23.3.5-33.4 5.6-23.3 23.3-43.6 46.1-52.8 12.7-5.1 27.3-6.5 40.6-3.7zM88.5 595c-20.4 3.2-39.4 13.5-50.8 27.7-10.8 13.4-16.5 27.6-18.6 46.6-.7 6.4-1.1 60.8-1.1 163.2V986h38v-48.1c0-26.4.3-47.9.7-47.7 11.8 6 21.6 10.2 28.5 12.2 25.9 7.5 56 4.3 79.5-8.4 21.3-11.5 34.9-27.8 41.5-49.9 2.9-9.7 3.6-30.1 1.4-41.2-3.5-17.1-10.7-31-22.1-42.5-7.8-7.9-14-11.9-23.3-15l-6.2-2.1 5.6-4.4c24.9-19.2 33.9-69.2 18.1-100.5-7.8-15.5-18-25.4-34.2-33.5-17.2-8.5-40.1-12.5-57-9.9zm27.5 2c10.4 1.6 25.2 6.8 33.6 11.7 9.3 5.4 21.3 17.1 26.2 25.5 13.9 23.6 13.4 58.9-1 86-4 7.5-12.5 17-18.5 20.4-2.3 1.4-4.1 2.9-3.8 3.4.2.4 2.2 1 4.2 1.3 5.6 1 17.1 6.8 23 11.8 11.5 9.7 21.1 25.3 25.4 41.5 2.9 10.6 3.1 31.8.5 41.4-4.2 15.4-11 27.1-21.8 37.7-15 14.9-32.1 23-55.3 26.3-22.1 3.1-41.5-.5-64.7-12.1L54 887v97H20l.2-160.3.3-160.2 2.2-8c10.2-36.3 39.9-59.1 77.3-59.4 5.2-.1 12.4.4 16 .9z"/><path d="M93 632.5c-18.5 4.2-31.4 16.2-36.7 34.1-1.6 5.4-1.8 13.3-2.1 87.2l-.3 81.4 2.8 3.6c15.2 20.3 49.6 32.9 75.3 27.8 26.1-5.3 39.9-22.5 40-49.8 0-16.2-3.8-26.7-13-35.9-12.6-12.7-33.9-18.9-64.7-18.9H82V731.3l9.8-.7c20.5-1.4 33.8-6.3 44.2-16.2 11.8-11.3 16.2-21.5 16.2-37.9 0-14.1-2.4-21.5-9.8-29.4-3-3.3-7.4-7.1-9.7-8.4-10.5-6.2-27.9-8.9-39.7-6.2zm25.4 2.5c10.2 2.6 16.7 6.2 22.6 12.7 6.1 6.7 9 14.2 9.7 24.9 1.1 16.2-4.1 29.7-15.6 40.5-10.8 10.1-23.2 14.5-43.3 15.6l-11.8.6V764h15.8c50.2 0 74.6 17 74.6 52 0 16.5-4.3 27.8-14 37-9.1 8.6-21.4 13-36.4 13-21.3 0-42.6-8.4-56.8-22.6l-7.2-7.2v-79.8c0-64.8.3-81.2 1.4-86.5 5.8-27.2 32.2-42.3 61-34.9z"/></svg>