<svg version="1" xmlns="http://www.w3.org/2000/svg" width="1365.333" height="1365.333" viewBox="0 0 1024.000000 1024.000000"><path d="M488 .6c-17.3 1.1-34.2 2.7-46.5 4.5C365.4 15.8 293.6 42.9 231 84.6c-8.5 5.7-16.5 11.1-17.8 12.1l-2.3 1.9 2.9 2.7 2.8 2.7 14.3-9.6C333.8 25.7 460.5-3.3 582.5 14.1c74 10.5 146.4 38 207.6 78.9 11.2 7.5 35.1 25 47 34.4l4.7 3.7 3.7-1.6c3.8-1.5 3.8-1.5 1.9-3.6-5.7-6.4-35.7-29.4-53.8-41.3C723.3 38.5 645.8 11.1 561 2.5 546.4 1 500-.2 488 .6z"/><path d="M721 88.9c-.5 1.1-1 2.6-1 3.4 0 .8-1.3 1.7-3 2-1.9.4-3.4 1.7-4.4 3.6-1 1.9-2.6 3.2-4.6 3.6-3.6.8-4 3.5-1 6.5 1.1 1.1 2 3.1 2 4.5 0 1.3.5 4.6 1.1 7.3.9 4.5 1.3 5 4.8 6.1 2.1.6 5.5 1.1 7.5 1.1s3.6.4 3.6.9 3 1.4 6.8 2.1c6.1 1 6.8 1 7.7-.7 1.3-2.2 6.5-7.4 9-9 2-1.2 2-1.2-.2-3l-2.3-1.8 1.9-5c2.1-5.5 1.6-7.1-2.6-9.3-1.5-.8-2.3-2.3-2.5-4.9-.2-2-1-3.9-1.8-4.3-11.6-5.6-19-6.7-21-3.1zM261 95c-1.4.4-6.3.8-10.9.9l-8.4.1.8 4.7c.8 4.4.9 9.1.2 15.3l-.2 2.5h12.2c11 0 12.4-.2 15.2-2.3 3.7-2.7 6.5-2.8 9.1-.2 1.1 1.1 2.6 2 3.4 2 2.3 0 3.6 13.5 2.1 21.8-.6 3.6-.4 4.6 1.2 6.5 3.8 4.1 4.4 6.3 2.4 8.1-1.1 1-2.3 4.5-3.1 8.8-1.2 7-1.2 7.1 1.1 8.8 2 1.6 2.1 2 1 4.8-1 2.4-1 3.9-.1 6.6.9 2.9.8 4.3-.6 8.3-.9 2.6-1.9 8.7-2.2 13.5-.4 7.5-.2 9.2 1.6 12.2l2 3.4-2.9 1.3c-1.6.6-3.6 2.1-4.4 3.1-1 1.6-2 1.9-4.5 1.3-2.5-.6-3.7-.2-5.7 1.7l-2.5 2.3-2.4-3-2.4-3-1.9 2.4c-1.7 2.3-2.1 2.4-7 1.4-5-1-5.1-1-4.5 1.1.4 1.2 1.3 3.4 2.2 5.1.8 1.6 1.1 3.1.6 3.2-3.6 1.3-5.9 3.2-6.2 5-.2 1.6 1 2.8 6.3 5.7 7 3.9 13.1 4.8 14.1 2.1.4-1 2-1.5 4.5-1.5 2.1 0 3.9-.5 3.9-1 0-.6 2.8-1 6.5-1s6.5.4 6.5 1c0 .5 2 1 4.5 1s4.5-.5 4.5-1c0-1.3 6.8-1.3 14.5.1 4.2.7 7.4.7 9.8.1 2.6-.7 4.6-.6 7.4.4 2.1.7 8 1.3 13.4 1.4 8.7 0 9.7-.2 11.7-2.3 3.2-3.4 2.9-8.5-.8-13.2l-3-3.7 3-2.8c3.8-3.6 3.9-5.5.3-4.5-5.8 1.4-9.3 1.7-9.3.7 0-.5-2.4-1.3-5.2-1.6-2.9-.4-6.3-1-7.5-1.2-1.4-.4-2.8.1-4 1.5-.9 1.2-3.3 2.4-5.3 2.7-1.9.4-4.8 1.3-6.3 2.1-1.6.8-3 1.3-3.2 1.1-.1-.2-.7-2.8-1.2-5.9-.7-4.1-.6-5.8.3-6.7.7-.6 1.5-3.3 1.9-6.1.6-4.3.3-5.7-2.1-10.1-2.3-4.3-2.6-5.3-1.4-6 2.1-1.3 2.3-38 .3-46.5-.8-3.3-1.7-7-2-8.2-.3-1.3.3-4 1.3-6 .9-2.1 1.9-5.9 2.2-8.5.4-3.9.1-4.8-1.7-5.7-1.8-1-2.1-2.1-2.1-7.6 0-4.6-.6-7.7-2.2-11-2.2-4.5-2.2-4.5-7.5-4.5-2.9 0-5.3-.5-5.3-1 0-1.4-11-1.3-16.5.2-3.6 1-5 1-6.5 0-2.2-1.3-5.2-1.4-9-.2zM157 96c0 .6-3.8 1-9.4 1-10.4 0-10.9.3-13.1 6.7-1 3.1-2.4 4.4-7.6 7.3-4.2 2.3-6.9 4.6-7.9 6.6-.9 1.7-3.1 4.4-4.9 6-3 2.7-3.2 3.1-2 5.7 1.1 2.5 1 3-2.1 6.2-2.8 2.9-3.1 3.6-2 5s.8 2-2.1 4.4c-3.2 2.7-3.3 2.9-2.1 6.7 1 3.3.9 4.1-.7 5.9-1 1.1-2.6 5.5-3.6 9.8-1.7 7.2-1.7 7.8-.2 9.5 1.2 1.3 1.7 3.7 1.7 8.6 0 6.1.3 7 2.9 9.6 2.6 2.6 2.8 3.6 3.4 12.7.7 12.3 1.7 15.1 5.7 15.9 2.4.5 3 1.2 3 3.3 0 3.5 2.3 6.6 7.1 9.7 2.6 1.6 3.9 3.1 3.9 4.7 0 3.3 7.8 6.7 15.5 6.7 4.9 0 6.2.4 7.3 2 1.3 2.1 7.5 2.9 8.6 1.1.3-.4 5.8-1.1 12.3-1.3 6.5-.3 12.5-.9 13.4-1.3 1-.3 2.2-2.6 2.8-5.1 1.1-4.1 1.3-4.4 4.6-4.4 2.8 0 3.5-.4 3.5-1.9 0-1.2 1.4-2.6 3.8-3.8 3.3-1.8 3.7-2.4 4-6.3.2-2.4 1.2-5.5 2.3-6.8 1-1.4 1.9-3.2 1.9-4.2 0-.9 1.6-3.3 3.5-5.3 4-4.1 4.4-6.6 1.6-9.1-1.6-1.5-1.8-2.2-.9-4.1.7-1.6.7-2.9-.1-4.4-1.1-2.1-1.8-2.1-12.9-1.9l-11.7.3-.3 5.1c-.2 3.6-.9 5.7-2.2 6.9-1.1 1-2 2.7-2 3.7 0 1.1-1.6 3.4-3.5 5.1-1.9 1.7-3.5 3.9-3.5 4.8 0 2.2-4.5 6.9-6.6 6.9-.8 0-2.4.5-3.5 1.1-1.4.7-3 .6-5.5-.3-3.2-1.1-3.9-1-7.2.9l-3.7 2.1-2.8-2.4c-1.5-1.3-4-2.7-5.5-3-1.5-.3-3.2-.7-3.8-.9-.7-.2-1.5-2.7-1.9-5.5-.6-4.1-1.2-5.4-3.1-6.2-1.5-.7-2.4-2-2.4-3.4 0-1.3-1.2-3.2-3-4.6-2.8-2.2-3-2.7-2-5.3.6-1.6.8-3.5.5-4.4-.3-.8-1-5.8-1.5-11.2-.5-5.3-1.4-10.8-2.1-12.1-.9-2-.8-3.2.5-5.6.9-1.7 1.6-4.3 1.6-5.7 0-1.5.9-3.8 2-5.2 1.5-1.9 1.7-3 1-4.3-1.7-3.2-1.1-4.9 2.6-6.6 4.2-2 4.8-3.1 3.6-6.5-.8-2.1-.6-2.5 2.2-3.4 2.6-.8 3.2-1.6 3.4-4.5.5-4.9 1.8-6 6.8-6 4.3 0 4.4-.1 5.5-4.3l1.2-4.2 8.8.3c7 .3 8.9.7 8.9 1.8 0 .8.9 3.3 2 5.4 1.9 3.7 2.4 4 6 4 4 0 4 0 4 4 0 2.2.5 4 1 4 1.6 0 1.2 4.9-1 12.4-1.1 3.8-1.7 7.3-1.4 7.7.2.5 2.1 1.1 4 1.5 2 .4 4.6 1.7 5.9 3 2.8 2.7 4 2.9 7.5.9 1.4-.8 4.9-1.4 7.8-1.5h5.2v-4.5c0-4-.4-4.7-3.5-6.7-3.2-2.1-3.5-2.7-3.5-7 0-2.9.5-5 1.4-5.5 2.3-1.4 3.5-12.3 2.1-19-.6-2.6-.4-3.2 1.4-3.8 3.1-.9 2.9-7.4-.2-10.3-3.4-3.2-11.9-3.1-16.9.3-4.3 2.9-11.8 3.5-11.8 1 0-1.1-1.1-1.5-4.3-1.5-3.1 0-4.5-.5-5.5-2-1-1.6-2.3-2-6.7-2-3 0-5.5.4-5.5 1zM426 129c-1.4.4-4.6.8-7.2.9-4.3.1-5 .4-7 3.6-2 3-2.8 3.5-6.4 3.5-3.6 0-4.5.5-8 4.5-2.6 3-4.5 4.4-5.6 4.1-1.5-.3-1.8.3-1.8 4 0 3.3-.5 4.7-2 5.6-2.2 1.4-2.9 8.1-1 9.3.6.3 1 3.1 1 6.2 0 4.4.7 6.7 3.1 10.9 2.4 4.3 2.7 5.4 1.5 5.4-2.5 0-9.6 7-9.6 9.5 0 1.2-.9 3-1.9 3.9-1.1 1-2.5 3.1-3.2 4.8-1.1 2.8-1 3.2 1.1 4.8 2.1 1.6 2.2 2.1 1.2 5-.8 2.1-.8 3.8-.2 5 .6 1 1 2.8 1 4 0 4 6.7 15.7 10.2 17.7 5.8 3.4 11.5 4.8 14.3 3.5 3.7-1.7 4.3-1.5 4.7 1.5.3 2.6.6 2.8 5.3 2.8 2.8 0 5.5.4 6.2.8.7.4 3.7.8 6.8.8 6 .1 10.4-1.9 11.2-5.1.5-1.8.7-1.8 5 .3l4.4 2.1 2.5-3.2c3-3.8 5.6-4.1 7.7-1l1.5 2.3 3-2.2c2.9-2.1 3.1-2.2 3.7-.4 1.3 4.3 5 6.3 12.1 6.5 3.8.1 7.7-.2 8.7-.7 1.1-.5 3.1-.4 5 .2 4.5 1.6 6.3-.4 5-5.7-.9-3.5-.8-4.1 1.3-6 2-1.7 2.4-3 2.4-8 0-5.8.1-6 3-7.1l3.1-1-3.5-6.8c-4.8-9.6-11.1-13.1-13.9-7.7l-1.4 2.7-3.7-4.9-3.7-4.9 3-.8c3.7-.9 3.9-2.4.9-6.2-1.8-2.3-2-3.2-1-5.9.6-1.7 1.2-6.6 1.4-11 .2-7.1 0-8-2-9.6-1.9-1.6-2.2-2.8-2.2-9.2 0-6.8-.2-7.6-2.8-10.1-1.5-1.5-4.1-3.1-5.7-3.7-1.7-.6-4.2-2.8-5.7-4.9-4.4-6.2-11.2-8.9-23.8-9.5-5.8-.3-11.6-.7-13-1-1.4-.3-3.6-.1-5 .4zm14 26.8c5.6-.3 10.7-.2 14.1.5 2.9.6 3.8 1.3 4.2 3.5.3 1.5.9 3.9 1.2 5.3.4 1.4 0 4-.8 6l-1.4 3.4-1.9-3.3c-1.3-2.1-2.4-3-3.4-2.6-7.2 3.1-8.5 3.3-8.8 1.3-.2-1.3-1.2-1.9-2.8-1.9-1.3 0-2.4.4-2.4 1 0 1.5-3.8 5-5.5 5-.8 0-2.4-.9-3.5-2-1.6-1.6-2.5-1.8-4.5-1-1.5.6-2.9 1-3.1 1-.3 0-.3-2.6.1-5.8 1.2-11.3 1.2-11.3 10.5-10.7 3 .3 6.6.4 8 .3zm18.9 43.7c.8.8.7 3 0 7.3-1 5.5-1.4 6.3-3.8 6.8-1.4.3-5.3 1.3-8.7 2.3-5.9 1.7-6.2 1.7-8.4-.1-3.3-2.6-4-2.3-4 2.2v4h-8.8c-5.5 0-9.2-.4-10-1.2-.7-.7-1.2-3.1-1.2-5.5s-.4-4.3-.9-4.3c-.9 0-3.7-5.9-3-6.3 8.7-4.9 16-6 24.1-3.5 3.4 1 4.1.9 5.8-.8 1.6-1.6 3.4-1.9 9.9-1.9 4.4 0 8.5.5 9 1zm-48.5 11.1c3.1 1.2.7 7.4-2.8 7.4-1.8 0-4-4.6-3.2-6.7.6-1.4 3.4-1.7 6-.7z"/><path d="M426.6 158.5c-.3.8.2 2.1 1 3 2.1 2 2.2 1.9 1.6-1-.5-3.1-1.8-4-2.6-2zM423 204.8c0 1.2.9 2.6 2 3.2 1.6.8 2 .8 2-.3 0-.8-.9-2.2-2-3.2-1.9-1.8-2-1.7-2 .3zM675.2 134.5c-1.8 1.9-3.2 3.7-3.2 4.1 0 .3-.9 1.7-2 3.1-3 3.8-2.6 6.9 1 8.2 2.3.7 3 1.6 3 3.6 0 3.4 3.3 4.6 13.8 4.8 6.6.2 8.6-.1 9.5-1.4.7-.8 3.4-2.1 6-2.8 4.4-1 5.1-1 7.4.9 1.4 1.1 3.1 2 3.8 2 1.7 0 2.6 5 2.5 13.9-.1 5.7-.6 8-2.1 9.9-2.3 3-2.4 4-.3 6.3 1.3 1.5 1.4 2.1.3 4.1-1.7 3-1.2 18.3.7 22 1.8 3.4 1.8 5.8.1 5.8-.7 0-2.6 1.4-4.2 3-2.7 2.8-3.4 3-7 2.4-2.2-.3-5.6-1.5-7.6-2.5-3-1.5-4.2-1.6-7.2-.7-2.5.8-4.7.8-7.6 0l-4.2-1-1.2 4.6c-.8 3.2-2.3 5.4-4.9 7.5-2.1 1.7-3.8 3.5-3.8 4.1 0 .6 1.3 3.2 2.9 5.7 3 4.8 3.5 5 13.6 7 11.3 2.3 12.3 2.3 13 0 .5-1.8 1.4-2.1 5.9-2.1 4 0 5.7.5 7.1 2 1.9 2.1 6.9 2.7 8 1 .3-.6 2.1-1 3.8-1 1.8 0 4.8-.5 6.7-1 3-.9 3.7-.7 5.1 1.1 1.5 2 2.2 2.1 11 1.5 5.2-.3 10.4-.6 11.7-.6h6c2 0 5.3.1 7.2.1 5.1.2 7.9 0 13.2-.7 4.1-.5 4.8-1 5.7-3.6.6-1.7 1.1-5.7 1.1-8.8 0-4.6-.4-6-2.3-7.8-1.3-1.2-2.8-2.2-3.3-2.2s-1.6-.9-2.4-2.1c-4.1-5.7-3.8-5.6-5.9-3l-1.9 2.5-5.7-2.2c-6.7-2.6-11.5-2.9-11.5-.7 0 1.1-1.1 1.5-3.9 1.5-2.2 0-4.3.4-4.6 1-1.3 2.1-4.1.7-7.3-3.6l-3.2-4.5 1.9-7.2c1.1-4 2.5-8.7 3.3-10.5 1.2-3.1 1.1-3.5-.9-5s-2.1-2.2-1.3-5.6c.5-2.5.5-4.7-.1-5.8-.6-1.2-.6-2.4 0-3.6.6-1.2.6-3.3-.1-6-.9-3.6-.8-4.4 1.1-6.8 1.5-2 2.1-4.1 2.1-8.1 0-5.5-1.9-13.3-3.2-13.3-.5 0-.8-1.5-.8-3.3 0-4.8-6.8-9.7-13.3-9.7-2.7 0-4.7.5-4.9 1.2-.4 1-1.3 1-4.5 0-4.9-1.5-9.3-1.6-9.3-.2 0 1.5-11.7 1.3-12.3-.3-.3-.9-1.3-1-4.9 0-3.2.9-5.6.9-7.9.3-4.5-1.3-4.2-1.5-7.7 2.5zM532 134c-.9 1.7-1.7 2-4.4 1.5-4.9-1-5.8.8-5.8 11.7-.1 14.3-.5 13.9 10.8 13.5 11.2-.3 11.4-.2 15.1 10 6.9 19.2 8.3 23.5 8.3 25.5.1 3.3 3.4 10.3 5.8 11.9 1 .8 2.3 3 2.7 4.9.8 3.7 3.7 9.6 7.2 14.9 1.3 1.9 2.3 4.7 2.3 6.3 0 3.4 3.8 11.2 7.3 15 3.9 4.2 6.6 3.6 13.8-2.7 7.2-6.2 8.5-8.3 9.5-14.5.4-2.5 2.1-8.1 3.9-12.5 1.8-4.4 6.3-17.9 10.1-30 5.7-18.4 7.4-22.6 10.2-25.7 3.9-4.3 8.9-6.3 13.6-5.4 5.9 1.1 6.4.5 6.4-9.7 0-12-.5-12.9-6.8-12.1-4.1.5-5.2.3-7.1-1.5-3.1-2.9-3.9-2.7-4 1.1-.1 1.8-.4 4.4-.8 5.7-.6 2.4-.8 2.3-4.5-2.2-3.6-4.4-4.1-4.7-7.5-4.1-2.3.4-5.1 2.1-7.8 4.7l-4.3 4.1-8.2-3.9c-4.6-2.2-9.1-4.6-10-5.4-1.4-1.1-2.1-1.1-3.3-.1-.9.8-2.9 1-5.7.6-2.4-.4-6.1-.6-8.4-.6-2.5 0-4.6-.5-5.4-1.5-.7-.8-1.6-1.5-2.1-1.5-1.2 0-9.2 5.5-11.3 7.9l-1.9 2.1-4.1-3.5c-2.3-1.9-4.9-4.2-5.8-5-2.6-2.2-6.5-1.9-7.8.5zm44.8 11.2c1.9 1.9 1.4 3-1 2.6-1.3-.2-2.4-1.1-2.6-2.1-.4-2 1.8-2.3 3.6-.5zm-35 1.6c.2.7-.6 1.2-1.7 1.2-2.1 0-2.7-1.1-1.4-2.4.9-.9 2.6-.2 3.1 1.2zm47 2.9c.4 2.5-2 3.6-4.4 1.9-1.2-1-1.5-2-1-4 .6-2.6.8-2.7 2.9-1.3 1.2.8 2.3 2.3 2.5 3.4zm2.2 8.3c0 .4 2.2 2.9 5 5.6 6 5.9 6.6 9.1 1.9 10.1l-3.1.6.6 5.7c.5 4.5.3 6-.9 7-1 .8-1.5 2.9-1.5 6 0 5.3-2.5 12.4-4 11.5-.6-.3-1-2.1-1-3.8 0-2.7-.5-3.5-2.9-4.4-4.1-1.5-7.5-7.3-12.1-20.4-2.2-6.2-4-11.5-4-11.6 0-.2 1.3-.3 2.8-.3 3.3 0 5.2-1.6 5.2-4.5 0-1.8.6-2 7-2.1 3.9-.1 7 .2 7 .6zm-6.2 46.8c.2.7-.3 1.2-1.2 1.2-.9 0-1.6-.7-1.6-1.6 0-1.7 2.2-1.4 2.8.4zM849.5 136c-1 1.1-2.8 2-4.1 2-1.3 0-2.6.5-2.9 1-.4.6-3.1 2.8-6.1 5.1-5 3.7-5.4 4.2-5.4 8.2 0 3.7-.5 4.5-4.1 7.2-3.4 2.5-3.9 3.4-3.4 5.5.3 1.4.9 5.3 1.2 8.7.3 3.5.9 6.3 1.4 6.3.5 0 .9 2 .9 4.4 0 4.8.1 4.9 7.3 6.2 4.3.7 4.7 2 1.2 3.6-1.3.6-2.7 1.9-3 3-.8 2.2-1.8 2.3-3.5.3-2.1-2.6-4.5-1.7-7.8 3-2.9 4.1-3.2 5.3-3.2 11.5 0 5.2.4 7.1 1.5 7.8 1.4.7 1.4 1.5.4 5.3-.6 2.4-1.1 5.3-1.1 6.4 0 4.7 2.6 19.1 3.6 20.4.8 1 2.8 1.2 8.5.7 7.9-.6 9.1-1.4 9.1-5.9 0-3.2.6-3.3 4.5-.7 7.7 5.1 11.4 6.3 16.6 5.3 3.7-.8 5.9-.7 8.7.3 5.4 1.9 22.1 1.9 22.8-.1.5-1.1 2.2-1.5 6.9-1.5 6.8 0 7.4-.4 8.4-5.3.5-2.5 1.4-3.1 6.9-4.9l6.2-2.1v-4.1c0-2.4 1.1-6.2 2.5-9 3-6 3.1-7.6.5-8.3-2.5-.7-2.5-1.8-.1-5.1 1.5-2.3 1.6-3.2.7-6-.6-1.8-2.5-4.1-4.1-5.2-1.6-1.1-3.9-3.9-5-6.2-1.8-3.8-2.4-4.3-5.8-4.6-5.1-.4-4.7-2.2.6-2.2 4.1-.1 4.3-.2 6.6-5.2 2.2-4.6 2.3-5.6 1.3-9.5-1.7-6.2-1.5-7.3 1.8-11.7 3.4-4.5 3.8-8 1.4-14.9-1.4-4-2-4.7-4.9-5.3-1.9-.3-3.9-1.2-4.6-2-1.7-2.1-3.5-1.7-7.2 1.6-3.1 2.7-3.7 2.9-6.6 1.9-2.2-.8-4-.8-6.2 0-1.8.6-4.7 1.1-6.5 1.1-3.3 0-3.4-.1-3.4-4s-.1-4-3.3-4c-1.8 0-4.3.7-5.5 1.6-2 1.4-2.4 1.4-4.4 0-2.9-2-5.8-2-8.6 0-2.1 1.4-2.5 1.4-3.5.1-2.1-2.6-5.2-2.9-7.2-.7zm21.9 24.4c2 2.2 2.6 2.4 6.2 1.5 3.2-.8 4.7-.7 8.5 1 4.4 2 4.7 2.4 5.4 6.8.9 6 2.1 8.3 4.3 8.3 3.5 0 6.2 2.9 6.2 6.6 0 3.1-.3 3.5-2.2 3.2-1.8-.2-2.4-1.1-2.6-3.6-.4-3.9-1.5-4-4.4-.7-2.7 3.2-3.4 3.1-9.1-.5-4.4-2.8-4.9-2.9-10.7-1.9-5.1.8-6.4.7-8.6-.8-1.5-.9-4.5-1.9-6.7-2.3-3.9-.5-4.1-.7-6.3-6.8l-2.4-6.3 2.3-.8c1.2-.5 3.3-2.1 4.6-3.5 2.1-2.2 3.3-2.6 7.8-2.6 4.4 0 5.8.4 7.7 2.4zm-17.1 41.4c4.2 2.2 5.2 2.4 8 1.5 3.4-1.2 14.6-1.1 16.6.1.7.5 1.6 1.8 2.1 3 .8 2.2 1.1 2.2 6.4 1.3 4.5-.8 6.3-.7 9.3.6 2.1.8 4.6 1.8 5.5 2.1 1.6.5 1.6.9-.4 5.3-2.7 6.2-3.1 6.8-8.5 9.8-4.9 2.7-8.2 3.2-10.1 1.3-.8-.8-1.5-.8-2.4-.1-1.7 1.4-17.4 1-21.1-.5-1.8-.8-3.5-2.7-4.7-5.4-1.4-3.3-3-4.9-6.7-6.8l-4.8-2.5-.3-6.8-.3-6.9 3.3.7c1.8.4 5.5 1.9 8.1 3.3z"/><path d="M872.3 208.5c-.9 2.5.2 2.7 2.8.6l2.4-2-2.3-.1c-1.2 0-2.5.7-2.9 1.5zM148.3 152.2c-8.3 8.5-9 9.7-9.8 16.9l-.7 5.4 7.3-7.5c19.5-20 19.5-20 17.9-21-.8-.5-2.9-1-4.5-1-2.5 0-4.4 1.4-10.2 7.2zM89.7 223.2C47 284.8 17.9 358.4 6 435 1.8 462.3.7 478.3.7 512c0 47.7 4 81.6 15 124.5 1.9 7.7 3.8 15 4 16.2.3 1.3.9 2.3 1.3 2.3.5 0 0 2.3-1.1 5-1.8 4.9-1.9 10.2-1.9 166.5V988h46v-46c0-45.3 0-46.1 1.9-45 4.5 2.3 25.5 6.9 37.1 8 22.5 2.2 48-.6 63.1-6.9l6.5-2.7 9.5 7.9c80.4 67.4 176.9 107.8 283.3 118.4 20.8 2 68.7 2.3 88.6.4 108.8-10.1 205.4-50 288.5-119.2 14.4-12 42.8-40.2 56.4-55.9 125.5-145.2 159.3-347 88.2-525.2-8.9-22.4-22.3-49.8-33.9-69.3-5.8-9.8-19.5-30.5-20.2-30.5-.3 0-1.1 1.9-1.7 4.2-1.2 4.3-1.1 4.3 6.1 16.8 13.8 23.6 15.5 26.6 23.9 43.5 66.8 133.6 71.3 288.9 12.5 424.5-71.4 164.4-221.5 277.5-398.3 300-137.7 17.5-277.7-23-383.3-110.7l-11.3-9.4 5.8-4.3c10.1-7.4 17.5-17 23-29.6l3.3-7.5v-28.7c0-26.7-.1-29.1-2.1-34.3-3.2-8.6-11.3-19.9-18.2-25.5-6.7-5.5-18.7-12.1-25.4-14.1l-4.3-1.2 7.2-3.5c14.9-7.2 26.9-22.7 31.2-40.4 2.4-9.8 2.2-29-.4-39.2-6.2-24.4-23.6-41.7-50.9-50.5-6-2-8.7-2.1-39.3-2.1-32.8 0-33 0-40.6 2.6-16.1 5.4-29.8 14.7-38.4 26.3l-4.7 6.1-1.5-5.2C18.5 615.2 12 574.5 10 542 3.3 433.3 32.3 326.2 94.4 230.7c5.5-8.5 5.6-8.9 4.6-12.7-.6-2.2-1.5-4-2-4s-3.8 4.2-7.3 9.2zm43.4 395.3c18.8 3.3 32 9.6 43 20.5 8.7 8.6 12.9 16.2 15.5 27.7 2.3 10.4 1.5 29.2-1.6 38-6.8 19.4-21.6 30.8-45.7 35.4l-6.3 1.2v10.4l6.4.7c25.3 2.6 45.8 14.9 54.6 32.9 5.7 11.7 7.4 21.5 6.7 39.1-.5 15-2.2 22.8-7.4 33.1-13.8 27.4-47.9 41.3-92.1 37.6-18.4-1.6-29.6-4.6-50.9-13.8-1-.4-1.3 10.2-1.5 49.8l-.3 50.4h-29v-149c0-140.3.1-149.5 1.8-157.4 3.5-16.2 9.5-27 20.9-37.6 10-9.4 23.9-15.9 40.5-18.9 10.5-1.9 34.9-2 45.4-.1z"/><path d="M91.2 641c-4 1.1-9.6 3.2-12.3 4.7-6.7 3.6-15.1 12.8-18.8 20.6C54 679.1 54 679.4 54 772.4v84.5l4.3 2.5c7 4.3 23.7 10.3 33.2 12.1 11.6 2.2 33.3 2.3 43.2.2 26.1-5.6 41.2-25.3 41.3-53.7 0-11.9-1.6-19.7-6-28.7-4.9-10-11-15.8-22.5-21.4-10.6-5.1-18.8-6.8-35.7-7.6l-13.8-.6v-21.4l11.3-.6c13.9-.7 20.4-2 28.7-6 8.1-3.8 14.8-10.6 19.4-19.7 4.6-9.3 5.9-16.1 5.4-28.9-.9-21.2-9.8-33.5-29.4-40.8-5.9-2.2-8.9-2.6-20.9-2.9-11.6-.3-15.2-.1-21.3 1.6zm33.6 9.5c18.1 4.3 27.1 14.8 28 32.6.7 14.7-3.2 26.3-11.8 34.3-7.9 7.4-20.8 10.5-43.7 10.6H88v41.7l17.8.6c25.7.9 39.3 5 49.2 14.9 14.8 14.9 14.4 49.9-.8 65.5-7 7.1-7.2 7.1-13.8 0-25.6-27.6-53.3-66.6-71.1-100.4L63.8 740l.4-28.3c.4-23.4.8-29.1 2.2-33.7 5.1-15.6 12.9-23.4 27.6-27.2 8.1-2.1 22.5-2.3 30.8-.3zm-53.3 122c14.4 24.6 35.3 53.6 54.8 76 9.7 11.1 10.3 12.1 8.3 12.9-1.1.5-9.1 1.1-17.6 1.3-18.6.6-29.3-1.3-43.5-7.3l-9-3.9-.3-45.5c-.1-25 .2-45 .6-44.5.5.6 3.5 5.5 6.7 11zM292.6 264.2c-.9 1.2-1.6 2.8-1.6 3.4 0 .7-1.2 1.5-2.6 1.8-1.4.4-3.3 2-4.2 3.6-1 1.7-2.9 3.2-4.4 3.6-3.9.8-4.4 2.2-2 5.4 1.7 2.2 4.2 11.9 4.2 16.3 0 1.5 6.9 3.7 11.4 3.7 2.4 0 4.6.5 4.8 1 .2.6 3.2 1.5 6.8 2.1 5.1 1 6.5.9 6.8-.1.8-2.2 7.4-9 8.8-9 2.1 0 1.7-2.8-.5-4-1.9-1-1.9-1.1.2-6 2.3-5.5 1.9-7.7-2.1-9.5-1.5-.6-2.2-2-2.4-4.5-.3-3.2-.8-3.7-6.8-6.7-8.1-3.9-14.2-4.3-16.4-1.1zM176.2 264.6c-1.5 1-3.7 1.5-6.2 1.2-2.6-.2-4.1.1-4.4.9-.3.7-1.4 1.3-2.4 1.3-1.4 0-2.2 1.2-3.1 4.2-1.6 5.5-3.7 8.8-5.6 8.8-2.3 0-1.8-2.1 1.1-5.1 2.1-2.2 2.5-3.4 2-5.4-.6-2.5-1-2.6-4.1-2.1-2.5.5-4.6.1-7.6-1.5-3.2-1.6-5.1-1.9-7.8-1.4-2 .3-4.3.6-5.1.5-8.7-.5-39.6.2-41.1 1.1-3.2 1.7-5.9 7-5.9 11.6 0 3.3.7 5 2.9 7.5 2.8 3.1 3.3 3.3 11 3.6l8.1.4 3 5c2.8 4.5 3 5.6 2.5 10.2-.5 4.1-.3 5.5.9 6.5.9.8 1.6 2.2 1.6 3.3 0 3.3 3.1 17 5.2 23.1 1.1 3.2 1.8 6.8 1.4 7.9-.3 1.2.3 4.2 1.4 6.7 1 2.5 2.6 9.2 3.4 14.8.9 5.6 2.4 12.4 3.5 15.2 1 2.7 1.6 6.1 1.4 7.5-.3 1.4.1 3.6.9 4.8.8 1.3 1.8 4.6 2.1 7.5 1.3 11.1 5.8 19.3 12.8 22.8 7.1 3.7 15.4-.2 20.9-9.7 2.4-4.4 3-6.4 3-11.6 0-5 .4-6.4 1.7-6.9.9-.4 1.9-.1 2.1.5.2.7.8 1.2 1.3 1.2.6 0 .7-2.3.3-6-.7-6.4 1-11 4.1-11 2.2 0 1.8-2.7-.6-4.4l-2.2-1.5 2.2-3.6c1.5-2.7 2.1-5.3 2.1-9.9 0-5 .4-6.7 2-8.1 1.1-1 2-2.5 2-3.4 0-.9 1.8-6.8 4.1-13.1 2.2-6.3 4-12.6 4-14 0-1.4 1.7-8.6 3.7-16 4.2-14.9 3.3-14 12.4-12.6 4.7.7 4.8.7 10.2-4.6 8.3-8.1 8.6-12.7 1.2-20.6-4.2-4.4-4.6-4.6-11.7-5.3-4.8-.4-8.1-.3-9.4.4-2.7 1.5-14.3.9-17.7-.9-3.5-1.8-4.8-1.8-7.6.2zM169 274c0 .5-.4 1-1 1-.5 0-1-.5-1-1 0-.6.5-1 1-1 .6 0 1 .4 1 1zm1.6 19c1.2-1.1 1.8-1 3.1.3 1.4 1.4 1.4 1.8.1 3.9-.9 1.5-1.3 3.8-1 6.6.4 3.7 0 4.7-3.2 8.2-3.8 4.2-4.3 5.5-2.6 6.5.6.3 1 1.5 1 2.6 0 1.7-.7 1.9-7.7 1.9-4.3 0-8.8.3-10 .6-3.4.9-3.1 5.8.7 10 1.6 1.9 3.5 5.2 4.1 7.5.9 2.7 2.1 4.4 3.6 5 2.8 1.1 2.9 3.3.3 8.4-1.2 2.3-1.8 5-1.5 6.2.3 1.2 0 2.5-.6 2.8-1.7 1.1-6.9-1.6-7.3-3.9-1.7-8.6-4.6-19.9-6.2-23.8-1.8-4.7-1.8-4.8.1-6.2 1.6-1.2 1.7-1.7.6-4.4-.7-1.7-2.2-3.4-3.2-3.7-1.5-.5-1.9-1.6-1.9-5.1 0-3.8.3-4.6 2.5-5.4 1.4-.5 2.5-1.5 2.5-2.1 0-.6-2.5-3.8-5.5-7.1-5.6-6-6.5-8.6-2.9-7.9 1 .2 5.1.5 8.9.7 3.9.2 8.4.6 10 .9 2.3.5 3.5.2 4.8-1.3 1.6-1.7 2.3-1.8 5.7-1 3 .8 4.4.7 5.6-.2zm-5.3 37.7c1.2.7.8 4-.7 5.2-2.3 1.9-7.6-1.2-7.6-4.5 0-2.3.2-2.4 3.8-1.8 2 .4 4 .9 4.5 1.1z"/><path d="M149.5 297.8c-2.5.5-5.5 3.1-5.5 4.8 0 1.1 2.9 3.4 4.3 3.4.6 0 4.1-8 3.6-8.3-.2-.2-1.3-.1-2.4.1zM430.2 275.3c-3.7 3.8-4.4 5.2-5.4 10.9-1 6.1-.9 6.8 1.1 9.7l2.2 3-2.1 1.1c-2 1.1-2.1 1.9-.3 6.7.3.7-.2 1.3-1.1 1.3-.8 0-2.3.9-3.3 1.9-1.3 1.4-2.3 1.7-3.3 1.1-2.7-1.7-5.3-1.1-8.5 2-2.9 2.8-3.3 2.9-7 1.9-3.3-1-4.1-.9-5.2.7-.7 1-1.3 2.8-1.3 4 0 1.3-1.4 3.2-3.5 4.8-5.4 4.1-4.6 8.3 2.2 12.2 2.8 1.5 4 1.7 8.4.8 4.8-1 5.3-.9 7.5 1.3 1.9 1.9 3.3 2.3 8.9 2.3h6.5v3.5c0 1.8-.5 5.7-1.1 8.5-.8 3.8-.8 6.3 0 9.7.9 3.4.9 4.8 0 5.9-.9 1.1-.8 1.8.1 2.9 1 1.2 1 2.4.1 5.4-1.4 4.7-1.4 10.1-.1 10.1.6 0 1 2.8 1 6.5 0 3.6.4 6.5.9 6.5.6 0 1.1 2.4 1.3 5.2.3 4.9.5 5.4 3.3 6.2 1.7.5 4.3 2.7 6 5 1.8 2.4 4.1 4.2 5.4 4.4 1.3.2 3.9 1.9 5.6 3.8 3.1 3.2 3.6 3.4 9.9 3.4 3.7 0 6.6-.4 6.6-1s2.6-1 5.8-1l5.7-.1 3.7-5.9c2.5-4.1 4.9-6.5 7.7-8 3.8-1.9 4.1-2.3 4.1-6.3 0-3.6.4-4.4 3-5.9 3.7-2.1 4.3-7.3 1-8.3-1.6-.5-1.8-1-1-3.1 1.6-4.2 1.2-8.9-1-10.9-1.1-1-2-2.6-2-3.6 0-6.2-4.5-8.7-9.1-5-1.4 1-4.1 2.6-6.1 3.4-2 .8-3.9 2.5-4.3 3.6-.5 1.8-1.4 2.1-6.1 2.1-3 0-5.4.3-5.4.7 0 .5.8 2.8 1.6 5.3.9 2.5 1.8 7 2 10.1l.4 5.7-3.8.5c-2 .2-3.9.3-4.1.1-.2-.2.2-1.7.8-3.5 1.3-3.8 1-4.4-3.9-6.9-3.6-1.8-3.9-2.2-3-4.6.6-1.4 1-5.9 1-10.1 0-6-.4-8-2-10.1l-2.1-2.6 2.6-1.4c1.9-.9 2.5-1.8 2-3-1.2-3.1-2.6-12.3-2.3-15 .2-1.8 1-2.8 2.8-3.2 1.5-.4 2.7-1.5 3-3 .7-2.8 1.5-2.8 9.5-1 2.8.7 5.9 2 7 3 2.2 2 6.1 1.2 7.1-1.5.4-.8 1.4-1.5 2.3-1.5 2.4 0 11-3 11.6-4.1.8-1.2-2.1-6.5-4-7.2-1.1-.5-1.5-2.2-1.5-6.5 0-3.9-.5-6.4-1.4-7.1-.8-.7-5.1-1.3-9.8-1.4-7.1-.1-8.9.2-12.2 2.1l-3.8 2.3-6.5-2.2c-5.3-1.7-6.3-2.4-5.8-4 .3-1 .8-2.9 1.1-4 .3-1.2 0-3.2-.7-4.5-1.1-2.1-.9-3.5 1.1-9.9l2.4-7.5-2.4-2.5c-1.3-1.4-3.1-2.5-4-2.5-.9 0-2.6-1.4-3.8-3-3.3-4.4-6.8-4-12 1.3zM856.5 304c-1.1.5-4.4.9-7.2.9-4.9.1-5.4.4-7.5 3.6-2 3-2.9 3.5-6.2 3.5-3.3 0-4.5.7-8.2 4.5-2.3 2.5-4.9 4.5-5.8 4.5-1.2 0-1.6 1-1.6 4 0 3.1-.5 4.3-2.5 5.6-2.9 1.9-3.1 3.7-1 7.8.8 1.5 1.5 5.3 1.5 8.2 0 4.2.6 6.4 3 10.1l2.9 4.8-2.2.8c-3.3 1.2-8.7 6.8-8.7 9 0 1.1-1.1 3.2-2.5 4.9-2.7 3.2-4.4 8-2.9 8.5 3.1 1.1 3.7 2.1 2.6 5-1.3 3.8.4 10.6 4.7 19 3.3 6.6 6.2 9.2 12.8 11.2 3.9 1.3 5.6 1.2 9.5-.4 1.2-.5 1.8 0 2.3 1.7 1.3 4 2.3 4.8 5.5 3.7 2.1-.8 4-.6 7.7.6 6.6 2.3 12.4 1.3 15.7-2.6l2.5-3 4 2 3.9 2 2.7-3.4c2.9-3.9 6.4-4.6 7.2-1.5.7 2.5 2.4 2.5 5.6 0 2.5-2 2.6-2 3.1-.2 1.4 4.3 5.1 6.3 12.2 6.6 3.8.2 7.7-.1 8.7-.6 1.3-.6 2.9-.5 4.9.3 2.5 1 3.2.9 4.5-.4 1.4-1.4 1.5-2.2.5-5.3-1-3.4-.9-3.9 1.3-6 2.1-2 2.5-3.2 2.5-8.3 0-5.8.1-6 3-6.6 1.7-.4 3-.8 3-1 0-.2-1.6-3.4-3.5-7.1-2.4-4.8-4.4-7.3-6.7-8.6-4.5-2.3-5.5-2.2-7.1.8l-1.4 2.6-3.6-4.3c-4.1-4.8-4.5-5.9-1.9-5.9 4-.1 4.6-1.5 2.2-5.9-2-3.4-2.2-4.4-1.2-6.6.7-1.4 1.2-6.2 1.2-10.6 0-6.7-.3-8.2-2-9.6-1.7-1.5-2-3-2-9.3 0-8.5-1.2-10.5-8-13.4-1.9-.8-4.8-3.2-6.5-5.4-4.7-6.3-11.6-9-24.5-9.6-5.8-.2-11.4-.7-12.5-1-1.1-.3-2.9-.1-4 .4zm10 26.9c1.1.4 3.5.4 5.4-.1 2.2-.7 5.4-.6 9.5.3l6.2 1.2 1.1 4.8c.8 3.3.9 5.9.2 8.4-1 3.6-1.1 3.6-3 1.9-1-.9-1.9-2.3-1.9-3.1 0-1.6-.4-1.6-3.8.1-5.5 2.8-7.2 2.9-7.2.7 0-1.6-.6-2.1-2.5-2.1-1.4 0-2.5.4-2.5 1 0 1.5-3.8 5-5.5 5-.8 0-2.4-.9-3.5-2-1.7-1.7-2.4-1.8-4.5-.8-1.4.6-2.8.9-3.1.6-.3-.3-.1-3.9.3-7.9.7-6.6 1-7.4 3.3-8 3.4-.9 9.1-.9 11.5 0zm22.3 43.3c.7.9.7 3.3-.1 7.7l-1.2 6.3-8.7 2.2c-8.4 2.1-8.8 2.1-11 .4-3.3-2.5-3.8-2.3-3.8 2.2v4h-9.4c-10.4 0-10.6-.1-10.6-6.7 0-2-.6-4.1-1.4-4.7-.8-.6-1.7-2.1-2-3.2-.6-1.8.1-2.6 4-4.8 5.2-2.9 12.8-3.5 19.5-1.4 3.3.9 4.2.9 5.7-.5 1-1 4.1-1.7 7.7-2 3.3-.2 7-.4 8.1-.5 1.2-.1 2.6.4 3.2 1zm-48.4 11.4c3.3 1.2.7 7.4-3.1 7.4-2.3 0-4.9-6.6-2.9-7.4 1.7-.7 4.2-.7 6 0z"/><path d="M856.6 333.6c-.4 1 0 2.4.9 3.3 1.3 1.4 1.5 1.3 1.5-.4 0-1.1-.4-2.6-.9-3.3-.6-1.1-1-1-1.5.4zM853 379.7c0 1.2.9 2.7 2 3.3 2.6 1.4 2.6-.1 0-3.1l-1.9-2.4-.1 2.2zM721.5 305c-1.1.5-3.9.9-6.3.9-3.7.1-4.9.7-8.7 4.6-3.6 3.6-5.9 4.9-11.8 6.6-7 2-7.3 2.2-11.4 8.5-2.8 4.1-4.3 7.5-4.3 9.5 0 2.1-1 4.3-3.1 6.7-2.5 2.8-3 4-2.5 6.6.5 2.4.1 3.6-1.4 4.9-1.6 1.4-2 2.9-2 8.6 0 3.8.5 8.2 1 9.7.8 1.9.8 4.3 0 7.8-1.1 5-1 5.1 2 7.6 2.7 2.2 3 2.9 2.1 5.2-.8 2.1-.6 2.9 1.2 4.6 1.2 1.1 3.6 2.7 5.4 3.6 2.4 1.2 3.4 2.5 3.9 5.2.3 1.9 1.8 4.9 3.1 6.5 2.1 2.4 3.2 2.9 6.9 2.9 4.1 0 4.5.3 6.1 3.7 1.6 3.4 2.4 3.9 9.1 5.6 5.2 1.5 7.2 2.4 7.2 3.7 0 .9.6 2.5 1.4 3.5 1.4 1.9 1.6 1.8 4.9-1.8 3.4-3.5 3.8-3.7 10.1-3.7 5.1 0 7-.4 8.5-1.9 1.2-1.2 2.3-1.6 3.2-1 1.7 1.1 5.9 1.2 5.9.1.1-.4.9-1.7 2-3 1.5-1.8 2.3-2.1 3.8-1.3s2.5.4 5-2.2c1.8-1.8 3.2-4.1 3.2-5.1 0-2.5 9.3-11.6 11.8-11.6 3.6 0 4.4-11.7 1.2-18-2-4-4.2-4.5-5.4-1.4-.5 1.2-1.6 1.4-5.3.9-2.7-.4-5.6-.9-6.5-1.1-1-.3-3.3.9-5.6 3.1-2.6 2.3-4.9 3.5-6.9 3.5-1.6 0-4.6.9-6.8 2s-4.5 2-5.3 2c-.8 0-1.2.9-1 2.2.3 1.9-.4 2.3-5.4 3.4-6.3 1.2-5.8 1.5-7.2-4.9-1.1-4.6-2.9-3.2-2.2 1.7l.7 4.3-5-1c-3.5-.6-5.5-1.7-6.6-3.3-.9-1.5-2.5-2.4-4.1-2.4-1.5 0-2.7-.7-3-1.8-.3-.9-1-2.6-1.4-3.7-.5-1.1-.9-3.4-.9-5.2 0-1.7-.5-4.1-1.1-5.3-1.7-3.2-.6-3.5 3.6-1.1 3.5 2.1 6.3 2.2 12.5.5 1.2-.3 2 .5 2.7 2.6 1.1 2.9 6.6 6.5 8.4 5.4.3-.2.9-2.2 1.3-4.5.7-3.8.9-4 3.4-3.3 3.2.9 6.9.9 9.8-.1 1.9-.6 2.3-.3 2.8 2.1 1.5 6.3 1.6 6.5 4.3 6.2 2.1-.2 2.8-1.1 3.7-4.4 1-3.9 1.1-4 4.5-3.3 4.2.9 9.6-.2 16.8-3.3 4.9-2.2 5.5-2.9 7.8-8.3 1.3-3.3 2.4-6.5 2.4-7 0-.6-1.1-3.7-2.5-7-1.8-4.6-3.1-6.3-5.4-7.2-2.6-1.1-3.3-2.3-5.3-8.9-2.1-6.9-2.6-7.8-5.5-8.8-1.8-.6-5-3.4-7.4-6.4-3.9-4.8-4.6-5.2-8.5-5.2-3.6 0-4.5-.4-6.2-3.2-1.5-2.4-3.3-3.5-6.9-4.4-5.5-1.5-11.9-1.7-14.8-.4zm12.5 29.1c.9 1.6 1.8 1.9 3.9 1.4 2.1-.4 3.3.1 5.5 2.4 2.7 2.8 2.8 3.4 2.3 8.2-.4 2.8-.8 5.3-.9 5.4-.2.2-2.3-.1-4.8-.5-2.5-.5-6.3-.9-8.5-1-3 0-4.4-.6-6-2.6l-2.1-2.6-2.4 3.6c-2.7 4-1.7 3.8-14 2-4-.6-4-.6-4-5 0-3.8.3-4.4 2.5-5 1.4-.3 3.9-.4 5.5-.1 2.5.5 3 .2 3.9-2.3.5-1.7 1.2-3 1.5-3 .3 0 2.8.9 5.5 2l5 1.9 1.1-3.4c1.3-4 4.3-4.7 6-1.4z"/><path d="M733.2 344.1c.2.7 1.9 1.9 3.7 2.6 3.1 1.3 3.2 1.3 2.9-.9-.2-1.8-1-2.4-3.7-2.6-2.3-.2-3.2 0-2.9.9zM558.7 306.8c-1.4 1.6-3 1.8-10.9 1.5-5.1-.1-10.4-.4-11.8-.5-2.1-.2-2.8.4-4.5 3.9-1.1 2.3-3 4.6-4.3 5.2-2.3 1.1-6.2 6.6-6.2 8.8 0 .7.9 1.3 1.9 1.3 1.1 0 2.3.4 2.6 1 .3.5 2.3 1 4.5 1 2.3 0 4 .5 4.3 1.4.7 1.8 12 3 17.4 1.8 4.6-1.1 4.2-1.6 6.4 9.3 1.5 7.1.9 19.1-1 20.5-.4.3-1.2 4.3-1.9 8.9-1.1 8.1-1.1 8.6.9 10.7 1.7 1.8 1.9 2.6.9 4.3-.8 1.5-.8 3.2 0 5.9 1.4 5.3 1.5 5.2-4 5.2-3.4 0-5.2-.5-5.6-1.4-.7-1.7-7.8-1.1-11 1-1.4.8-3.6 1.1-5.8.7-2.9-.5-3.6-.3-3.6 1.1 0 2.9 2 5.8 3.6 5.2 1.1-.4 1.4-.1 1 1.2-.3.9-.8 2.9-1.1 4.3-.4 1.7-1.6 2.8-3.8 3.5-2.4.7-3.3 1.6-3.5 3.5-.4 3.3 1.4 4.7 7.3 5.8 2.6.5 5.2 1.6 5.7 2.4.4.9 2.2 1.8 3.9 2.2 2.4.5 3.6.2 5.3-1.4 1.5-1.4 3.5-2.1 6.4-2.1 2.3 0 4.2-.5 4.2-1 0-1.6 3.8-1.1 9.1 1.2l5 2.1 5.2-2.1c6.4-2.7 8.5-2.7 11.7-.2 3.2 2.5 5.7 2.5 9.8 0 1.8-1.1 5-2 7.2-2 4.9 0 13-3.8 13-6.1 0-3.5-2.2-7.5-5.3-9.4-2.8-1.8-3.4-2.8-4.6-9.5-.8-4.1-1.5-7.7-1.7-7.9-.2-.2-1.5.1-2.9.7-2.2 1-2.5 1.8-2.5 6.2 0 5.4-1 6.2-4.6 3.5-2.8-2.1-7.1-1.9-7.9.3-.5 1.7-1 1.8-3.9.8l-3.4-1 1.6-3.1c1.1-2.1 1.7-6.2 1.8-13.2.2-9.3.1-10.3-1.7-10.8-1.6-.5-1.9-1.6-1.9-6.1 0-5.2.1-5.4 3.5-6.8 4.8-2 4.7-5-.1-6.6-2.5-.8-3.4-1.6-3-2.7.3-.8.9-3.2 1.2-5.4.7-4.3 1.8-4.9 3.4-1.9 1.5 2.9 3.9 2.5 4.6-.8.3-1.5.7-3.2.9-3.8.2-.6 2.7-1.4 5.6-1.7 3-.4 6.6-1.6 8.1-2.7 3.5-2.5 6-2.5 7.6 0 .7 1.1 1.9 2 2.7 2 2 0 1.9.9-.2 3.2-1.6 1.8-1.6 2.2.1 6.6 1.9 5 2.1 6.8 1.1 11.8-.6 2.8-.4 3.2 2.4 4.2 2.2.8 4 .8 6.1.1 2-.7 4.4-.8 7.7-.1 4.3 1 5 .9 7.1-1 1.2-1.2 2.2-3.2 2.2-4.4 0-1.3 1.1-3.1 2.5-4.1 7-4.9 6.7-4.3 5.4-9.9-1.1-4.7-1-5.5 1-8.7 2.9-4.7 2.7-6.4-.9-7.2-2.8-.6-3-1-3-5s-.4-4.7-3.7-7c-2.1-1.4-5-2.5-6.5-2.5-3.1 0-6-1.4-9.1-4.3-1.4-1.4-2.7-1.7-5-1.3-3.9.8-5.2.8-9.9 0-2.5-.4-3.8-.2-3.8.5s-2.3 1.1-6.2 1.1c-5.6 0-6.5.3-9.4 3.1l-3.2 3.1-6.5-1.1c-3.5-.6-8-1.1-10-1.1-2.9 0-3.9-.5-5.4-3-2-3.5-6-4.1-8.6-1.2zM246.9 309.5c-1.2 1.9-2.5 3.5-3 3.5s-.9.7-.9 1.5-.4 1.5-.9 1.5c-.8 0-3.1 5.2-3.1 7.1 0 .4 1.6 1.3 3.5 1.9 2.6.9 3.5 1.7 3.5 3.4 0 3.2 1.9 4.6 6 4.6 1.9 0 4.9.4 6.7.9 3.3 1 9.9-.6 11.2-2.6.3-.6 2.8-1.5 5.4-2.1 4.3-.9 5.1-.8 6.8.9 1 1 2.5 1.9 3.2 1.9 3.5 0 4.6 20.2 1.3 23.9-1.9 2-2.1 5.2-.5 6.8.7.7.9 2.2.3 4-1.3 4.5-1.2 18.6.2 20.8 2.3 3.9 2.7 6.5.9 6.5-.9 0-3 1.4-4.6 3.1-2.7 2.8-3.3 3.1-7 2.5-2.3-.4-5.5-1.4-7.1-2.2-1.9-1-4.2-1.4-6.2-1-4.4.9-4.7.9-9.3.1l-4.2-.7-.7 3.8c-.5 2.8-1.9 5-5.1 7.9l-4.4 4 3.3 5.2c2.2 3.6 3.9 5.3 5.3 5.3 1.2 0 2.5.4 3.1.9.5.5 2.8 1.2 5.2 1.5 2.3.3 6 .9 8.1 1.2 3.3.5 4.1.3 5-1.5 1.6-2.9 10.2-3 13.1-.1 2 2 7.4 2.7 8.4 1.1.3-.4 2.9-1.1 5.8-1.4 2.9-.3 6.1-.8 7.1-1.2 1.2-.5 1.7-.2 1.7.9 0 2.3 4 2.9 13.3 2.2 4.5-.4 9-.6 10-.6.9.1 3.6.1 6 .1 2.3 0 5.6 0 7.2.1 4.7.1 8.6-.1 13.7-.8 5.4-.7 5.8-1.5 5.8-11.4v-6.5l-5.5-5.3c-3.1-2.8-6-5.2-6.5-5.2s-1.4.9-2 2c-1 1.9-1.1 1.9-5.6 0-4.8-2.1-13.4-2.7-13.4-1 0 .5-1.5 1-3.4 1s-3.8.4-4.1 1c-1.2 2-4.4.9-6.6-2.3-1.2-1.7-2.8-3.7-3.5-4.3-1-.8-.8-2.6 1-9 1.2-4.3 2.8-8.9 3.4-10.1 1.6-3 1.5-4.1-.6-4.7-1.6-.5-1.8-2-1.7-13.3 0-10.1.4-13.5 1.8-16 2.2-4.1 2.3-13.5.2-15.3-.8-.7-1.5-2.1-1.5-3.1 0-1.1-.4-1.9-1-1.9-.5 0-1-1.5-1-3.4 0-4.7-6.4-9.6-12.6-9.6-2.4 0-4.4.5-4.6 1.2-.3.9-1.8.9-6.2-.2-4.5-1.1-6.2-1.1-7.7-.2-2.5 1.6-11.6 1.6-12.1 0-.4-1-1.5-1-5.4 0-3.5.9-5.9.9-8.4.2-4.9-1.4-4.8-1.4-7.1 2.5zM489.6 315.5c.4.9 1.5 2 2.5 2.6 1.6.8 1.9.6 1.9-1.6 0-2-.5-2.5-2.5-2.5-1.8 0-2.3.4-1.9 1.5z"/><path d="M598 344c0 1.8.4 2.9 1 2.5.6-.3 1-1.5 1-2.5s-.4-2.2-1-2.5c-.6-.4-1 .7-1 2.5zM376.8 462c-4.4 1.7-18.7 10-23.6 13.8l-2.2 1.7 14.7 25.5c8 14 14.7 25.7 14.9 25.8.1.2 5.1-2.6 10.9-6.3 5.9-3.7 14-8.5 18.1-10.7 4.1-2.2 7.2-4.3 7-4.6-6-10.9-21.3-37.1-22.2-38.1-.7-.8-2.6-1.4-4.1-1.3-2.3 0-3.3-.7-5.1-3.9-2.6-4.4-2.1-4.3-8.4-1.9zM493.5 496.7c-24.4 2.1-55.6 10.8-76.7 21.4-36.8 18.5-69.7 49.6-90.3 85.4-35.3 61.1-37.7 137.3-6.5 200.3 11.5 23.2 23.2 39.6 40.9 57.2 18.2 18.1 34.4 29.7 57.6 41.1 23.1 11.3 47.9 18.3 73.9 20.8 53.8 5.3 109.5-11.4 153-45.7 9.1-7.1 26.7-24.7 33.8-33.8 67.8-85.9 61.1-207-15.7-284-6-6.1-14.2-13.6-18.1-16.7-38.9-30.5-87-47.2-134.9-46.5-7.1.1-14.8.3-17 .5zM565 521c1.4.4 2.6 1.5 2.8 2.6.2 1.8-9.1 38-10.1 39-.6.7-11.7-2.5-11.7-3.4 0-1.2 7.2-27.9 9.1-33.9 2.3-6.9 1.4-6.5 9.9-4.3zm-134.5 35l10.2 17.5-5.1 3.2c-2.8 1.8-5.3 3.3-5.6 3.3-.5 0-16.3-27.4-19.4-33.7l-1.6-3.2 4.3-2.5c2.3-1.5 4.8-2.5 5.6-2.4.7.2 6 8.2 11.6 17.8zm97.3 22.4l15.2 20.4 7.8 2.7c10.5 3.7 20.2 8.9 29.6 15.8 29.4 21.8 46.6 55.5 46.6 91.1 0 31.9-11.8 60.5-33.9 82.6-45 44.9-117.2 44.9-162.2 0-45-44.9-45.4-116.8-.8-162 11.9-12.1 30-23.4 45.6-28.4 5.1-1.7 5.5-2.1 20.5-22.2 8.4-11.2 15.5-20.4 15.8-20.4.3 0 7.4 9.2 15.8 20.4zm153.8 33.1c1.4 2.5 2.4 5.1 2.1 5.8-.6 1.7-34.4 21-35.6 20.3-1-.7-6.3-9.8-5.9-10.1 1.1-.9 35.4-20.4 36-20.5.4 0 1.9 2 3.4 4.5zM345 658.6c9.8 2.6 18.3 5 19 5.4.9.5.7 2.1-.5 6.4-.9 3.1-1.9 5.6-2.1 5.6-1 0-34.8-9.2-37.1-10.1-2.6-1-2.8-2.5-1.1-8 .6-2.3 1.7-3.9 2.6-3.9.8 0 9.5 2.1 19.2 4.6zm335.2 89.8c22.2 6.1 22.2 6 21.4 9.2-.4 1.5-1 4-1.3 5.6-.5 2.8-.8 2.9-4.2 2.3-4.8-.9-36.3-9.3-36.8-9.9-.8-.7 2.7-11.6 3.7-11.6.5 0 8.2 2 17.2 4.4zm-300.9 39c1.5 2.7 2.7 5 2.5 5.1-1.5 1.3-34.5 19.5-35.4 19.5-1.7 0-6.8-9-5.8-10 2-1.9 34-19.9 34.9-19.7.5.2 2.2 2.5 3.8 5.1zm224.5 69c5.2 9.1 9.6 17.3 9.9 18.4.3 1.5-.6 2.6-4.2 4.6-5.6 3.3-3.9 5-16.6-16.7-6.6-11.4-8.9-16.1-8.1-16.9 1.1-1.1 8.3-5.5 9.2-5.7.3 0 4.7 7.3 9.8 16.3zm-131 2.1c2.9.9 5.2 1.8 5.2 2.2 0 1.5-10.2 37.9-10.8 38.5-1 1-10.3-1.4-10.9-2.8-.3-.9 5.8-25.6 9.3-37.7.6-2.1.8-2.1 7.2-.2z"/><path d="M494 625.5c-34.4 7.7-60.2 32.2-69.6 66-2.5 9.2-3 30.3-.9 40.6 6.8 33.7 30.4 59.2 64.2 69.6 7.9 2.4 10.3 2.7 24.3 2.7s16.4-.3 24.3-2.7c33.5-10.3 57.3-35.8 64.1-68.9 2-9.7 2.1-27.5.1-36.5-7.2-33.9-31.2-59.6-64.7-69.4-9.6-2.8-32.2-3.6-41.8-1.4zm39.5 3c25.6 7 47.7 27.1 57 51.8 5.7 15.1 6.8 33.7 2.9 49l-1.6 6.4-3.5-.6c-2.4-.4-4.3-1.6-6-3.8l-2.5-3.2 7.4-3.5c4.9-2.4 6.3-3.4 4.3-3.1-1.6.2-7.8.9-13.7 1.6-6 .7-10.8 1.5-10.8 1.8.1.3 4.6 4 10 8.1 5.5 4.1 9.7 7.6 9.5 7.8-.2.2-5.8-.4-12.5-1.3s-12.4-1.5-12.7-1.2c-.3.3 1.1 2.7 3.1 5.3 2 2.7 3.3 5.1 2.8 5.6s-4 1-7.8 1.1c-3.8.1-7.1.5-7.4.8-.3.4-3.6 2.7-7.5 5.3-10 6.7-21.1 10-33.6 9.9-5.3 0-10.6-.6-11.7-1.2-1.2-.7-5.1-1.4-8.7-1.8-5.4-.5-6.5-.9-6.5-2.4 0-2.6-.5-2.4-6.1 1.7-4.2 3.1-11.9 5.7-11.9 4.1 0-.4 1.4-4.1 3-8.3 1.7-4.2 2.9-7.9 2.6-8.1-.3-.4-6.1 1.9-21 8.2l-4 1.7 2.9-3.9c1.6-2.1 5.3-6.9 8.3-10.6 3-3.8 5.2-7 4.9-7.3-.2-.2-6.6.5-14.1 1.6-16.1 2.4-14.6 2.3-14.6.9 0-.5.4-.7 1-.4.9.5 20.1-13.2 21.4-15.3.3-.5-4.3-1.5-10.2-2.1-5.9-.7-12-1.4-13.7-1.6-2.1-.3-.7.7 4.3 3.1l7.3 3.6-2.4 3.2c-1.6 2.1-3.6 3.3-6 3.7-3.3.5-3.5.4-4.6-3-6.5-22-2-49.6 11.2-69.1 4.6-6.8 15.5-17.7 22.1-22.2 10.1-7 23.3-12.3 35.1-14.2 6-.9 28 .3 34 1.9z"/><path d="M444.4 690.6c.4 1.1-1 2.3-5.7 4.5l-6.2 3 4.5-.5c2.5-.3 7.6-.8 11.3-1.2 3.7-.4 7-1 7.2-1.4.3-.4-1.3-1.9-3.5-3.4-4.5-3-8.6-3.5-7.6-1zM571.8 691.7c-2.1 1.4-3.6 2.9-3.3 3.3.2.4 3.7 1 7.7 1.4 4 .4 9.1.9 11.3 1.2 3.9.4 3.9.4-2.2-2.5-4.7-2.2-6.1-3.4-5.7-4.5 1-2.5-3.5-1.9-7.8 1.1zM432.5 701.8c1.2.9 3.8 3.2 6 4.9 2.1 1.8 3.7 3.4 3.4 3.6-6.8 5.4-12.1 9.9-10.9 9.5 11.5-4.4 23-9.3 23-9.8 0-.3-5.3-2.7-11.7-5.3-6.5-2.5-10.9-3.9-9.8-2.9zM581.3 704.8c-6.2 2.5-11.3 4.8-11.3 5.2 0 .5 14.7 6.8 22.5 9.6 1.6.6-2.8-3.3-10.4-9.3-.3-.2 1.3-1.8 3.4-3.6 7-5.8 8-6.6 7.5-6.6-.3.1-5.6 2.2-11.7 4.7zM221.6 679.7c-.3 1-1 7.2-1.7 13.7-1.6 16.7-.6 51.2 2 68.5 1.9 12.7 8.5 40.9 9.8 42.1.3.3.3-2 0-5-2.8-24.7-6.8-73.5-6.4-77.5.4-3.5.3-4.4-.4-3-.6 1.4-.8-.8-.5-6.5.2-5.5.1-7.8-.5-6.5-.6 1.3-.8-1-.6-6.5.3-5.3.1-7.7-.5-6.5-.5 1.3-.7-1.1-.5-6.3.4-8.3.2-9.6-.7-6.5zM801.7 686.2c.2 5.2 0 7.5-.5 6.3-.6-1.2-.8 1.2-.5 6.5.2 4.7 0 7.7-.4 6.8-.5-.9-.9 3.3-.9 9.5-.2 9.1-4.4 59.9-7.1 83.7-.3 3-.3 5.3 0 5 1.3-1.2 7.9-29.4 9.8-42.1 2.6-17 3.7-53.8 2-70-1.5-13.7-2.9-17.2-2.4-5.7zM794.2 683c0 1.9.2 2.7.5 1.7.2-.9.2-2.5 0-3.5-.3-.9-.5-.1-.5 1.8z"/><path d="M794.8 713.5c-.6 28.1-1.7 37.8-6.4 59.5-8.9 40.1-28.5 80.7-55 114-10.6 13.3-34.6 36.6-48.1 46.7-6.7 5.1-13 9.6-14.1 10.2-1.6.9-3.4-1.8-16.7-24.8l-14.8-25.8-10.6 6.4c-5.8 3.6-14.1 8.3-18.4 10.4l-7.8 3.9 2.5 4.3c1.4 2.3 8.1 13.9 14.9 25.7l12.5 21.5-4.3 2.2c-7.2 3.7-23.9 10.1-36.2 13.8-42.9 13-93.2 15.2-138.3 5.9-70.3-14.5-132.3-55.7-175.3-116.4-4.5-6.3-9.7-13.5-11.5-15.9-4.4-5.8-18.1-33.8-22.7-46.4-7.7-21-14.4-50-16.1-69.2-.3-4.4-1.1-8.7-1.5-9.5-.6-.9-.7 0-.4 2.5 1.2 9.5 2.8 27.3 2.7 30.2 0 1.8.4 3.3 1 3.3.7 0 .9 1.7.5 4.7-.3 2.7-.2 4 .2 3 .5-1.3 1.1.1 2 5 5.5 28 20.2 64.2 37.1 91.1 22.8 36.3 55.8 69.5 90.8 91.2l7.3 4.5-6.6.5-6.6.5 8.8 5.2c35.5 20.8 74.8 34 115.3 38.7 17.4 2.1 49.5 2.1 66.5.1 38.5-4.5 73.7-16 108.5-35.3 17-9.5 16.7-9.2 8.6-9.2h-6.8l12.9-8.6c17.4-11.6 29.4-21.5 44.3-36.4 38.4-38.3 65.1-86.1 77-137.5 1.6-7 2.9-11.2 3.3-10 .2 1.1.2-.1 0-2.8-.4-3-.2-4.7.5-4.7.6 0 1-1.5 1-3.3-.1-1.7.4-7.9 1.1-13.7 1.3-11.2 1.4-45.2.2-56-.5-4.6-.9 1.3-1.3 20.5zM798.1 718.6c0 1.1.3 1.4.6.6.3-.7.2-1.6-.1-1.9-.3-.4-.6.2-.5 1.3zM231.1 784.6c0 1.1.3 1.4.6.6.3-.7.2-1.6-.1-1.9-.3-.4-.6.2-.5 1.3zM792.1 784.6c0 1.1.3 1.4.6.6.3-.7.2-1.6-.1-1.9-.3-.4-.6.2-.5 1.3zM234.1 811.6c0 1.1.3 1.4.6.6.3-.7.2-1.6-.1-1.9-.3-.4-.6.2-.5 1.3zM789.1 811.6c0 1.1.3 1.4.6.6.3-.7.2-1.6-.1-1.9-.3-.4-.6.2-.5 1.3z"/><path d="M352.8 963.7c1.2.2 3 .2 4 0 .9-.3-.1-.5-2.3-.4-2.2 0-3 .2-1.7.4zM667.8 963.7c1.2.2 3 .2 4 0 .9-.3-.1-.5-2.3-.4-2.2 0-3 .2-1.7.4z"/></svg>