<?xml version="1.0" encoding="UTF-8" standalone="no"?>
<svg xmlns:svg="http://www.w3.org/2000/svg" xmlns="http://www.w3.org/2000/svg" width="85.790mm" height="54.313mm" viewBox="0 0 85.790 54.313" version="1.1" id="scCwNoCh3ptNoDim">
 <defs>
  <clipPath id="clipRect" clipPathUnits="userSpaceOnUse"><rect style="fill:none;fill-rule:evenodd;stroke-width:0.034" x="0" y="-214.418" width="107.60" height="75.98"/></clipPath>
 </defs>
 <g id="layer1" clip-path="url(#clipRect)" transform="translate(0,192.751),translate(-10.91,10.77)" style="fill:#000000;fill-opacity:0.122;stroke:#000000;stroke-width:0.2;">
  <g id="sc"><path id="scShp" style="stroke-linejoin:round;paint-order:fill markers stroke;" d="m 14.185,-149.433 c -0.843,0 -1.652,-0.335 -2.248,-0.932 -0.596,-0.596 -0.931,-1.406 -0.931,-2.249 v -47.629 c 0,-1.757 1.424,-3.181 3.180,-3.181 l 79.230,0 c 1.756,0 3.180,1.424 3.180,3.181 v 47.629 c 0,1.757 -1.424,3.181 -3.180,3.181 z"/></g>
  <g id="cw"><rect id="cwShp" style="fill-rule:evenodd;"                                     x="15.90" y="-198.54" width="44.18" height="44.20"/></g>
  <g id="mrkrs" style="fill:#ff0000;fill-opacity:0.50;stroke:#000000;stoke-opacity:0.5;stroke-width:0.20;stroke-linejoin:round;paint-order:fill markers stroke;font-size:2.65px;line-height:1.25;font-family:'Noto Sans Display',sans-serif;font-weight:600;letter-spacing:0px;word-spacing:0px;">
   <g id="mrk1"><circle id="mrk1c" cx="12.60" cy="-176.43" r="1.5" style="fill:#ff0000;fill-opacity:0.50;stroke-width:0;"/><text id="mrk1t" x="12.02" y="-175.48343" xml:space="preserve" style="fill:#000000;fill-opacity:1.00;stroke:#000000;stoke-opacity:1.0;stroke-width:0.20;">1</text></g>
   <g id="mrk2"><circle id="mrk2c" cx="53.80" cy="-151.04" r="1.5" style="fill:#ff0000;fill-opacity:0.50;stroke-width:0;"/><text id="mrk2t" x="53.09" y="-150.08022" xml:space="preserve" style="fill:#000000;fill-opacity:1.00;stroke:#000000;stoke-opacity:1.0;stroke-width:0.20;">2</text></g>
   <g id="mrk3"><circle id="mrk3c" cx="75.45" cy="-151.04" r="1.5" style="fill:#ff0000;fill-opacity:0.50;stroke-width:0;"/><text id="mrk3t" x="74.74" y="-150.09344" xml:space="preserve" style="fill:#000000;fill-opacity:1.00;stroke:#000000;stoke-opacity:1.0;stroke-width:0.20;">3</text></g>
  </g>
 </g>
</svg>
