<svg version="1" xmlns="http://www.w3.org/2000/svg" width="1365.333" height="1365.333" viewBox="0 0 1024.000000 1024.000000"><path d="M485.5.6c-34.1 2.6-49.7 4.6-76 9.9C341.4 24.2 273.9 53.3 218 93.2c-8.4 6-9.6 6.6-11 5.3-2.5-2.3-11.8-1.9-15.5.5-3.2 2.1-12.5 2.8-12.5 1 0-.6-2-1-4.4-1-3.6 0-4.6-.4-5.1-2-.5-1.7-1.5-2-6.6-2-3.3 0-5.9.4-5.9 1s-3.8 1-9.4 1c-10.4 0-10.9.3-13.1 6.7-1 3.1-2.4 4.4-7.6 7.3-4.2 2.3-6.9 4.6-7.9 6.6-.9 1.7-3.1 4.4-4.9 6-3 2.7-3.1 3.2-2.1 5.8 1 2.6.8 3.2-2.1 6.2-2.5 2.6-2.9 3.6-2.1 5 .9 1.5.5 2.4-2 4.5-3 2.4-3.1 2.7-2.1 6.6.9 3.5.8 4.4-.8 6-1 1-2.6 5.3-3.5 9.6-1.6 7.2-1.6 7.8-.1 9.5 1.3 1.4 1.7 3.8 1.7 8.9 0 6.7.2 7.3 3 9.6 2.7 2.3 3 3.1 2.9 8.4-.1 5.3-.2 5.5-1 2.5-.5-1.7-1.1-3.2-1.3-3.2-.9 0-17.4 23.1-24.6 34.4C36.3 306.3 9.7 384.3 2 466 .2 485.5-.3 522.1.9 541.4c2.5 37.5 9 77.4 17.2 105l2.1 7 2.8-5c2.6-4.4 2.8-5.4 1.9-9.7-1.2-6.5.3-9.1 9.6-16.9 4.1-3.4 7.5-6.6 7.5-7.1 0-.4.5-.5 1-.2.6.3 1 .1 1-.5 0-1.9 19.9-10.7 30-13.3 22.4-5.8 49.9-6.1 74-.9 4.1.9 8 1.7 8.5 1.8.6.1 1.5.3 2 .4.6.1 1.4.2 1.9.1 1.5-.3 4.6 1 4.2 1.8-.3.3 1.1.6 3 .6 1.9-.1 3.4.1 3.4.5s.6.7 1.3.8c4 .5 5.5.9 8.4 2.5 3 1.6 3.3 1.6 4.1.1 1.1-2.1 3.1-1.1 2.7 1.4-.1.9 0 1.1.2.4.3-.8 1.1-1.1 1.9-.8.9.3 1.2.1.9-.4-.3-.6-.1-1 .5-1 .7 0 1-.6.8-1.2-.7-2.1 1.5-3.6 3.9-2.7 1.3.5 2.3.5 2.3 0s-.7-1.1-1.5-1.5c-2.3-.8-.7-3.5 1.8-2.8l2.1.5-2.2-2.3c-1.3-1.4-1.8-2.8-1.3-3.4.5-.6 1.1-4.9 1.4-9.6.3-5.1.2-7.1-.3-5-.6 3.1-.8 2.7-.9-2.8-.1-6.1 0-6.3 2.2-5.7l2.2.6-2.2-1.7c-2.8-2-3-3.8-.3-2.9 2.7.8 2.7-1.6 0-4-2.7-2.5-2.7-5 0-3.5 1.1.6 2 .9 2 .8 0-.2-.7-2.6-1.5-5.3-1.6-5.1-1.8-15.8-.3-14.9 1.3.8.9-3.1-.4-4.6-1.1-1.2-1-1.2.5-.1 1.9 1.5 2.4.2.5-1.7-.9-.9-.9-1.2.1-1.2 1.3 0 1.2-2.6-.4-6.3-.5-1.2-.3-1.6.6-1.2 1 .4 1.4-.4 1.5-2.5.1-1.6-.3-3-.7-3-.5 0-.9-.5-.9-1 0-.6.7-1 1.5-1 1 0 1.6-1.6 2.1-5 .4-2.8 1-5 1.4-5 .4 0 .5-1.2.2-2.6-.3-1.7-.1-2.5.5-2.1.6.4 1.3-.7 1.7-2.5.4-2.3.2-3.4-.8-4-2.1-1.2-.8-5.1 1.5-4.5 1.1.3 1.7.1 1.4-.3-.8-1.3.6-6.1 1.5-5.5.5.3.6-.5.2-1.7-.3-1.3-.1-1.9.5-1.5.6.4 1.1.1 1-.6-.1-3.2.4-4.8 1.3-4.2.5.3 1-.1 1-1s.4-1.4.9-1.1c.5.4.7-.3.4-1.3-.7-2.5 1.4-6.1 3.5-6.1 1.4 0 1.5-.2.2-.9-.8-.6-1.8-.7-2.3-.4-.5.3-.3-.5.4-1.8 1.4-2.6 1.6-6.5.6-9.3-.5-1.3-.3-1.7.7-1.3 1.7.7 2.8-1.7 1.4-3.1-.6-.6-.6-1.2.1-1.6.7-.5.6-1.5-.5-3.2-1.3-1.8-1.4-2.7-.5-3.8.9-1 .8-1.5-.3-1.9-1.1-.5-1.3-1.3-.6-3.5.5-1.9.4-3.4-.3-4.1-.5-.5-1.2-2.5-1.4-4.3-.2-1.7-.7-3.4-1.1-3.7-1.1-.9-1.2-4.3-.2-6.1.6-1.2.3-2.2-1.2-3.4-1.5-1.3-1.7-2-.9-2.6 1-.5.9-1-.2-2.1-.7-.8-1.2-2-.9-2.8.3-1 0-1.1-1.8-.1-1.2.6-2.8.9-3.5.6-.9-.3-1.2.1-1 1.5.2 1.1-.4 2.3-1.5 2.9-1.1.6-1.9 1.4-1.8 1.8.4 1.2-6.6 10.1-7.9 10.2-.7 0-1.3.6-1.3 1.4 0 1.4-7.4 8.6-8.8 8.6-.4 0-2.3 1.4-4.2 3.2-1.9 1.8-3.9 3.3-4.5 3.4-.5.1-2.7.9-4.7 1.8-2.9 1.2-3.8 1.3-3.8.4 0-1-.2-1-.8-.1-1.3 2-13.8 1.8-20.7-.2-8.3-2.5-15.6-6-19.1-9.4-5.9-5.7-9.9-10.7-11.8-14.6-1-2.2-2.2-4.7-2.7-5.5-1.9-3.1-4-8.3-4.4-10.9-.3-1.4-1.3-5.2-2.5-8.5-1.1-3.2-2.1-7.3-2.3-9.1-.2-1.7-.7-3.7-1.1-4.3-.3-.6-.9-3.2-1.2-5.8-.3-2.7-.7-5.1-.9-5.4-.2-.3-1.5-6.3-2.9-13.2-3.7-18.3-6.8-27.2-15.8-45.2-9.1-18.4-11.2-25.8-10.5-36.4.5-5.9 1.2-8.5 4.3-14 7.5-13.4 30.4-49.2 31.5-49.2.4 0 .9 1.8 1.2 4 .6 5 2.2 7 5.3 7 2 0 2.4.5 2.4 2.9 0 3.4 3.1 7.6 7.1 9.6 2 1.1 2.9 2.3 2.9 4 0 3.9 8 7.5 16.5 7.5 3.6 0 6.5.4 6.5 1 0 .5 1.1 1.7 2.4 2.6 2.2 1.4 2.8 1.4 5.8.1 2-1 7.6-1.7 14.3-2 6.1-.2 11.8-.8 12.8-1.2 1-.4 2.2-2.6 2.8-5.1 1.1-4.1 1.4-4.4 4.5-4.4 2.7 0 3.4-.4 3.4-2 0-1.3 1-2.4 2.7-3.1 4.8-1.8 6.3-3.9 6.3-8.5 0-2.4.4-4.5.9-4.9.5-.3 1.5-2.2 2.2-4.2.7-2.1 2.3-4.6 3.6-5.6 4.1-3.3 4.6-5.2 1.9-8.4-1.9-2.2-2.2-3.3-1.4-4.7.7-1.2.7-2.6-.1-4.2-1-2.3-1.4-2.4-12.5-2.4-10.8 0-11.6.1-12.7 2.1-.6 1.2-.9 3.6-.6 5.5.4 2.4.1 3.7-1.3 4.9-1 .9-2.2 2.9-2.5 4.4-.3 1.5-1.9 3.5-3.5 4.5-1.8 1-3 2.6-3 3.7 0 4.4-11.6 11.7-14.3 9-1.7-1.7-5.8-1.3-9.3.8l-3.2 1.9-2.2-2.3c-1.3-1.4-4.1-2.8-6.4-3.3-4-.7-4.1-.9-4.9-5.9-.6-3.8-1.5-5.6-3.3-6.8-1.3-.8-2.4-2.4-2.4-3.5s-1.3-2.9-2.9-4.1c-2.6-1.9-2.8-2.5-2-4.7.5-1.4.7-3.7.4-5.1-.3-1.4-1-7-1.5-12.4s-1.5-10.7-2.1-11.8c-.8-1.6-.7-2.6.5-4.4.9-1.4 1.6-3.8 1.6-5.6 0-1.7.9-4.2 2-5.6 1.5-1.9 1.7-3 1-4.3-1.7-3.2-1.1-4.6 2.5-6.3 4.1-2 4.9-3.4 3.7-6.8-.8-2.1-.6-2.5 2.2-3.4 2.6-.8 3.2-1.6 3.4-4.5.5-4.9 1.8-6 6.8-6 4.2 0 4.4-.1 5.5-4l1.2-4h8.4c8.2 0 8.4 0 9.3 2.7 2.3 6.7 3.4 7.8 7.8 8.1 4.2.3 4.2.3 4.2 4.3 0 2.1.5 3.9 1 3.9 1.6 0 1.2 5.3-1.1 12.6-2 6.5-2 6.8-.3 8.1 1 .7 2.8 1.3 4 1.3 1.3 0 3.4 1.1 4.8 2.5 2.9 2.9 4 3 8 1 1.5-.8 5-1.5 7.7-1.5h4.9v-4.5c0-3.8-.4-4.8-3-6.7-2.7-1.9-3-2.7-3-7.5 0-2.9.5-5.3 1-5.3.6 0 1-1.1 1-2.5s.5-4.5 1.2-7c1-3.6 1-5 0-6.5-.7-1.1-1.2-2.5-1.2-3.2 0-1.4 37.8-26.9 50.5-34.2 15.1-8.5 16.4-8.9 26.6-7.6 20.7 2.5 35.1 11.7 44.5 28.7 4.5 7.9 8.9 25.2 10.4 40.8.6 6.6 1.8 15.9 2.5 20.7 1.6 9.7 5.6 18.8 8.4 18.8 3 0 7.8-7.3 11.2-17.1 4.9-14.3 9.2-22.6 16.1-31.2 7.4-9 14.6-14.7 24.3-19.2 12.4-5.7 18.5-6.9 34-7 18.1 0 22.6 1.2 44 12 20.6 10.3 22.3 10.6 33.5 5 4.1-2.1 9.5-4.8 12-6.1 9-4.5 15.5-5.6 35.9-6.1 20.3-.6 49.6.7 76.6 3.3 18.8 1.9 21.6 1.6 30.4-2.7 5.4-2.6 9.3-5.9 21.1-17.9 12.5-12.8 15.5-15.2 22-18.4 13-6.3 24.6-6.5 36.5-.7 10.9 5.4 19.3 16.7 23 31.2 1.5 5.5 1.6 9.9 1 32.9-.5 20.7-.3 28.2.8 34.2 1.6 9 4.9 14.7 9.8 17.1 3 1.4 3.7 1.4 6.9.1 5.6-2.4 6.9-4.9 13.5-26.9 5.6-18.4 12.3-28.4 26.6-39.2 1.2-1 3.1 0 10.5 5.8 9.5 7.5 10.7 8.9 7.5 8.9-1.1 0-4.9 2.1-8.5 4.7-6.2 4.6-6.5 5-6.5 9.3-.1 4.1-.5 4.8-4.2 7.4-3.7 2.6-4 3.2-3.4 6 .4 1.7.9 5.9 1.2 9.3.2 3.5.9 6.3 1.3 6.3.5 0 1 1.9 1.2 4.2l.3 4.3 5.3.8c5.7.9 6.6 2.1 2.7 3.9-1.3.6-2.7 1.9-3 3-.7 2-2 2.4-3 .8-.3-.5-1.5-1.4-2.5-2-1.5-.8-2.4-.2-5.4 3.9-3.3 4.5-3.6 5.4-3.6 11.9 0 5.3.4 7.3 1.5 7.9 1.3.8 1.3 1.5 0 6.7-.8 3.2-1.3 6.2-1 6.7.3.4 1 4.5 1.5 9s1.5 8.7 2.1 9.5c.8 1 3.4 1.4 8.5 1.4 8 0 9.4-1 9.4-6.4 0-3.2.8-3.2 4.8-.3 6.4 4.8 10.8 6.1 16.5 5.1 3.7-.7 6.2-.6 8.7.3 1.9.6 7.9 1.2 13.3 1.2 8 .1 9.7-.2 9.7-1.4s1.4-1.5 6.9-1.5h7l.8-4.1c.8-4 1-4.2 7.1-6.1l6.2-1.9v-4.4c0-2.6.8-5.7 1.9-7.5l1.8-3.1 6.8 11.1c6.4 10.6 6.7 11.3 5.4 13.8-1.5 2.8-10.9 12.4-23.2 23.8-5.1 4.7-7.7 7.8-7.7 9.3 0 3.5 3.4 9.1 10 16.6 13.7 15.5 17.8 23.8 28.8 58 10 31.3 10.2 31.9 10.2 41.4 0 18.9-7.7 33.8-22.4 43.3-8.9 5.7-15.7 7.4-35.1 8.7-9.4.7-19 1.6-21.5 2.1-8.8 1.9-52.8 1.5-56.1-.5-.8-.5-1-.4-.5.3.5.9 0 .9-1.8.2-1.7-.6-2.7-.6-3.2.1-.3.6-1.7.8-3 .5-1.7-.5-2.6-.2-3 .9-.3.8-1 1.3-1.4 1-1.8-1.1-3.8.7-3.5 3.1.1 1.7-.2 2.4-1 2-1.4-.5-1.5 1.1-.2 3.1.4.6.3 1.4-.3 1.8-.7.4-.7 1.2 0 2.6.9 1.5.7 1.9-.6 1.9-1.1 0-1.4.5-.9 1.7.4 1 .8 2.4.8 3 0 .7.3 1.3.7 1.3 1 0 4.1 7.1 3.5 8.1-.4.5-.2.9.4.9 1.3 0 5.4 12.7 4.5 14.1-.4.7-.3.9.3.6 1.2-.7 3.8 9.7 2.8 11.3-.3.5-.1 1 .6 1s.9 1 .7 2.5c-.3 1.4-.1 2.5.4 2.5.6 0 .8 1.5.6 3.4-.2 2 0 3.2.6 2.9.5-.4.7 1.3.4 4.1-.3 2.8-.2 4.6.5 4.6.6 0 .8 2.4.5 6.5-.3 3.6-.2 6.2.3 5.9.5-.3.9 10.8.9 25.8 0 14.5-.4 25.7-.8 25.1-.4-.7-.6 4.5-.4 11.5.2 7-.1 12.2-.5 11.5-.5-.6-.7 3.6-.6 9.5.2 6.3-.1 9.9-.5 8.8-.5-1.2-.7 2.9-.5 9.5.3 6.4.1 10.9-.4 10.2-.5-.7-.7 3.2-.5 9 .2 5.7-.1 9.7-.5 9-.5-.7-.8 3.3-.6 9l.3 10.2-2-12.5c-3.1-19.9-9.9-47.2-13.5-53.9-1.2-2.3-1.3-1.8-.8 5.4.3 5.8.2 7.6-.6 6.5-.9-1.3-1.1-1.2-1.1.5-.1 1.1-2.3-4.1-4.9-11.5-6.2-17.5-8.8-23.6-17.4-40.4-20.6-40.4-51-75.9-88.9-104.1-7.3-5.3-3.7-1.7 4.5 4.6 10.9 8.5 31 28 41.4 40.4 15.5 18.5 32.2 45.3 41.8 67.3 9 20.4 16.8 46.4 18 59.6.3 3.1 1.2 10.4 2.1 16.3 2.1 15.3 2.9 50.1 1.5 64.8-5.6 58.5-27.2 111.6-62.8 154.3l-7.7 9.3-2.4-4c-1.3-2.2-3.2-4.3-4.3-4.6-1.1-.4-3.3-3.1-5-6.1-1.7-3-4.3-6.1-5.8-7-1.5-.9-3.6-3.2-4.6-5.1-1-1.9-3.1-4.1-4.5-5-1.5-.8-3.4-3-4.4-4.7-.9-1.7-3.2-4.4-5.2-5.9l-3.4-2.8-11.3 11.3c-35.3 35.8-77.8 58-126.1 65.9-11.6 1.9-13.6 2.5-13 3.8.4.9.9 3.2 1.2 5.2.2 2.2 5.4 12.1 13.7 26.5l13.3 22.9-7.2 1.2c-16.1 2.6-33.3 3.6-52.1 3-27.5-.9-51.2-4.9-75.9-12.8-65.3-20.8-119.9-63.5-156.7-122.5-3.4-5.4-7.6-12.2-9.5-14.9-9.1-13.5-21.5-47.5-27.3-74.5-5.2-24.4-7.4-60.7-5.2-84 2.2-22.4 8.2-50 13.1-60.5 1.1-2.2 4-9.4 6.6-16 2.5-6.6 8.1-18.8 12.3-27 10.7-21 19.1-33.4 37.7-56.1 1.5-1.8 2.4-1.7 5 .4 1.6 1.4 8 11.5 11.2 17.7.3.5-.9-.4-2.7-2-3.1-2.9-3.1-2.6 1.7 5.6 2.7 4.7 7.7 12.1 11.1 16.3 3.4 4.3 6.9 9.2 7.8 10.9l1.6 3.1 3.1-3.9c31.5-39.8 79.7-69.4 131.7-80.9 6.4-1.4 12.8-2.6 14.2-2.6 1.4 0 2.9-.5 3.2-1 .4-.6-1.8-5.2-4.7-10.3l-5.4-9.2-6.4-.3c-3.5-.2-7-.8-7.8-1.4-2-1.7-10.4-5.8-11.9-5.8-.7 0-1.3-.5-1.3-1 0-.6-.6-1-1.4-1-2 0-9.9-4.5-13.6-7.7-4.8-4.2-11.8-9.1-13.9-9.6-7.4-1.8-52.1 20.1-76.6 37.6-73.4 52.7-118.4 133.3-124 222.2-.8 11.8-1.2 13.6-2.5 11.5-.8-1.2-1-1-1 .7 0 1.3-.4 2.3-1 2.3-.5 0-1 .7-1 1.5 0 .9-.6 1.2-1.5.9-1.3-.5-1.5 1-1.5 10.2 0 9.8 2.1 28.9 3.6 33.7.3 1 1.2 1.6 1.9 1.4.7-.3 2.1 1.4 3.5 4.4 1.3 2.7 2.6 4.5 3 3.9.3-.6 1.2 2 2 5.7 2.2 11.7 9.6 36.4 14.5 48.8 10.8 27.5 27 54.9 46.8 79.5 9.9 12.2 34.3 35.8 47.5 46 8.4 6.4 11.8 9.6 10.7 9.8-1 .2-2 0-2.4-.6-.3-.5-1.4.1-2.4 1.4l-1.7 2.3 11.2 7.4c6.2 4.1 15.2 9.6 20 12.3 4.9 2.7 8.6 5.3 8.5 5.9-.2.5-3.5 1.1-7.4 1.3-5.9.2-8.7-.3-17.9-3.4-32.1-10.7-68.4-27.4-97.2-44.7-8.5-5.1-16.1-9.9-17-10.8-.9-.8-2.5-1.8-3.4-2.2-1-.3-1.8-1.1-1.8-1.7 0-.6-.5-.8-1.2-.4-.6.4-.8.3-.4-.4.3-.6.1-2.2-.5-3.6-.9-2-.9-2.9 0-4 1-1.2 1-2 0-3.8-.8-1.3-1.4-2.6-1.5-3.1-.1-.4-.3-.9-.4-1.2-.1-.3-.4-1-.5-1.5-.1-.6-.4-1.2-.5-1.5-.1-.3-.3-1-.4-1.7-.2-1.6-2.6-2.2-2.7-.6-.1.7-.9-1.2-1.9-4.2-1-3-1.4-5.7-.9-5.8.5-.2.9-.8.9-1.3 0-.6-.4-.7-1-.4-.5.3-1 .1-1-.6s-.9-.5-2.2.7c-1.3 1-1.8 1.2-1.2.4.6-.8 1.4-2.4 1.8-3.5.7-1.8.5-1.8-1.4.2-2.3 2.5-4 3-4 1.1 0-.6-.7-.3-1.5.8-1.1 1.5-1.4 1.6-1.5.3 0-.8.6-2.1 1.3-2.8 1-1.1.7-1.1-1.3 0-1.4.7-2.8 1.2-3.1 1.2-.4-.1-1.5.7-2.4 1.7-1.9 2.1-4.1 2.8-3 1 .3-.6.1-1-.4-1-.6 0-1.1.3-1.1.8 0 .4-.9 1.3-2.1 2-1.2.8-1.8.9-1.5.4.4-.7-.4-.6-2.2 0-2.4.9-3.3.7-7.3-2.1l-4.5-3.2-3.2 1.8c-1.8 1-3.2 2.1-3.2 2.5 0 1 9.6 9.4 21 18.2 134.8 104.8 311.6 135.9 473 83.4 189.2-61.6 324.9-225.7 349.9-423.3 5.6-44.2 5.3-89.8-.9-134.5-11.3-80.4-44.1-163.1-89.1-224.2-2.7-3.6-4.9-7-4.7-7.5.7-2.6-1.7-7.4-4.7-9.4-1.8-1.3-4.2-4.2-5.2-6.4-1.6-3.5-2.3-4-5.5-4.3-5.2-.4-4.8-2.2.5-2.2 4-.1 4.3-.3 6.6-5.1 2.3-4.6 2.4-5.4 1.3-9.5-1.7-6.3-1.6-7.2 1.9-11.6 2.9-3.6 3.1-4.4 2.6-9.1-.6-5.9-2.5-10.7-4.1-10.7-.7 0-2.9-.9-5.1-2-5.1-2.6-5.3-2.6-9 1-2.8 2.7-3.4 2.9-6.2 1.9-2.2-.7-4.2-.7-7 0-2.1.6-5 1.1-6.5 1.1-2.7 0-2.8-.2-2.8-4.6v-4.6l-3.2.7c-1.8.4-4.3 1.3-5.5 2.1-1.9 1.2-2.6 1.1-5.2-.3-2.6-1.5-3.4-1.6-6.5-.5-3.5 1.3-6.1.9-5.1-.8 1.1-1.7-26.4-25-47.1-39.8C735.9 42.8 649.7 10.8 558 2 546.5.9 494.9-.1 485.5.6zM872.1 161c1.2 1.7 1.9 1.8 5.4 1 3.3-.8 4.8-.5 8.7 1.2 4.4 2 4.7 2.4 5.3 6.7.8 6 1.6 7.2 5.7 8.5 3 1 3.3 1.5 3.6 5.3.2 2.4 0 4.3-.5 4.3-2-.1-3.2-1.8-3.5-4.9l-.3-3.5-3.2 3.2c-1.7 1.8-3.6 3.2-4.1 3.2-.4 0-2.9-1.4-5.4-3-4.5-3-4.8-3-10.9-2.1-5.3.9-6.6.8-8-.5-.9-.8-3.8-1.8-6.4-2.2-4.7-.7-4.7-.7-7-6.9l-2.2-6.2 2.9-1.2c1.6-.6 3.3-2 3.9-3 .8-1.6 2.2-1.9 7.8-1.9 5.7 0 7.1.3 8.2 2zm-22 38.9c2.8 1.1 5.9 2.7 7 3.6 1.6 1.6 2.1 1.6 4.9.2 2.1-1.1 5.1-1.5 9.5-1.2 7.5.4 8.3.8 9.6 4.2.5 1.5 1.5 2.3 2.3 2 4.8-1.8 10.3-1.7 14.9.3 2.6 1.1 4.7 2.6 4.7 3.3-.1.7-1.1 3.2-2.3 5.7-3.3 6.6-14.1 12.2-17.4 8.9-.7-.7-1.7-.8-2.9-.1-2.1 1-15.9.9-18.6-.1-1-.4-2.5-.9-3.4-1.2-.8-.3-2.4-2.5-3.5-5-1.6-3.6-2.9-5-6.7-6.8l-4.7-2.2-.3-6.8c-.2-4.1.1-6.7.7-6.7s3.4.9 6.2 1.9zm74.5 15.9c-.4.3-1.1.1-1.8-.6-.8-.8-.8-1.5.3-2.8 1.3-1.6 1.4-1.6 1.7.5.2 1.3.1 2.5-.2 2.9zM212 413.4c0 .2-.9.6-2 .9-1.1.3-1.8.1-1.4-.4.5-.9 3.4-1.3 3.4-.5zm102.1 92.9c-1 .9-1.1.8-.5-.6.3-1 .9-1.5 1.2-1.2.3.3 0 1.1-.7 1.8zM197 586c0 .5-.2 1-.4 1-.3 0-.8-.5-1.1-1-.3-.6-.1-1 .4-1 .6 0 1.1.4 1.1 1zm-13.5 21c.3.5.2 1-.4 1-.5 0-1.3-.5-1.6-1-.3-.6-.2-1 .4-1 .5 0 1.3.4 1.6 1zm613.2 35.2c-.3.8-.6.5-.6-.6-.1-1.1.2-1.7.5-1.3.3.3.4 1.2.1 1.9zm8.8 164.2c-.8 9.7-1.5 18.7-1.6 19.9 0 2.1-.1 2.1-.9.2-.5-1.3-.7-.2-.3 3 .6 6.1-2.9 34.7-6.3 50.9-4.9 23.2-12.6 42.1-23.3 57.3-4.5 6.3-6.1 7.7-14.2 12.3-22.9 12.9-65.2 32.2-70.6 32.2-1.2 0-2 .4-1.8.8.7 1.1-2.7 1.8-12.5 2.5-4.7.3-11.4.8-15 1.1-5.3.4-6.1.2-4.5-.7 25.8-15.3 44.8-29.4 64.5-47.8l5.5-5.1-7.5 3.4c-4.1 1.9-8.6 3.8-10 4.1l-2.5.7 2.5-1.9c1.4-1 4.4-2.7 6.8-3.8 2.3-1 4-2 3.8-2.2-.2-.3-1.9.3-3.8 1.3-2.3 1.2.1-1.8 8.7-10.7 14.7-15.1 22.9-25.4 34.5-42.6 4.9-7.2 9.2-12.8 9.6-12.5.4.4.4.1-.1-.7-.4-.7-.4-1.6.1-2 .5-.3 1.7-2.2 2.6-4.1 1.7-3.4 1.7-3.4 1.1-.5-.3 1.6-2.1 7.6-3.8 13.2-1.8 5.7-3.1 10.3-3 10.3.4 0 12.9-21 16.7-28 3.9-7.4 12.4-26.3 16.1-36 3.4-9.1 9.7-29.4 9.7-31.6 0-.9.2-1.5.5-1.2.3.3-.1 8.5-1 18.2z"/><path d="M874.4 207c-1.2.4-2.4 1.6-2.8 2.5-.5 1.3-.2 1.5 1.7.9 2.1-.7 3.7-2.1 3.7-3.7 0-.8.1-.8-2.6.3zM804.1 804.6c0 1.1.3 1.4.6.6.3-.7.2-1.6-.1-1.9-.3-.4-.6.2-.5 1.3zM803.1 814.6c0 1.1.3 1.4.6.6.3-.7.2-1.6-.1-1.9-.3-.4-.6.2-.5 1.3zM801.1 836.6c0 1.1.3 1.4.6.6.3-.7.2-1.6-.1-1.9-.3-.4-.6.2-.5 1.3zM758.6 888.5c-.9 2.6-.7 3.2.5 1.2.6-1 .9-2.1.6-2.3-.2-.3-.7.2-1.1 1.1zM723.7 929.4c-4.8 2.9-6.1 4.3-2.2 2.3 3.1-1.6 7.4-4.6 6.5-4.6-.3 0-2.2 1-4.3 2.3zM677.8 983.7c.7.3 1.6.2 1.9-.1.4-.3-.2-.6-1.3-.5-1.1 0-1.4.3-.6.6zM663.3 984.7c.9.2 2.3.2 3 0 .6-.3-.1-.5-1.8-.5-1.6 0-2.2.2-1.2.5zM721.2 88.2c-.7.7-1.2 2.2-1.2 3.5 0 1.8-.6 2.3-2.4 2.3-1.7 0-3.4 1.2-5.1 3.4-1.4 1.9-3.7 3.7-5 4-3.1.8-3.4 4.8-.7 6.8 1.3.9 2.1 3.1 2.5 7.4.4 3.3.9 6.7 1.2 7.5.8 2 6.2 3.9 11.2 3.9 2.3 0 4.3.5 4.5 1 .2.6 3.2 1.5 6.8 2.1 6.2 1 6.6.9 8-1.3 1.8-2.8 5.9-6.9 8.5-8.5 2-1.2 1.9-1.2-.4-3.1-2-1.7-2.2-2.2-1.1-4.2 2.6-4.9 3.1-8.3 1.3-10.2-.9-1-2.2-1.8-3-1.8-.8 0-1.3-1.2-1.3-3.4 0-4-1.3-5.2-8.8-8.3-6.2-2.5-13.1-3-15-1.1zM260 95c-1.4.4-6 .8-10.4.9l-7.9.1.8 4.7c.9 6.3.9 10 0 14.5l-.8 3.8h11.5c10.3 0 12-.3 16.2-2.5 5.7-3 7.7-3.1 9.4-.5.7 1.1 2.1 2 3.1 2 1.5 0 2 1 2.5 4.7.9 6.6 1 11 .1 16.4-.7 4.2-.4 5 2.4 8.9 3.1 4.2 3.1 4.4 1.2 6.1-1.2 1.1-2.3 4.4-3.1 9-1.2 7-1.2 7.3 1.1 8.9 2.1 1.6 2.1 2 .9 4.9-1 2.6-1 4-.1 6.9 1 3.1 1 4.3-.5 7.7-1 2.4-1.9 7.8-2.2 13.7-.4 8.7-.2 9.9 1.7 12.6l2.1 3-3.1 1.2c-1.6.7-3.6 2.1-4.3 3.2-1 1.4-2 1.7-4 1.2-1.8-.4-3.9 0-6.2 1.2l-3.5 1.9-2-2.5-1.9-2.5-1.8 2.4c-1.8 2.2-2.2 2.3-6.8 1.3-2.7-.6-5.1-.9-5.3-.7-.2.3.6 2.6 1.7 5.2l2 4.8-3.4 1.3c-2.5 1-3.4 2-3.4 3.7 0 4.8 18.1 12.4 20.5 8.5.3-.6 2.4-1 4.6-1 2.8 0 3.9-.4 3.9-1.5 0-1.2 1.4-1.5 6.5-1.5s6.5.3 6.5 1.5c0 1.1 1.1 1.5 4 1.5 2.7 0 4.3-.5 4.6-1.5.7-1.8 4.9-1.9 14.4-.4 4.6.8 8.1.9 10.7.2 2.7-.7 4.6-.6 6.8.3 1.7.8 7.2 1.3 13.1 1.4 9.2 0 10.2-.2 12.2-2.3 3.3-3.5 3-9.1-.8-13.4l-3.1-3.4 3.1-2.9c4.9-4.6 3.8-6.1-2.7-3.8-2.5.9-3.9.9-5.1.1-1-.6-5.1-1.6-9.2-2.3-7-1.2-7.5-1.1-9 .8-.9 1.1-3.2 2.3-5.1 2.7-1.9.4-4.6 1.4-6.1 2.1-1.5.8-2.9 1.4-3.1 1.4-1.1 0-1.8-11.3-.8-12.3.6-.6 1.1-2.1 1.1-3.4 0-1.2.5-3.3 1.1-4.7 1-2.1.7-3.2-2.1-8.1-2.8-5-3.1-5.9-1.7-6.6 1.3-.8 1.5-3.3 1.2-17-.1-8.9 0-17.3.4-18.7.4-1.5-.1-5.5-1.2-9.6-2.9-11.1-3-12.2-1.3-14.9.9-1.4 2.1-4.8 2.5-7.7.8-4.7.6-5.3-1.5-6.7-2.1-1.3-2.4-2.3-2.4-7.9 0-4.5-.6-7.7-2.2-10.9-2.2-4.5-2.2-4.5-7.5-4.5-3.1 0-5.3-.4-5.3-1.1 0-1.1-12-.7-19.1.6-2.3.4-3.9.3-4.3-.4-.8-1.2-5.9-1.3-9.6-.1zM427.8 128.5c-.3.4-3.7 1-7.4 1.3-6.3.6-7 1-8.9 3.9-1.8 2.9-2.5 3.2-6.7 3.3-3.5 0-4.8.4-4.8 1.4 0 .8-.9 1.7-1.9 2.1-1.1.3-2.3 1.5-2.6 2.6-.4 1.2-1.5 1.9-3.1 1.9-2.2 0-2.4.4-2.4 4.4 0 3.6-.5 4.7-2.5 6-2.9 1.9-3.1 3.9-1 8 .8 1.5 1.5 5.1 1.5 7.8 0 3.8.8 6.4 3.1 10.4 2.5 4.4 2.7 5.4 1.4 5.4-.9 0-3.4 1.4-5.6 3.2-2.9 2.3-3.9 3.9-3.9 6 0 1.5-.4 2.8-.9 2.8-.4 0-1.9 2-3.2 4.5l-2.4 4.6 2.5 1.9c2.1 1.6 2.3 2.1 1.2 4.4-.9 2.1-.9 3.8.2 7.9 2 7.6 7.1 17.2 10.3 19.5 4.5 3.1 12.8 4.5 16.5 2.8 1.2-.5 1.8-.1 2.3 1.6 1.3 4.1 2.3 4.8 5.6 3.6 2.2-.7 3.8-.7 6.2.3 1.7.7 5.5 1.3 8.4 1.3 4.1 0 5.7-.5 7.8-2.4 1.4-1.3 2.5-2.9 2.5-3.7 0-.9 1.2-.7 4.4.9l4.5 2.1 2.9-3.1c3.5-3.8 5.4-4 7.5-1l1.5 2.3 3-2.2c2.9-2.1 3.1-2.2 3.7-.4 1.3 4.3 5 6.2 12.1 6.5 3.8.2 7.9-.1 9.2-.6 1.4-.5 3.1-.4 4.3.3 3.1 1.6 5.9.2 5.8-2.9 0-1.5-.4-3.6-.8-4.7-.6-1.5-.2-2.6 1.5-4.2 2-1.8 2.4-3.2 2.4-8.2 0-5.8.1-6 3-6.6 1.7-.4 3-1 3-1.4 0-.3-1.6-3.7-3.6-7.4-4.9-9.3-10.9-12.4-13.7-7.1l-1.4 2.7-3.7-4.9-3.8-4.9 2.7-.3c3.6-.5 4.2-2.8 1.6-6.2-2.5-3.4-2.6-4.8-.6-7.4 1-1.3 1.5-4.4 1.5-9.3 0-6.5-.3-7.7-2.5-9.9s-2.5-3.3-2.5-10.4c0-7.6-.1-7.9-3-10-1.6-1.1-4.2-2.5-5.7-3.1-1.5-.5-4-2.7-5.5-4.9-4.3-6.1-10.3-8.6-23.3-9.3-6.1-.4-12.1-.9-13.5-1.2-1.4-.4-2.8-.4-3.2 0zm9.1 27.4c.8.5 2.8.5 4.9-.1 2.4-.7 5.5-.6 9.6.2l6.2 1.1 1.1 4.9c.8 3.5.9 6 .1 8.7l-1 3.7-1.8-2.2c-1-1.2-2-2.7-2.2-3.3-.3-.8-1.4-.6-3.5.5-4.3 2.2-7 2-7.6-.4-.7-2.7-3.3-2.5-4.8.2-2.5 4.7-6.8 5.7-9.4 2.1-.8-1-1.8-1.1-4.3-.4l-3.3 1 .6-4.7c1.3-10.6 1.5-11.1 3.8-11.5 4-.8 10.2-.7 11.6.2zm21.9 43.6c.6.6.6 3.2 0 7.1l-1 6.2-8.2 2.1c-9.8 2.6-9.1 2.6-12.7 0l-2.9-2v9.2l-9.2-.3-9.3-.3-.3-4.5c-.2-2.5-.9-5-1.7-5.6-.8-.6-1.9-2.2-2.4-3.7-.9-2.4-.7-2.8 3.6-5.1 5.2-2.9 12.2-3.4 19.8-1.4 4.1 1.1 4.7 1 6.5-.7 1.6-1.6 3.4-2 9.4-2 4.1 0 7.9.4 8.4 1zm-48.4 11.1c2.1.8 2 3.3-.1 5.6-2.3 2.5-4.2 2.2-5.4-.9-1.7-4.5.6-6.6 5.5-4.7z"/><path d="M426.6 158.6c-.7 1.7.9 4.4 2.6 4.4 1 0 .1-3.9-1.2-5.3-.4-.5-1-.1-1.4.9zM423 205c0 1 .9 2.4 2 3 1.6.8 2 .8 2-.4 0-1.3-2.5-4.6-3.6-4.6-.2 0-.4.9-.4 2zM675.2 134.4c-1.7 2-3.2 3.9-3.2 4.4 0 .5-.9 1.7-2 2.7-1.1 1-2 3-2 4.6 0 2.1.6 2.9 3 3.8 2.2.7 3 1.6 3 3.3 0 3.5 1.9 4.8 6.6 4.8 2.4 0 5.5.5 7 1 2.9 1.1 9-.4 11-2.7.6-.6 3-1.7 5.5-2.2 3.8-.9 4.7-.7 6.5 1 1.1 1 2.7 1.9 3.6 1.9 1.9 0 2.8 4.7 2.8 14.6 0 5.1-.4 7.5-1.5 8.4-2.4 2-2.8 5-1 7 1.4 1.6 1.5 2.2.3 4.7-1.9 3.9-1.5 18 .6 22.1 2 3.9 2 5.2 0 5.2-.8 0-2.8 1.4-4.3 3-2.7 3-2.9 3.1-7.5 2-2.7-.6-6.2-1.8-7.8-2.6-2.5-1.3-3.5-1.3-5.9-.4-2.7 1.2-6.2 1-10-.5-1.6-.6-3.9 3-3.9 6.4 0 1-1.8 3.2-4 5-2.2 1.7-4 3.8-4 4.5 0 .6 1.3 3.3 2.9 5.8 3 4.7 3.4 4.9 13.6 6.9 11.3 2.3 12.3 2.3 13 0 .5-1.8 1.4-2.1 5.9-2.1 4 0 5.7.5 7.1 2 2 2.2 4.3 2.5 8.9 1.1 1.7-.5 5.4-1.3 8.2-1.8 4.6-.8 5.3-.7 6.4 1 1.1 1.8 2 1.9 11.3 1.3 5.6-.3 10.8-.5 11.5-.5.6 0 3.3.1 6 .1 2.6-.1 5.8 0 7.2 0 4.7.2 8.5-.1 13.5-.9 5.7-.9 6.2-2 6.4-11.8l.1-5.9-6.2-5.9-6.2-6-1.8 2.3-1.9 2.3-5.2-2.1c-6.2-2.6-11.7-2.9-11.7-.7 0 1-1.1 1.5-3.5 1.5-1.9 0-4.6.6-6.1 1.2-2.2 1-2.8 1-3.2-.1-.2-.7-1.8-2.8-3.4-4.7l-2.9-3.3 2.1-7.7c1.1-4.2 2.7-8.9 3.5-10.4 1.4-2.7 1.3-3-1-4.7-2.3-1.6-2.4-2.1-1.5-5.5.8-2.7.8-4.4 0-5.8-.8-1.6-.8-2.5 0-3.5.7-.9.8-2.6.1-5.6-.9-3.7-.7-4.8 1.5-8.4 2.8-4.8 3.2-11.9.9-14.9-.8-1.1-1.5-2.8-1.5-3.8s-.4-1.8-1-1.8c-.5 0-1-1.5-1-3.3 0-4.8-6.8-9.7-13.3-9.7-2.7 0-4.7.5-4.9 1.2-.4 1-1.3 1-4.5 0-4.9-1.5-9-1.5-9.8-.2-.9 1.4-11.5 1.3-11.5-.1 0-.8-1.2-.9-3.7-.4-5 .9-6.2.9-10.3.1-3.2-.7-3.9-.4-6.8 2.8zM532 133.9c-.8 1.5-1.7 1.8-4.9 1.4-3.4-.5-4-.3-4.7 1.8-1.1 3.7-1.1 21 .1 22.6.9 1.1 3.6 1.5 11 1.7l10 .1 2.2 4.5c1.2 2.5 2.2 5.4 2.2 6.5.1 1.1.7 3 1.5 4 1.3 1.8 4.4 11.4 7.6 23.4.6 2.4 2.5 5.7 4.1 7.3 1.5 1.6 3.1 4.5 3.5 6.5.7 3.6 2.6 7.5 7.1 14.2 1.3 1.9 2.3 4.7 2.3 6.3 0 3.4 4.2 12.1 7.5 15.4 3.8 3.8 6.6 3.1 14.4-3.6 6.9-6 6.9-6.1 8.9-14.3 1.1-4.5 3.4-11.6 5.1-15.7 1.7-4.1 5.6-15.8 8.7-26 6.5-21.2 8.1-24.7 12.4-28.4 3.3-2.7 4.1-2.9 12.5-3l5-.1.2-9c.2-5 0-10.1-.3-11.4-.5-2.2-.8-2.3-5.5-1.7-4.1.6-5.4.3-7.6-1.4-1.4-1.1-2.9-2-3.3-2-.4 0-1.1 2.6-1.5 5.7l-.7 5.7-4.2-4.8c-3.9-4.5-4.4-4.8-7.6-4.1-2 .4-5.2 2.4-7.6 4.6l-4.1 4-8.4-3.7c-4.6-2.1-9.2-4.4-10.1-5.2-1.3-1.1-2.1-1.1-3.8-.2-1.3.7-3.7.9-5.9.5-2-.3-5.1-.6-7-.6-1.9 0-4.7-.7-6.2-1.6-2.5-1.5-2.8-1.4-7 1.4-2.4 1.7-5.3 4-6.3 5.2l-1.9 2.1-4.1-3.5c-2.3-1.9-4.9-4.2-5.8-5-2.5-2.1-6.5-1.9-7.8.4zm44.6 11.5c1 .8 1.6 1.7 1.2 2.1-1.1 1.1-4.8-.5-4.8-2.1 0-1.8 1.1-1.8 3.6 0zm-34.8 1.4c.2.7-.5 1.2-1.7 1.2-1.4 0-1.9-.5-1.4-1.5.6-1.7 2.5-1.5 3.1.3zm47 3.1c.3 1.7-.2 2.1-2.2 2.1-3.1 0-4-1.3-3.2-4.7.6-2.3.8-2.4 2.9-1 1.2.8 2.3 2.4 2.5 3.6zm6.5 13.2c3.1 3.1 5.7 6.4 5.7 7.4s-1.3 2.2-3.1 2.8c-3 1.2-3.1 1.3-2.5 6.2.4 3.5.1 5.7-.8 7-.7 1.1-1.6 4.5-1.8 7.5-.6 6.5-2.4 11.4-3.8 10.5-.5-.3-1-2.1-1-4 0-2.8-.5-3.5-2.9-4.3-4.1-1.4-7.8-7.5-11.6-18.9-1.8-5.4-3.6-10.6-4-11.5-.5-1.4 0-1.7 3.2-2 2.9-.2 3.9-.8 4.1-2.3.2-1.1.5-2.5.6-3 .2-.6 3-1 6.2-1 5.9 0 6 .1 11.7 5.6zM584 204.5c0 .8-.4 1.5-1 1.5-.5 0-1-.7-1-1.5s.5-1.5 1-1.5c.6 0 1 .7 1 1.5zM149 151.7c-21.5 21.7-22.1 22.5-21.2 28.5l.7 4.6 22.4-23 22.5-23-2.5-1.9c-1.3-1-3-1.9-3.8-1.9-.8 0-8.9 7.5-18.1 16.7zM239.6 148.1c-4.3 1.2-9.1 6.4-12.1 13.1-3.8 8.5-3.3 15.1 2.1 25.6 6.6 12.6 12.8 15.3 19.4 8.3 5.2-5.4 7.5-14 6.8-25.8-.6-9.9-2.9-15.9-7.5-19.1-3.9-2.6-5.4-3-8.7-2.1z"/><path d="M661.5 187.9c-2.7 1.1-10.3 8.8-12 12-.7 1.4-1.6 4.2-2 6.1-2.4 11.7-18 36.7-33.7 54-7.3 8.1-9.2 12.5-6.3 14.6 1 .7 8.1 3.4 15.9 6 7.8 2.6 19.1 6.8 25.1 9.4 6.1 2.6 12.7 5.1 14.8 5.4 8.9 1.6 22.7-6.2 22.7-12.7-.1-4-1.1-5.3-8.5-10.6-17.5-12.6-25.5-25.6-25.5-41 0-7.2.2-8.1 4.5-15.6 2.5-4.4 5.9-9.3 7.5-11 1.6-1.7 3.7-5.4 4.7-8.4l1.7-5.4-2.3-1.8c-2.5-2.1-3.5-2.2-6.6-1zM532.3 233c-1.2.5-3.8 3.4-5.8 6.5-1.9 3-5.1 8-7.1 11.1-3.5 5.5-9.6 12.1-18.3 19.8-4.8 4.3-7.5 9.6-6.5 12.9 1 3.6 5.3 8.6 8.6 10.3 4.6 2.4 10.8 1.4 22.8-3.9 5.8-2.5 16.8-6.1 24.5-8.1 22.2-5.7 24.4-7.6 17.8-15.2-2.1-2.4-9-10.4-15.3-17.8-6.4-7.4-13-14.1-14.8-15-1.8-.9-3.4-1.6-3.5-1.5-.1 0-1.2.4-2.4.9zM292.6 264.2c-.9 1.2-1.6 2.8-1.6 3.5 0 .7-.9 1.3-1.9 1.3-1.1 0-3.2 1.5-4.6 3.4-1.4 1.9-4 3.9-5.6 4.5-2.6.9-2.9 1.4-2.3 3.3.4 1.3 1.3 2.7 1.9 3.3.7.5 1.6 3.2 2 6 1.4 10.5 3.3 12.5 12 12.5 2.6 0 5.2.6 6 1.4 1.2 1.2 12.3 3.3 12.9 2.4 2.3-3.8 6.3-8.2 8.2-9 2.9-1.4 3.1-3.4.3-4.8-1.4-.8-1.7-1.5-1.1-2.3.6-.7 1.6-3.1 2.3-5.4 1.1-3.8 1-4.5-.6-6.3-1-1.1-2.4-2-3.2-2-.8 0-1.3-1.2-1.3-3.3 0-3.4-2.4-6.7-4.9-6.7-.6 0-2.9-.9-5.1-2-5.4-2.8-11.4-2.7-13.4.2zM176.2 264.6c-1.5 1-3.7 1.5-6.3 1.2-2.1-.2-3.9 0-3.9.4s-1.1 1-2.4 1.4c-1.8.4-2.7 1.7-3.6 4.7-1.5 5.6-4.5 9.6-6 8.1-.8-.8-.4-2 1.5-4.3 2.1-2.4 2.5-3.8 2.1-5.7-.6-2.3-1-2.5-4-2-2.4.5-4.8 0-8.6-1.8-4.8-2.2-5.7-2.4-8.5-1.2-2.6 1.1-3.6 1.1-5.5.1-1.6-.9-3.3-1-5.4-.3-1.7.5-9.4.8-17.1.6-9.8-.1-14.7.2-16.3 1.1-5.3 2.9-7.8 11.6-5 17.6 1.8 3.9 5.7 5.5 13.5 5.5h6.9l3.2 5.3c2.8 4.7 3.1 5.8 2.5 10.6-.4 3.7-.2 5.5.6 6.1.7.4 2.1 5.2 3.2 10.6 1 5.4 2.8 12.5 4 15.8 1.1 3.2 1.8 6.7 1.5 7.9-.3 1.1.3 4.1 1.4 6.6 1 2.5 2.4 8.4 3 13 .6 4.6 2.1 11.3 3.2 15 1.2 3.6 2 7.9 1.9 9.4-.2 1.5.4 3.8 1.2 5 .7 1.2 1.7 5.1 2 8.7 1.3 12.7 9.7 23.5 18.2 23.2 9.8-.4 18.5-11.3 18.5-23.2 0-4.8.4-6.2 1.7-6.7.9-.4 1.9-.1 2.1.5.2.7.8 1.2 1.4 1.2.6 0 .7-2.2.3-6-.7-6.4.9-11 4-11 2.2 0 1.8-2.6-.5-4.3-2-1.4-2-1.4 0-5.2 1.3-2.6 2-5.9 2-9.6 0-3.9.6-6.4 1.8-8 1-1.3 2.9-6 4.2-10.4 1.2-4.4 3.1-10 4.2-12.4 1-2.4 2.1-6.5 2.3-9 .2-2.5 2-10 3.8-16.6 2.9-10.1 3.7-12 5.3-11.8 1 .1 4 .5 6.5.8 4.3.6 4.8.4 9.6-3.9 8.9-8.1 9.5-14.1 1.8-21.6-4.2-4.1-4.9-4.4-11.6-5.1-4.8-.6-7.9-.4-9.3.3-2.8 1.5-14.6 1-17.3-.8-2.9-1.8-5.3-1.8-8.1.2zM169 274c0 .5-.4 1-1 1-.5 0-1-.5-1-1 0-.6.5-1 1-1 .6 0 1 .4 1 1zm1.2 19.1c1.7-1.1 2.3-1 3.6.3 1.3 1.3 1.3 1.7 0 3.8-.9 1.5-1.3 3.8-1 6.6.4 3.8 0 4.7-3.3 8.3-2.5 2.8-3.4 4.6-3 5.7 1.8 4.3 1.3 4.7-6.5 5-11.2.3-12 .6-12 4.5 0 2.3.8 4.1 2.5 5.7 1.3 1.2 3.2 4.5 4.1 7.2 1.1 3.4 2.3 5.2 4 5.8 2.9 1.2 3 2.9.3 8.2-1.1 2.2-1.9 4.8-1.6 5.8.9 3.3-.8 4.5-4.2 3-1.7-.7-3.1-1.4-3.1-1.5 0-2.8-3.8-18.5-5.6-23.3-2.2-5.9-2.3-6.7-.9-8.2 2.1-2.4 1-6.8-2.1-8.2-2-.9-2.4-1.9-2.4-5.3 0-3.5.4-4.4 2.5-5.3 3.2-1.5 3.2-3.2-.1-6.3-4.4-4.1-8.6-9.8-7.9-10.8.4-.7 1.5-.6 3.3.1 1.5.6 5.5 1 8.9.9 3.4-.1 7.1.3 8.2.8 1.6.9 2.5.6 4.7-1.2 2.4-2.1 3.2-2.3 6.2-1.4 2.5.8 3.9.8 5.4-.2zm-7.9 37c4 1.1 5 3.6 2.3 5.8-2.3 1.9-7.6-1.2-7.6-4.4 0-2.8.1-2.9 5.3-1.4z"/><path d="M148.1 298.3c-3.9 2-5 4.5-2.7 6.3 2.7 2 3 1.9 4.9-2.1 2.7-5.7 2.2-6.5-2.2-4.2zM363.5 268.3c-9.2 4.5-15.2 12.7-17.9 24.7-2.9 12.8-4.8 43-2.7 43 .5 0 1.2 2.5 1.6 5.5.3 3 1.1 5.7 1.6 6 .5.4.9 1.5.9 2.6 0 1 .4 1.9.8 1.9s1.4 1.6 2.1 3.5c1.8 5.2 5.8 8.8 13.4 12.4 7.4 3.4 14.7 4.2 14.7 1.6 0-.8.3-1.5.8-1.5 1 0 .7-8.6-.6-13.5-3.4-12.8-4.3-18-3.3-18.3.7-.2.8-2.4.5-6-.9-8.2 1.5-16.6 8.8-30.6 5.2-10.4 6.1-12.8 6.2-17.7.1-6.5-1.9-9.6-8.7-13.1-6.2-3.1-12.4-3.3-18.2-.5zM793 270.4c-15.9 4.3-25 9.9-25 15.4 0 7.6 16 21.2 25.2 21.2 4.5 0 10.4-3.1 17.2-9.1 6.9-6.2 10.6-11.7 10.6-15.8 0-4.2-5.3-9.2-11.9-11.4-6.2-2-9.8-2-16.1-.3zM429.8 275.8c-4.1 4.3-4.6 5.5-5.3 11-.6 5.3-.4 6.5 1.4 9.1l2.1 2.9-2.2 1.4c-1.9 1.3-2 1.8-1 4.6 1 2.9.9 3.2-.8 3.2-1 0-2.5.9-3.2 1.9-1 1.4-1.8 1.7-2.8 1-2.7-1.6-5.4-1-8.5 2.1-2.8 2.7-3.3 2.9-6.8 1.9-4.6-1.2-5.4-.8-6.7 3.9-.6 2.3-2.2 4.7-4 6-4.7 3.5-4.2 7.5 1.4 11.1 4.2 2.6 4.8 2.7 9.4 1.8 4.4-.9 5.2-.8 7.7 1.1 2.2 1.7 4.1 2.2 9.3 2.2h6.4l-.8 6.7c-.8 6.2-.9 10.4-.5 17.3.1 2.4.2 4.3.1 9.2 0 1.3-.3 4.7-.6 7.5-.4 3.6-.2 5.3.5 5.3s1.1 2.5 1.1 6.5c0 3.7.4 6.5 1 6.5s1 2.4 1 5.4c0 5.2.1 5.5 2.9 6.1 1.9.4 4.2 2.2 6.3 5 2.3 3.1 4 4.4 5.8 4.5 1.6 0 3.5 1.2 5.3 3.5 2.7 3.4 2.9 3.5 10.2 3.5 4.3 0 7.5-.4 7.5-1s2.4-1 5.3-1.1h5.2l3.8-5.9c2.6-4.1 4.9-6.4 7.7-7.7 3.7-1.7 4-2.1 4-6 0-3.5.5-4.5 3-6.3 3.7-2.6 4.2-7.5 1-8.5-1.1-.4-1.8-1-1.5-1.5.3-.5.9-3 1.4-5.6.8-4.2.7-4.9-1.5-7.1-1.3-1.3-2.4-3.3-2.4-4.4 0-5.6-4.5-7.6-9.1-4.1-1.3 1-3.9 2.4-5.7 3.2-1.8.7-3.7 2.1-4.3 3.1-.7 1.5-2.1 1.9-6 1.9-5.5 0-6.9 1.5-5.2 5.3 1.9 4 3 9.2 2.9 13.2-.1 3.7-.4 4-3.6 4.6-1.9.4-3.6.6-3.7.5-.1-.1.2-1.9.8-4 .9-3.2.8-4-.8-5.2-1-.8-2.9-1.7-4.1-2-2.2-.6-2.3-1.1-1.8-4.8 1.4-10.2 1-16.3-1.3-19.2l-2.2-2.8 2.6-1.4c1.9-.9 2.5-1.8 2-3-1.2-3-2.8-15.1-2.1-16.7.3-.8 1.5-1.5 2.6-1.5 1.4 0 2.4-1 3.2-3 .8-2.5 1.4-2.9 3.2-2.4 1.1.4 4.3 1.3 7 2 2.6.7 5.5 1.9 6.5 2.7 1.8 1.6 3.7 1.3 6.6-1.3 1.1-1 3.6-2.1 5.5-2.5 1.9-.4 4.8-1.4 6.3-2.2 3.3-1.7 3-4.5-.9-8-2-1.8-2.4-3.2-2.4-7.6 0-3.4-.5-5.9-1.4-6.6-3.7-3.1-19.7-2.1-23.8 1.6-1.5 1.3-2.4 1.3-8.3-.7-5.5-1.8-6.5-2.5-6-4.1.3-1 .8-2.9 1.1-4 .3-1.2 0-3.2-.7-4.5-1.1-2.1-.9-3.5 1.3-10.2l2.6-7.7-2.4-2.3c-1.4-1.2-3.3-2.2-4.3-2.2-.9 0-2.7-1.4-3.9-3-3.4-4.6-6.9-4.1-12.4 1.8zM857.8 303.5c-.3.4-3.7 1-7.4 1.3-6.3.6-7 1-8.9 3.9-1.8 2.9-2.5 3.2-6.7 3.3-3.5 0-4.8.4-4.8 1.4 0 .8-.8 1.7-1.8 2.1-1.1.3-2.4 1.7-3 3-.8 1.7-2 2.5-3.7 2.5-2.3 0-2.5.4-2.5 4.3 0 3.1-.5 4.5-2 5.5-2.4 1.4-2.6 5-.5 7.8.8 1.1 1.4 4.2 1.5 7.6 0 4.5.6 6.8 3 10.8 1.9 3.2 2.5 5 1.7 5-2.7 0-9.7 6.4-9.7 8.8 0 1.3-1.1 3.7-2.5 5.4-2.7 3.2-4.4 8-2.9 8.5 2.9 1 3.5 2 2.5 4.7-1.3 3.3.4 10.5 4.5 19.1 3.2 6.5 5.6 9.1 9.4 10.1 1.4.4 3.7 1.3 5.2 2 2.2 1.2 3.2 1.1 6.1-.1 3.4-1.4 3.5-1.3 4.1.8 1.1 4.3 2 4.8 5.4 3.6 2.5-.9 4-.7 7.7.6 6.3 2.5 12.2 1.5 15.8-2.5l2.7-3 3.9 1.9 3.8 2 3.1-3.5c3.4-3.8 5.8-4.3 6.7-1.4.8 2.4 2.3 2.5 5.3.4 1.3-.9 2.4-1.4 2.6-1.3.1.2 1.4 2 2.9 3.9l2.6 3.5 8.3-.2c4.6-.1 9-.3 9.8-.4.8-.1 2.6.1 4 .5 4.3 1.1 5.5-.6 4.4-5.7-1-4-.9-4.6 1.3-6.5 1.9-1.7 2.3-3 2.3-8 0-5.9.1-6.1 3-6.7 1.7-.4 3-.9 3-1.1 0-.2-1.5-3.5-3.4-7.2-2.6-5.2-4.2-7.1-7-8.5-4.8-2.3-5.4-2.2-6.8.9l-1.2 2.7-3.8-4.4-3.7-4.3 2.9-1.3c3.5-1.4 3.8-3.1 1-6.6-2.2-2.7-2.5-4.8-1.1-6.3.5-.5 1.1-4.9 1.2-9.8.3-8.1.1-9-1.9-10.6-1.9-1.6-2.2-2.8-2.2-9.2 0-8.3-1.2-10.3-8.1-13.2-1.9-.8-4.7-3.2-6.2-5.3-4.4-6.3-11.1-9-24.2-9.7-6-.3-11.9-.8-13-1.1-1.1-.3-2.3-.3-2.7 0zm8.6 27.4c1.5.6 3.7.6 5.8 0 3.8-1 14.8.7 15.2 2.5.2.6.8 2.7 1.4 4.6.8 2.5.9 4.6.1 7.4-1 3.7-1.1 3.7-3 2-1-.9-1.9-2.4-1.9-3.2 0-1-.5-1.2-1.7-.7-7.5 3.2-8.8 3.4-9.1 1.4-.2-1.3-1.2-1.9-2.8-1.9-1.3 0-2.4.4-2.4 1 0 1.5-3.8 5-5.5 5-.8 0-2.4-.9-3.5-2-1.6-1.6-2.4-1.8-4.6-1-1.5.6-2.8.9-3.1.7-.2-.2 0-3.5.4-7.3.7-5.9 1.1-7 3.3-8.1 3-1.5 7.9-1.7 11.4-.4zm22.3 43.3c.7.9.7 3.4 0 7.6-1 5.5-1.4 6.3-3.6 6.8-1.5.3-5.3 1.3-8.7 2.3-5.9 1.7-6.2 1.7-8.4-.1-3.6-2.9-5-2.3-5 2.2v4h-8.3c-5.1 0-8.8-.5-9.5-1.2-.7-.7-1.2-3-1.2-5.1 0-2.2-.6-4.5-1.4-5.1-5.9-4.7.7-9.6 12.9-9.6 4 0 8.6.5 10.1 1 2.2.9 3.1.7 4.8-.9 1.6-1.5 3.4-2 6.9-1.9 2.6 0 5.1-.2 5.4-.6 1.1-1.1 5-.7 6 .6zm-46.9 12.3c.3.2-.1 1.8-.8 3.5-1.5 3.7-4.6 4-6.2.6-1.7-3.9-.4-6 3.4-5.2 1.7.3 3.4.8 3.6 1.1z"/><path d="M856.5 333.3c-.5 1.2-.2 2.4.8 3.5 2.3 2.2 2.8 1.3 1.2-2.3-1.1-2.6-1.4-2.8-2-1.2zM852.7 380c.7 2.5 4.3 4.8 4.3 2.7 0-1.3-3-4.7-4.2-4.7-.4 0-.4.9-.1 2zM721.5 305c-1.1.5-4 .9-6.4.9-3.9.1-5 .6-8.7 4.5-3.4 3.6-5.5 4.8-11.4 6.5-4 1.1-7.3 2.1-7.5 2.3-4.8 6.4-8.5 13.3-8.5 15.9 0 2.1-1 4.3-3.1 6.7-2.5 2.8-3 4-2.5 6.6.5 2.4.1 3.6-1.4 4.9-1.7 1.4-2 2.9-2 9.3 0 4.1.5 8.4 1.1 9.5.7 1.5.7 3.5-.1 7.2-1.1 5.2-1.1 5.2 2.1 7.8 2.7 2.2 3 2.8 2 4.7-1.8 3.3-1.4 3.9 4.3 7.4 4.3 2.6 5.6 4 6.1 6.5.3 1.8 1.7 4.6 3.1 6.3 2.2 2.5 3.3 3 7 3 4.1 0 4.5.3 6.1 3.7 1.6 3.3 2.5 3.8 9.1 5.7 5 1.4 7.2 2.5 7.2 3.6 0 .9.6 2.5 1.4 3.5 1.3 1.8 1.5 1.8 4.6-1.3 2.9-2.9 3.7-3.2 9.6-3.2 5.5 0 6.9-.4 8.9-2.4 1.5-1.5 2.8-2 3.7-1.5 2.7 1.8 5.7.9 7.5-2.1 1.9-3.3 2.1-3.4 4.3-2 2 1.3 8-4.5 8-7.7 0-1.6 1-3 2.8-4 1.6-.9 3.6-2.9 4.5-4.5 1.1-1.9 2.4-2.8 4.2-2.8 1.4 0 2.5-.6 2.6-1.3 0-.6.4-3.5.8-6.2.8-4.3.5-5.7-1.5-9.8-1.4-2.6-2.6-4.7-2.9-4.7-.2 0-1.3.9-2.3 2.1-1.8 1.9-2.4 2-8.2.9l-6.3-1.1-3.6 3.5c-2.6 2.5-4.6 3.6-6.7 3.6-1.7 0-4.9.9-7.2 2-2.2 1.1-4.5 2-5.1 2-.5 0-1.1 1-1.3 2.2-.2 1.8-1.3 2.5-5.5 3.4l-5.1 1.1-1.1-4.3c-.7-2.6-1.7-4.4-2.5-4.4-1.2 0-1.3.7-.5 3.2 1.5 5.5 1.4 5.6-4.3 4.3-3.7-.8-5.4-1.7-6.1-3.3-.7-1.5-1.9-2.2-3.9-2.2-1.9 0-3.1-.6-3.4-1.8-.3-.9-1-2.5-1.5-3.5-.6-1-.7-2.7-.4-3.7.3-1-.1-3.5-1-5.6-.8-2-1.4-3.9-1.2-4 .2-.2 2 .6 4.2 1.7 3.6 2 6.7 2.1 12.5.3 1.1-.3 2 .7 2.8 3 .9 2.4 2.2 3.8 4.3 4.5 4 1.4 4.8.8 5.5-4 .6-3.6.9-4 2.8-3.3 2.9.9 7.7 1 10.2.1 1.9-.7 2.3-.2 3.3 3.8 1.1 4.2 1.4 4.6 3.9 4.3 2.2-.2 2.9-1 3.7-4.4 1-4 1-4 4.4-3.2 3.9 1.1 10-.2 17.4-3.5 4.3-2 5.1-2.8 7.3-8.2 2.9-7.3 2.9-8 .4-13.3-1.1-2.2-2-4.8-2-5.6 0-.8-1.6-2-3.5-2.6-3.2-1-3.6-1.7-5.7-8.7-2.1-6.8-2.7-7.7-5.5-8.7-1.8-.6-4.9-3.3-7.3-6.4-3.9-4.8-4.5-5.2-8.5-5.2-3.8 0-4.6-.4-6.4-3.3-1.6-2.7-3.1-3.6-7.1-4.5-5.9-1.4-11.6-1.4-14.5-.2zm12.5 28.7c0 .5.4 1.4.9 2.1.7 1.2 1.2 1.2 2.9.1 1.9-1.2 2.5-1 5.2 1.6 3.2 3.1 3.9 7 2.1 11.8-.9 2.3-1.3 2.4-4.8 1.6-2.1-.5-5.9-.9-8.6-.9-4.1 0-4.9-.3-5.9-2.5-.6-1.4-1.4-2.5-1.7-2.5-.3 0-1.9 1.6-3.4 3.5-1.8 2.3-3.5 3.4-4.5 3.1-.9-.2-4.3-.7-7.4-1.1l-5.8-.6v-4.4c0-5 1.7-6.1 7.6-5 3.2.6 3.6.4 4.5-2.4.6-1.7 1.3-3.1 1.5-3.1.2 0 2.6.9 5.4 2l5.1 2 1-3c.8-2.2 1.7-3 3.5-3 1.3 0 2.4.3 2.4.7z"/><path d="M733 344.3c0 .7 1.6 1.9 3.6 2.5 3.3 1 3.5.9 3.2-1.1-.2-1.7-1.1-2.3-3.5-2.5-2.3-.2-3.3.1-3.3 1.1zM557.8 306.7c-1.1 1.5-2.7 1.8-9.8 1.6-4.7-.1-9.9-.4-11.6-.8-3-.7-3.2-.5-5 3.9-1.1 2.5-2.6 4.8-3.5 5.1-2.4.8-5.7 4.7-6.4 7.5-.5 2.2-.2 2.7 2.8 3.8 1.8.7 4.8 1.2 6.5 1.2 2.1 0 3.2.5 3.2 1.4 0 1.7 10.9 3 17.2 2.1l4.4-.7 1.2 3.9c1.4 5 2.5 11.2 2.4 14.3-.2 4.5-1.4 11.5-2.2 12-.3.3-1.2 4.3-1.8 8.9-1.1 8.1-1.1 8.6.9 10.7 1.7 1.8 1.9 2.6.9 4.3-.8 1.5-.8 3.2 0 5.9 1.4 5.3 1.5 5.2-3.9 5.2-3.6 0-5.1-.4-5.5-1.6-.5-1.3-1.5-1.5-4.9-1-2.3.4-5.2 1.3-6.3 2.1-1.4.9-3.5 1.2-5.9.8-3.6-.6-3.7-.5-3.3 2.3.2 1.6 1.2 3.3 2.3 3.9 1.8.9 1.9 1.5 1.1 4.7-.7 2.9-1.5 3.8-3.1 3.8-2.7 0-4.5 1.8-4.5 4.6 0 2.9 1.6 4.1 7.3 5.4 2.6.5 5.6 1.9 6.7 3 2.6 2.6 6.2 2.6 8.5 0 1.3-1.4 3.1-2 6.2-2 2.5 0 4.3-.5 4.3-1.1 0-1.4 5.9-.4 10.6 1.8 3.2 1.6 3.7 1.6 8.7-.5 6.4-2.7 8.5-2.7 11.7-.2 1.4 1.1 3.6 2 5 2s3.6-.9 5-2c1.6-1.2 4.1-2 6.7-2 5.1 0 13.3-3.7 13.3-6.1 0-3.5-2.2-7.5-5.3-9.4-2.8-1.8-3.4-2.9-4.4-8.5-.7-3.6-1-7.1-.8-7.8.5-1.5-2.9-1.6-5.6-.2-1.5.8-1.9 2.2-1.9 6 0 5.3-.5 5.8-3.6 3.5-2.5-1.9-6.4-1.9-7.8.1-.8 1.1-2 1.3-3.9.9-2.9-.8-3.4-2.4-1.5-4.3.7-.7 1.3-5.3 1.5-11.9.2-9.6.1-10.8-1.7-12-1.5-1.1-2-2.6-2-6.3 0-4.8.2-5 3.6-6.5 4.6-1.9 4.5-5.5-.2-6.8l-3.1-.9 1-5.1c1.2-6.4 1.4-6.6 3.3-3.9 2.3 3.3 4.2 2.7 5.4-1.8 1-3.8 1.3-4 4.8-4 2 0 6-1.2 8.9-2.7l5.3-2.6 2.3 2.1c1.3 1.2 2.9 2.2 3.5 2.2 1.7 0 1.5 1.5-.4 3.1-1.8 1.5-1.4 5 1.1 10.3 1.4 2.9 1.4 3.6.1 6.8-1.2 2.8-1.3 3.8-.3 4.5 2.4 1.9 5.1 2.3 8.2 1.3 2.3-.8 4.6-.8 8 0 4.4 1 5 .9 7.1-1.1 1.3-1.3 2.4-3.3 2.4-4.5 0-1.3 1.1-3.1 2.5-4.1 7-4.9 6.7-4.3 5.5-9.9-1-4.6-.9-5.5.9-8.5 2.9-4.8 2.7-6.6-.9-7.4-2.8-.6-3-1-3-5s-.4-4.7-3.7-7c-2.1-1.4-5-2.5-6.5-2.5-3 0-6-1.4-9-4.3-2-1.9-6.8-2.3-8.5-.6-.8.8-1.7.8-3.1 0-2.6-1.4-7.2-1.4-7.2-.1 0 .6-2.7 1-6.2 1-5.6 0-6.5.3-9.4 3.1-3.1 3-3.2 3-9 2-3.2-.6-7.7-1.1-10.1-1.1-3.7 0-4.4-.4-5.8-3-1.3-2.4-2.2-3-5-3-2.1 0-3.9.7-4.7 1.7zM247.7 307.8c-1 1-1.7 2.4-1.7 3 0 .7-.4 1.2-1 1.2-1.2 0-6 8.2-6 10.3 0 .8 1.2 1.9 2.6 2.4 1.8.6 3 2 3.8 4.3 1.1 3.4 1.3 3.5 7.2 4.1 3.3.3 6.6.9 7.3 1.3 1.6 1 10.1-1.5 10.1-2.9 0-.6 2.2-1.6 4.9-2.1 4.2-.9 5.2-.7 7.1.8 1.2 1 2.7 1.8 3.4 1.8 3.4 0 4.4 20.4 1.2 23.6-1.9 1.8-2.1 5.5-.5 7.1.9.9.9 1.9.1 4-1.7 4.3-1 19.2 1.1 23 2.1 3.9 2.1 4.3.1 4.3-.8 0-2.9 1.4-4.6 3.1-2.8 2.7-3.5 3-7.2 2.3-2.3-.3-5.7-1.4-7.6-2.3-3.4-1.7-6.6-1.7-8.4-.1-.4.5-2.8.2-5.2-.5-4.9-1.5-5.4-1.1-6.8 4.9-.4 1.6-2.5 4.5-4.7 6.5l-3.9 3.6 2.9 5.1c3.1 5.3 3.5 5.6 13.1 7.4 2.5.4 6.2 1.3 8.3 1.8 3.4.9 3.9.8 5.4-1.4 1.3-2 2.3-2.4 6.9-2.4 3 0 5.4.4 5.4 1 0 .5 1.1 1.7 2.5 2.6 2.2 1.4 2.7 1.4 5.6 0 1.8-.9 4.7-1.6 6.5-1.6 1.8 0 4.4-.4 5.8-1 2.1-.8 2.7-.6 3.7 1.1 1 2 1.7 2 11.2 1.5 5.6-.3 11-.5 12-.5h6c2.3 0 5.3.1 6.7.1 4.2.2 9.3-.1 14.2-.7 4.5-.7 4.6-.8 5.7-5 1.7-6.7 1.4-11.2-1.1-14.5-1.2-1.7-2.6-3-3.1-3-1.2 0-5.7-4.8-5.7-6.1 0-1.9-2.7-.8-3.8 1.5l-1.1 2.5-6-2.5c-6.8-2.7-10.6-3.1-11.8-1-.4.7-2.4 1.6-4.3 1.9-1.9.3-4.4.8-5.5 1.2-1.6.5-2.7-.3-5.4-4.1-3.3-4.8-3.3-4.8-2.1-10.3.7-3 2.1-7.4 3.1-9.9 2.3-5.4 2.3-5.9.1-6.6-1.6-.5-1.7-2-1.7-13.4 0-10.4.4-13.4 1.8-15.5 2.4-3.7 2.2-12.2-.3-17.2-1.1-2.2-2-5.2-2-6.7 0-4.1-7.8-9.8-13.6-9.8-2.4 0-4.4.5-4.6 1.2-.3.9-1.8.9-6.2-.2-4.5-1.1-6.2-1.1-7.7-.2-2.5 1.6-11.6 1.6-12.1 0-.4-1-1.5-1-5.4 0-3.7.9-5.8 1-7.8.2-3.8-1.4-5-1.3-6.9.8zM489 314.9c0 1.2 2.9 4.1 4.1 4.1.5 0 .9-1.1.9-2.5 0-2-.5-2.5-2.5-2.5-1.4 0-2.5.4-2.5.9z"/><path d="M597.2 343.6c.2 1.5.9 2.9 1.6 3.2 1 .3 1.3-.4 1-2.4-.2-1.5-.9-2.9-1.6-3.2-1-.3-1.3.4-1 2.4zM224.4 350.4c-3.7 1.6-8.4 9.2-8.9 14.4-.2 2-1.1 5.7-1.9 8.1-1.9 5.1-2 8.1-.5 8.1.8 0 .8.4.1 1.2-.5.7-1.3 2.9-1.7 4.8l-.7 3.5 2.1-1.9c2.1-1.9 2.1-1.9 2.1.3 0 1.3-.9 2.5-2.2 3-2.2.9-2.2 1 1.2 2.4 3.3 1.4 3.5 1.4 5.5-.8 1.1-1.2 3.2-3.5 4.6-5.1 1.4-1.6 4.2-4.2 6.3-5.8 5.5-4.2 10.4-12.2 10.7-17.9.3-4-.2-5.3-3.1-9.1-1.8-2.5-4.7-5-6.3-5.6-3.6-1.2-3.5-1.2-7.3.4zM208.7 399.1c-.4 1.6-.3 1.8.9.8 1.6-1.3 1.9-2.9.5-2.9-.5 0-1.1.9-1.4 2.1zM212 400c-.5.9-.6 2-.3 2.4.3.3-.2 1.5-1.2 2.6-3.2 3.5-1.1 2.1 2.8-1.9 3.4-3.5 3.6-3.9 1.7-4.4-1.3-.3-2.4.1-3 1.3zM666 469.3c0 .2 3.2 2.5 7 5.1 3.9 2.5 7 4.4 7 4.1 0-.2-2.6-2.2-5.7-4.3-7.1-4.7-8.3-5.4-8.3-4.9zM491.5 496.7c-24.3 2.2-53.6 10.8-76.8 22.4-39.7 20-74.8 55.7-94.8 96.5-51.3 105.1-9 231.9 95.1 284.8 51.9 26.4 109.2 30.8 164 12.6 23.8-7.9 42-17.4 61.8-32.2 12.4-9.2 32.8-29.6 41.9-41.8 62.9-84.6 56.6-199.5-15.2-275.8-34.6-36.7-80.1-59.7-130.5-65.7-10.4-1.3-35.4-1.7-45.5-.8zm71.1 27.4c2.9.8 4.4 1.7 4.4 2.8 0 1.6-8.8 35.2-9.4 35.8-.2.3-10.8-2.6-11.4-3.1-.3-.3 8.8-34.7 9.5-35.9.6-1 1.6-.9 6.9.4zm-131.1 34c4.7 8.1 8.5 14.9 8.5 15.2 0 .8-8.4 5.7-9.7 5.7-1.2 0-18.5-29.4-18.7-31.8 0-.8 1.9-2.7 4.4-4.2 5.4-3.3 4.1-4.6 15.5 15.1zm96.2 20.2l15.2 20.3 10.8 4.2c18.5 7.1 37.5 21.3 49.8 37.2 14.5 18.7 23.6 44.8 23.5 67.4-.2 40.5-19 76.4-51.4 97.7l-9 5.9h-7.7c-6.9 0-7.8.2-8.4 2-.6 1.8-1.5 2-11.1 2-10.1 0-10.5-.1-9.9-2 .6-1.9.2-2-7.4-2-7.1 0-8 .2-8.6 2-.6 1.9-1.5 2-16.5 2-15.1 0-15.8.1-16.3 2.1-.7 2.7-6.4 2.4-5.9-.4.2-1.4-.5-1.7-4.3-1.7-10.7 0-33.7-15.8-47.2-32.5-16.2-20.1-24.6-42.1-26-68.1-.9-18.6 2.5-36.4 10.2-53.1 11.8-25.5 36.1-48.2 62.7-58.5l10.9-4.2 15.2-20.3c8.3-11.2 15.4-20.3 15.7-20.3.3 0 7.4 9.1 15.7 20.3zm150.8 35c1.4 2.4 2.5 4.8 2.5 5.3 0 .8-31 19.4-32.4 19.4-.3 0-1.9-2.3-3.5-5.2l-3-5.2 16.2-9.3c8.9-5.1 16.5-9.3 16.9-9.3.4 0 1.9 2 3.3 4.3zm-329.1 46.6c8.2 2.2 15 4.2 15.2 4.3.4.4-2.2 10.8-2.8 11.4-.3.3-26.7-6.5-35.9-9.3-1.5-.4-1.5-1-.1-6.2l1.5-5.8 3.7.8c1.9.4 10.2 2.6 18.4 4.8zm330.9 88.7c9.5 2.5 17.5 4.9 17.9 5.3 1 .8-2.1 11.1-3.3 11.1-.5 0-8.8-2.1-18.5-4.7-14.1-3.8-17.3-4.9-17-6.2.3-.9 1-3.5 1.6-5.9.6-2.3 1.3-4.2 1.6-4.2.3 0 8.2 2.1 17.7 4.6zm-301.8 37.7c1.4 2.4 2.5 4.9 2.5 5.5 0 .6-7.2 5.2-16.1 10.2-14.9 8.6-16.1 9.1-17.3 7.4-2.3-3.1-4.9-8.4-4.4-8.9.8-.9 31.3-18.4 32-18.5.4 0 1.9 2 3.3 4.3zm225 69.9c4.8 8.4 8.9 15.6 9.2 16 .5 1-8.5 6.1-10 5.5-1-.4-18.7-29.8-18.7-31.1 0-.8 8.4-5.6 9.7-5.6.6 0 5.1 6.9 9.8 15.2zM473.8 859c3.3.8 4.2 1.5 3.8 2.8-.3.9-2.3 8.6-4.5 17.1-2.3 8.4-4.5 15.9-4.9 16.6-.5.9-1.8.9-5.9-.3-2.9-.8-5.3-2-5.3-2.6 0-.6 2.1-8.9 4.6-18.4 3.8-14.1 5-17.2 6.3-16.8.9.3 3.5 1 5.9 1.6z"/><path d="M494 623.5c-35.5 7.6-62.6 33.3-71.6 68.2-3.2 12.1-3.6 30.5-1.1 42 6.1 27.2 23.2 50 47.2 63 15.1 8.3 38.4 12.7 54.1 10.5 38-5.5 67.8-30.6 78.3-65.8 15-50.3-14.2-102.3-65.4-116.7-9.2-2.5-32.1-3.2-41.5-1.2zm33.2 3.9c15.6 3 30.2 10.4 41.5 20.9 16.6 15.5 25.5 34.7 26.7 57.4.3 5.4.3 9 0 8-.4-1.3-1.6-1.7-5.2-1.7-5.2 0-8.3-1.3-6.7-2.8.6-.6 3.2-2.8 5.8-5.1 2.7-2.3 4.5-4.1 4.2-4.1-1.5 0-24.5 9.4-24.5 10 0 .3 5.4 2.8 12 5.5 6.6 2.6 12 4.9 12 5 0 .2-4.4.8-9.7 1.4-5.4.6-11.6 1.4-13.8 1.8l-3.9.6 3.9 3.3 4 3.4H570c-4.5 0-4.9.4-9 7.3-7.3 12.3-23.2 23.8-36.8 26.6-7.6 1.6-19.4 1.4-26.6-.5-7.7-2-17.8-7.4-23.4-12.3-4.6-4.2-4.6-4.2-14.2-1.2-5.4 1.7-5.7-.1-1-6.3 2.4-3.1 4-5.9 3.7-6.2-.3-.4-6 .2-12.7 1.1-6.7.9-12.3 1.5-12.5 1.3-.3-.2 4-3.8 9.5-7.8 9.1-6.7 11.4-9 9.3-9-.5 0-6.2-.7-12.8-1.5-14.5-1.8-13.3-1.8-13.8 0-.4 1.3-.5 1.2-.3-.1.1-1 4.3-3.3 12.8-6.7 7-2.9 12.8-5.4 12.8-5.8 0-.4-14.4-6.3-23.5-9.5-1.1-.4.6 1.4 3.8 4.1 3.1 2.6 5.7 5.1 5.7 5.6 0 1.4-5.7 3.9-8.9 3.9-1.6 0-3.2.6-3.4 1.2-1 2.4-.7-9 .4-16.9 2.5-18.5 9.9-33.2 23.4-46.9 12.9-13 26.4-20.4 43.5-23.9 8.8-1.8 22.2-1.8 31.2-.1z"/><path d="M541 658.6c0 1.4.3 1.4 1.5.4.8-.7 1.5-1.4 1.5-1.6 0-.2-.7-.4-1.5-.4s-1.5.7-1.5 1.6zM556.6 659.7c-.7 1.6-2.1 4.4-2.9 6.5l-1.5 3.6 3.1-1.3c1.8-.8 6.8-3 11.2-5l8-3.6-6.7.6c-6.4.6-6.8.5-6.8-1.4 0-3-2.7-2.6-4.4.6zM463 659.6c0 1.4-.9 1.6-6.2 1-3.5-.4-6-.5-5.7-.2.3.3 5.1 2.5 10.6 5l10 4.4-2.5-5.9c-1.8-4.1-3.1-5.9-4.4-5.9-1 0-1.8.7-1.8 1.6zM481.5 659c.3.5.8 1 1.1 1 .2 0 .4-.5.4-1 0-.6-.5-1-1.1-1-.5 0-.7.4-.4 1zM568.8 671.7c-4.3 5.3-7.7 9.7-7.5 9.9.4.3 23.8-3.4 24.3-3.9.3-.2-2.1-.8-5.2-1.2-8.8-1.1-8.6-.8-5.8-8.1 1.3-3.5 2.3-6.4 2.1-6.4-.1 0-3.7 4.4-7.9 9.7zM448 664.2c0 .4.9 3 2 5.7 2.2 5.7 2.2 5.7-6.6 6.7-3 .4-5.3.9-5 1.1.2.3 5.8 1.2 12.4 2.2l12 1.7-4.3-5.5c-6-7.7-10.4-12.7-10.5-11.9zM437 680.6c0 .4 1.6 2.8 3.5 5.4 1.9 2.6 3.5 5.1 3.5 5.4 0 .4-3.3 2.2-7.2 4.1-4 1.9-6.2 3.3-4.8 3.1 1.4-.3 7.6-1 13.8-1.7 6.1-.7 11.2-1.5 11.1-1.8-.1-.8-19.9-15.2-19.9-14.5zM576.8 687.4c-5.4 3.9-9.8 7.4-9.8 7.7 0 .3 5.1 1.1 11.3 1.8 6.1.7 12.3 1.4 13.7 1.7 1.4.2-.5-1.1-4.2-2.9-3.7-1.8-7-3.5-7.4-3.9-.3-.4 1-3 3.1-5.8s3.6-5.2 3.4-5.4c-.2-.2-4.8 2.9-10.1 6.8zM98.5 611.1c-39.3 3.2-67.5 23.7-76.4 55.7-4.1 14.7-4.2 20.8-3.9 173.6l.3 146.9h41l.3-48.6.2-48.5 6.1 2.3c24.3 9.6 61.3 11.9 86.1 5.6 32.4-8.3 52.3-28.1 58.3-58 2.2-10.5 1.6-35.3-.9-44.6-4.9-18-16.3-31.9-32.9-40-9.3-4.5-22.5-8.5-28-8.5-4.3 0-3-.8 5.4-3.1 10.8-3 19.6-7.6 26.6-14.2 12.6-11.8 17.3-23 18-43.3.6-15.5-.9-24.2-6.1-35-13.8-28.7-49.1-43.8-94.1-40.3zm43.5 5.2c35.1 9.3 53.3 30 54.8 62.3.9 20.5-3.6 34.9-14.4 46.3-3.4 3.6-8.7 8.1-11.7 9.9-6.2 3.8-17.1 7.7-24 8.7-3.6.6-4.7 1.2-4.7 2.5 0 1.5 1.4 2.1 7.3 3 25.4 4.3 44.5 16.5 53 34.1 6.1 12.4 7.2 18.1 7.2 37.4 0 14.7-.3 18.1-2.3 25-3.6 12.5-8.6 20.9-17.8 30.1-6.8 7-9.6 9-18.5 13.3-17.8 8.7-36.5 11.6-63.3 10-18.4-1.1-30.3-4-48.3-11.6-1-.4-1.3 9.7-1.3 48.6V985H19.9l.4-151.8c.4-166.3 0-157.1 6.3-172.9 3.9-9.8 8.7-16.8 16.9-24.9 7.9-7.7 16.5-12.7 28.7-16.8 13.5-4.6 21.6-5.6 41.8-5.2 15.9.3 19.8.7 28 2.9z"/><path d="M105.5 642.7c-19.9 1.3-34.1 9.6-41.3 24.3C58 679.6 58 679.1 58 771.2V855l5.8 2.9c18.9 9.5 41.3 13.5 61.5 11.1 16.4-1.9 25.7-6 34-14.9 9.5-10.1 13.4-23.5 12.4-41.6-1.2-19.9-8.8-32.5-24.5-40.4-10.7-5.4-19.1-7.2-36.4-7.8l-15.8-.6V734h9.8c26.1-.1 41.8-7.8 49.6-24.5 3.8-7.9 4.9-14.4 4.4-26.4-.3-8.8-.8-11.5-3-16.3-4.8-10.5-14.9-18.6-26.8-21.8-5.2-1.4-17.7-2.6-23.5-2.3zm20.2 3.8c9.4 2.2 15.2 5.3 21.5 11.5 7.1 7.2 9.8 14.7 9.8 27.9 0 23.2-10.6 38.3-30.6 43.6-3.2.9-12.3 1.8-20.2 2.2l-14.2.6.2 16.9.3 16.9 16 .4c18 .4 26.9 2.2 37.5 7.5 12.6 6.3 19.5 15.5 22.5 29.5 5.4 25.7-3.9 49.2-23 58.1-9.1 4.2-17.1 5.6-32.2 5.5-18.4 0-29.4-2.3-44.6-9.4l-8.8-4 .3-85.6c.3-80 .5-86 2.2-91.1 5.8-17.3 15.3-26.5 31.2-30.4 7.8-1.9 24.3-1.9 32.1-.1z"/><path d="M97.5 661.2c-7.9 2.9-16.6 10.6-20.2 17.8-3.8 7.9-5.1 27-3.8 58.1.3 8 .2 15.6-.3 16.9-.8 2.2-.9 2.2-3.3-1.6l-2.4-3.9-.3 7.8c-.3 7.4-.1 8.2 3.4 14.5 13.1 23.9 40.2 61.4 57.7 79.9l6.5 6.8 3.7-1.8 3.7-1.8-1.8-2.6c-1.2-1.9-1.4-2.8-.5-3.1 4.1-1.4 11.8-10.9 12.7-15.7.3-1.6.9-3.5 1.3-4.4 3.2-5.9 1.9-20.7-2.7-30.3-2.3-4.8-4.3-7.2-8.3-10.2-8.6-6.4-16.8-8.7-39.4-11.1-7.7-.9-11-2.3-16.4-7.2-4.9-4.6-7.4-11.1-7.6-20.3-.2-6.1 1.9-15.3 3.5-15.8.5-.2 1-1 1-1.7 0-1.6 6.4-6.7 10.5-8.3 3.8-1.5 17.8-4.5 26.5-5.7 1.9-.3 4.7-1.4 6.2-2.5s3-2 3.3-2c1 0 5-4.3 6.9-7.3 2-3.3 4.2-11.6 4.5-17 .2-4.5-2.1-12.7-4.9-17.2-2.4-3.8-9.9-8.8-15.6-10.4-4.9-1.4-20-1.3-23.9.1zM207.1 745.6c0 1.1.3 1.4.6.6.3-.7.2-1.6-.1-1.9-.3-.4-.6.2-.5 1.3zM334.8 961.7c.7.3 1.6.2 1.9-.1.4-.3-.2-.6-1.3-.5-1.1 0-1.4.3-.6.6zM361.6 989.6c-.4 1-.2 1.3.6.8.6-.4 2.5-1.1 4.2-1.5l3.1-.7-3.6-.1c-2.5-.1-3.9.4-4.3 1.5zM369.3 990.7c1.5.2 3.7.2 5 0 1.2-.2 0-.4-2.8-.4-2.7 0-3.8.2-2.2.4z"/></svg>