<svg version="1" xmlns="http://www.w3.org/2000/svg" width="1365.333" height="1365.333" viewBox="0 0 1024.000000 1024.000000"><path d="M700.7 129.9c-.6 1.8-2.1 3.2-3.4 3.6-1.3.3-2.9 1.6-3.5 3-.6 1.3-2.4 2.8-3.9 3.4-3.2 1.1-3.9 4-1.5 6 .8.7 2 4.3 2.6 8.1 1.1 6.3 1.4 6.9 4.2 7.9 1.7.6 4.8 1.1 6.9 1.1 2.2 0 3.9.4 3.9.9s2.1 1.2 4.8 1.5c2.6.4 5.4.9 6.2 1.2 1 .2 2.2-.8 3.3-2.9 1-1.8 3.1-4.1 4.8-5.1 3.2-1.9 3.6-3.3 1.4-5-1.3-1-1.3-1.7.3-5.9l1.7-4.9-2.7-2.1c-1.5-1.3-2.8-3.4-3-5.2-.2-1.9-1.1-3.4-2.8-4.2-7.1-3.5-9.7-4.3-13.7-4.3s-4.6.3-5.6 2.9zM284.5 134c-1.1.5-5.3.9-9.3.9-8.4.1-9 .7-6.8 7.1.8 2.4 1.2 4.8.9 5.3-.3.5-.9 2.4-1.3 4.3-.8 3.2-.7 3.4 2.7 4 1.9.4 7 .4 11.4.2 6.1-.4 8.7-1 10.9-2.6 3.6-2.7 5.2-2.8 7.5-.2 1 1.1 2.4 2 3.2 2 .7 0 1.3 1 1.3 2.1 0 1.2.5 3.9 1.2 6 .9 3 .8 5.2-.1 9.5-1.2 5.1-1.1 5.8.7 7.7 3.5 3.9 4.2 6 2.5 7.2-.9.7-2.1 4.2-2.8 8-1.2 6.4-1.2 6.9.7 8.4 1.6 1.4 1.8 2 .8 4.5-.8 2.2-.8 3.7 0 5.7.9 2.2.7 4-.9 9.4-2.8 8.9-2.8 17.7 0 21.6l2 2.9-2.3.9c-1.3.5-3.1 1.8-4.1 2.9-1.4 1.5-2.7 1.9-5.1 1.5-2.2-.3-3.6 0-4.5 1.1-1.8 2.2-3.8 2-4.6-.4-.8-2.6-3.2-2.6-4 .1-.7 2-2.3 2.1-8.7.3-2.2-.6-2.2.3-.2 5.1.8 2 1.4 3.8 1.2 3.9-.2.1-1.5.7-3 1.4-4.5 1.9-3.6 4.6 2.7 8.1 5.4 3.1 11.8 4.1 13 2.1.3-.6 2.2-1 4.1-1 1.9 0 3.4-.5 3.4-1 0-.6 2.7-1 6-1s6 .4 6 1c0 .5 1.8 1 4 1s4-.5 4-1c0-1.3 9.5-1.3 14.2 0 2.6.8 5 .8 7.8 0 2.9-.8 4.6-.8 6.1 0 1.1.6 6.4 1.1 11.6 1.1 8.5-.1 9.9-.3 12-2.3 3.1-2.9 2.9-6.5-.8-11.3-2.8-3.8-2.9-4-1.1-4.8 2.4-1.1 4.8-5.7 3-5.7-.6 0-2.6.5-4.4 1.2-1.8.6-3.9.8-5 .3s-4.6-1.4-7.9-2.1c-5.5-1.1-6.2-1-8.1.7-1.1 1-2.7 1.9-3.5 1.9-.8 0-3.3.9-5.6 1.9l-4.2 1.9-.9-5.1c-.4-2.9-.5-5.7-.1-6.2.4-.6 1.3-3.1 1.9-5.7 1.1-4.3 1-4.9-1.5-9.2-2.3-4-2.5-4.9-1.4-6.2 1.5-1.9 2-11.4.8-15.7-.5-1.8-.4-3.6.3-4.7.9-1.3.9-2.5.2-4.2-.7-1.4-.8-3.4-.2-5.3 1-3.4.4-7.6-1.9-15.3-1.5-4.9-1.5-5.6.1-8.9.9-1.9 1.9-5.4 2.3-7.8.5-3.7.2-4.5-1.6-5.4-1.8-1-2.1-2.1-2.1-7.2 0-4-.7-7.3-2-9.9-2-3.9-2.2-4-7-4-2.8 0-5-.5-5-1 0-1.4-9.4-1.3-14.2.2-3.1.9-4.4.9-5.9 0-2.1-1.4-5.5-1.4-8.4-.2zM191 135c0 .6-3.6 1-8.9 1-9.7 0-10.3.3-12.4 6.3-.9 2.8-2.4 4.2-6.7 6.4-3.7 1.9-6 3.9-7 6-.8 1.7-2.7 3.9-4.2 4.8-2.9 1.7-3.5 3.9-1.8 6.5.7 1.1.1 2.3-2.1 4.6-2.6 2.7-2.9 3.5-2 5.3.7 1.2.8 2.1.4 2.1s-1.8.8-3 1.8c-2 1.5-2.2 2.1-1.3 5.4.9 3.2.8 4-.8 5.6-2.4 2.4-5 15.8-3.4 17.4.7.7 1.2 4 1.2 7.3 0 5.4.3 6.4 2.9 8.9s2.9 3.5 3.4 11.6c.6 10.2 2.2 14.4 5.5 14.8 1.6.2 2.2 1 2.2 2.7 0 2.7 4.2 8.1 7.1 9 1.1.4 2.2 1.9 2.5 3.4.8 3.9 7.3 7.1 14.3 7.1 4.2 0 6 .5 7.8 2.2 2 1.9 2.7 2 6 1 2.1-.6 7.8-1.4 12.8-1.8 11.7-.8 13.1-1.4 13.9-5.8.6-3.2 1-3.6 3.6-3.6 2.3 0 3-.5 3-1.8 0-1.2 1.4-2.5 4-3.7 3.7-1.7 4-2.1 4-5.7 0-2.5.8-5 2-6.5 1.1-1.4 2-3.3 2-4.2 0-1 1.4-3 3-4.6 3.3-3.2 3.8-5.6 1.4-7.6-1-.8-1.3-2.1-.9-3.6.3-1.3.1-3.2-.5-4.3-1-1.8-2.1-2-10.8-2-6.3 0-10.2.4-11 1.2-.7.7-1.2 3.1-1.2 5.4 0 2.5-.6 4.7-1.5 5.4-.8.7-1.5 1.9-1.5 2.7 0 .8-1.6 2.9-3.5 4.6-1.9 1.7-3.5 3.8-3.5 4.6-.1 4-9.8 9.7-12.3 7.2-1.6-1.6-5.9-1.4-8.5.5-2 1.4-2.4 1.4-5.1-.5-1.6-1.2-4.3-2.4-6-2.7-3.1-.6-3.4-1.2-4.6-7.2-.4-1.8-1.5-3.7-2.6-4.2-1-.6-1.9-1.9-1.9-3s-1.3-2.9-3-4.1c-2.2-1.7-2.7-2.6-2-3.9.9-1.8-.3-17-2.1-24.8-.7-3.3-.6-4.9.6-7.3.9-1.7 1.5-3.8 1.3-4.7-.1-.9.5-2.8 1.4-4.1 1.2-1.7 1.4-2.9.8-4.2-1.6-2.9-1.2-3.8 3-5.9 3.6-1.8 3.9-2.2 3-4.6-1.3-3.3-1.4-3.1 1.9-4.2 2.5-.9 3-1.7 3.3-4.9.3-3.8.3-3.8 5-4.1 4.6-.3 4.8-.4 5.8-4.2l1-3.9 8 .1c5.9.1 8 .5 8 1.4 0 .7.8 2.9 1.7 4.9 1.5 3.1 2.1 3.5 5.5 3.5 3.6 0 3.8.2 3.8 3 0 1.7.5 3.9 1.2 5 1 1.5.9 3.2-.5 8.4-.9 3.5-2 7.1-2.3 8-.4 1.1.6 1.8 3.7 2.8 2.4.7 5.2 2.1 6.2 3.1 1.3 1.3 2.5 1.7 4 1.2 1.2-.5 4.8-1 8-1.2l5.7-.5v-4.3c0-3.7-.5-4.7-3-6.5-2.6-1.8-3-2.8-3-6.6 0-2.4.4-4.4.9-4.4.4 0 1.4-2.8 2.1-6.1 1.1-5 1.1-6.8 0-9.7-1.2-3.3-1.1-3.7.9-5 2.7-1.8 2.9-7.2.3-9.5-2.6-2.4-10.8-2.2-15 .3-3.4 2.1-11.2 2.8-11.2 1 0-.6-1.8-1-3.9-1-3.1 0-4.1-.4-4.6-2s-1.5-2-5.6-2c-2.7 0-4.9.4-4.9 1zM434 165c-1.4.4-4.4.8-6.7.9-3.4.1-4.5.6-6.3 3.1-1.7 2.3-2.9 3-5.6 3-2.5 0-4.2.8-6.4 3.1-1.6 1.8-3 3.6-3 4 0 .5-1.1.9-2.5.9-2.2 0-2.5.4-2.5 4 0 2.9-.5 4.2-2 5-2.4 1.3-2.5 3.5-.5 7.4.8 1.5 1.5 4.9 1.5 7.5 0 3.1.8 5.9 2.5 8.6 2.9 4.8 3 5.5.8 5.5s-8.3 5.6-8.3 7.5c0 .8-1.1 3.1-2.5 5.1-2.7 4-3.2 7-1.2 7.6.8.3 1.2 2.6 1.2 6.4.1 7.1 5.3 19.5 9.4 22.3 4.6 3.1 10.8 4.6 13.6 3.3 3.3-1.5 3.5-1.5 3.5.1 0 .7.6 2.1 1.3 3.1 1 1.4 1.7 1.5 4.1.6 2.1-.8 3.2-.7 4.4.2.8.7 4.2 1.3 7.9 1.3 5.9 0 6.7-.2 8.8-2.8 2.2-2.9 2.3-2.9 5.5-1.2s3.2 1.7 6.4-1.4c3.8-3.7 4.9-3.8 6.8-.9 1.4 2.1 1.5 2.1 3.9.5 2.3-1.7 2.5-1.7 5 1.5 2.5 3 3.1 3.2 10.2 3.4 4.2.2 7.9-.1 8.2-.5.3-.5 1.8-.4 3.4.2 4.3 1.6 6.2-.3 4.9-4.7-.9-2.9-.8-3.6 1.1-5.5 1.6-1.6 2.1-3.3 2.1-7.6 0-5 .2-5.5 2.5-6.1 1.4-.3 2.5-1 2.5-1.4 0-1.5-5.5-11.5-7-12.7-3.1-2.6-6.2-2.7-8-.3l-1.7 2.2-3.1-3.8c-3.7-4.5-3.9-5.4-1.2-5.4 2.9 0 3.5-2.4 1.4-5.9-1.5-2.5-1.6-3.4-.6-5.6.7-1.4 1.2-5.7 1.2-9.4 0-5.5-.4-7.1-2-8.6s-2-3.1-2-8.6c0-6.3-.2-6.9-3.1-9.3-1.7-1.4-4-2.8-5.2-3.1-1.2-.3-3.2-2.1-4.4-4-3.6-5.5-10.1-8.1-21.8-8.8-5.5-.3-10.9-.8-12-1.1-1.1-.2-3.1-.1-4.5.4zm8.5 24c1.8.7 3.9.7 6.2.1 4.5-1.3 14.3.7 14.3 2.8 0 .8.5 2.8 1.1 4.5.8 2.2.8 3.9 0 5.8-1.3 3.5-2.9 3.6-4.1.3-.9-2.5-1.1-2.5-3.9-1-3.8 1.9-7.1 1.9-7.1 0 0-.8-.9-1.5-2-1.5s-2 .4-2 1c0 .5-.9 1.9-2 3-2.1 2.1-4.6 1.8-6.6-.7-.9-1-1.8-1.1-3.8-.3-2.6.9-2.6.9-2.5-3.3.2-7.4 1.2-10.1 3.9-10.8 3.7-1 5.6-1 8.5.1zm21.9 39.8c.4.6-1.2 11.3-1.8 12-.2.1-3.8 1.1-8 2.2l-7.7 2.1-2.7-2.2-2.7-2.1-.3 4.1-.3 4.2-8.2-.3-8.2-.3-.3-4c-.4-5.5-1.9-6.6-3.3-2.7-1.4 4.2-5.4 4.5-6.3.5-.8-3.1.8-4.6 4.1-3.8 2 .5 2.2.2 1.7-2.2-.5-2.5 0-3.1 3.8-5.1 4.8-2.5 10.9-2.9 17-1 3.3 1 4.1.9 5.5-.5 1.2-1.1 3.6-1.6 9.4-1.6 4.3 0 8 .3 8.3.7z"/><path d="M434.8 191.2c-.7 1.7.8 4.6 1.8 3.5.4-.4.3-1.7-.3-2.9-.7-1.7-1.1-1.9-1.5-.6zM431 232.8c0 1.5 2.8 4.7 3.5 4 .8-.8-1.3-4.8-2.5-4.8-.6 0-1 .4-1 .8zM530.9 169.1c-1.5 1.5-3 2-5 1.7-1.6-.3-3.4.1-4 .8-1.2 1.4-1.5 16.9-.4 20.3.6 2.1 1.1 2.1 9.7 1.8l9-.4 2.4 5.1c1.3 2.8 2.4 5.5 2.4 6.1 0 .5 1.1 3.7 2.5 7 1.3 3.3 3.2 9.3 4.1 13.3 1.2 5.3 2.5 8.4 5 11.3 1.9 2.3 3.4 4.9 3.4 5.8 0 2.2 2.6 7.6 5.6 11.6 1.3 1.7 2.5 4.6 2.7 6.5.6 4.6 1.5 6.6 4.9 11.7 4.3 6.3 7.5 6 15.4-1.5 5.6-5.3 6.2-6.2 7.4-12.2.7-3.6 2.1-8.1 3-10 1-1.9 4.8-13.2 8.5-25s7.6-23 8.7-24.8c2.7-4.4 7.2-6.6 13.8-6.7h5.5l.3-8.9c.1-5-.2-9.4-.8-10.1-.7-.8-2.6-1.1-5.3-.8-3.1.4-4.6.1-5.6-1.1-2.3-2.8-3.8-1.8-4.5 2.9-.4 2.5-1 4.5-1.4 4.5-.4 0-1.8-1.6-3.2-3.5-3.6-5-8-4.9-13.5.4l-4 3.9-8.5-4c-7.6-3.6-9.4-4-17.6-4.3-5.2-.2-10.1-.9-11.3-1.7-1.7-1.1-2.6-1-5.3.6-1.8 1-4.5 3-6 4.4l-2.8 2.6-2.8-2.7c-1.5-1.5-3.3-2.7-3.8-2.7-.6 0-1.9-.9-2.9-2-2.3-2.5-3-2.5-5.6.1zm40.2 11.5c1.1 1.4 1 1.5-1.1 1.2-1.3-.1-2.5-.9-2.8-1.6-.5-1.7 2.3-1.5 3.9.4zm-32.1.4c0 .5-.7 1-1.5 1s-1.5-.5-1.5-1c0-.6.7-1 1.5-1s1.5.4 1.5 1zm41.1 0c2.4 1.3 2.6 5 .2 5-2.9 0-4.3-1.4-3.6-3.8.6-2.5.7-2.6 3.4-1.2zm7.3 14.6c3.1 3 5.6 6.2 5.6 7.1 0 .8-1.4 2-3.1 2.6-2.9 1.2-3 1.3-2.4 6 .6 3.8.3 5.2-1 6.7-1.1 1.3-1.5 2.8-1.1 4.3.7 2.8-2.2 12-3.5 11.1-.5-.3-.9-1.9-.9-3.5 0-2.2-.6-3.2-2.4-3.9-4-1.5-7.7-7.5-11.2-18.3-1.9-5.6-3.4-10.5-3.4-10.9 0-.4 1.5-.8 3.3-1 2.4-.2 3.3-.8 3.5-2.5.3-1.9 1.1-2.3 5.5-2.6 2.9-.2 5.3-.4 5.4-.5.1-.1 2.7 2.3 5.7 5.4zm-9.6 38.2c.2.7-.3 1.2-1.2 1.2-.9 0-1.6-.7-1.6-1.6 0-1.7 2.2-1.4 2.8.4zM660.7 168.7c-.9 1.1-1.7 2.5-1.7 3.1 0 .7-.3 1.2-.7 1.2-1.2 0-5.3 6.4-5.3 8.2 0 .9 1.4 2.1 3 2.7 1.9.6 3 1.7 3 2.8 0 2.8 2 4.3 5.5 4.3 1.6 0 4.5.4 6.2.9 3.5 1 9.2-.4 10.6-2.6 1.2-1.9 8.6-2.7 10.5-1.1.9.8 2.4 1.8 3.3 2.1 2 .7 2.9 4.9 2.9 13.7 0 5.1-.4 6.9-1.5 7.4-1.8.6-2.1 6.2-.4 6.8.9.3.9.9 0 2.5-1.7 3.3-1.4 17.4.5 21.1 1.6 3.3 1.2 5.2-1.1 5.2-.7 0-2.3 1.2-3.4 2.6-2.3 2.9-5.1 2.8-12.4-.3-2.8-1.2-4.5-1.4-6.5-.7-1.7.7-4.1.7-6.6.1-4.3-1.1-5.5-.1-5.6 4.3 0 1.7-1.3 3.4-4 5.4-2.2 1.7-4 3.3-4 3.6 0 .3 1.3 2.6 2.8 5.1 3 4.6 3.2 4.7 17.1 7.9 5.2 1.2 5.6 1.2 6.9-.9 2-2.9 9.4-3 12.5 0 1.3 1.2 3 1.8 4.2 1.5 12.1-3.2 14.8-3.5 17-1.8 2.2 1.8 10.8 2.2 17.1.8 1.7-.4 4.2-.2 5.7.3 1.8.7 3.6.7 5.6 0 1.9-.7 4.1-.7 6.4-.1 2.2.6 4 .6 5.3-.1 1-.6 3.4-1.1 5.3-1.2 4.1-.1 4.8-1.7 5-10.6.1-4.2-.3-6-1.7-7.2-1-1-2.2-1.7-2.7-1.7-1 0-4.5-4-4.5-5.2 0-1.4-3.2-.9-4.5.9-1.1 1.5-1.5 1.5-5.4 0-4.6-1.9-11.1-2.3-11.1-.7 0 .5-1.3 1-3 1-1.6 0-4.1.6-5.6 1.2-2.2 1-2.8 1-3.2 0-.2-.7-1.5-2.6-2.9-4.3l-2.5-3 1.6-6.6c.9-3.6 2.4-7.9 3.2-9.5 1.4-2.7 1.4-3.1-.3-4.3-1.5-1.1-1.8-2.9-1.9-12.7 0-9.4.3-11.8 1.8-14 2.2-3.2 2.4-10.5.3-13.5-.8-1.1-1.7-3.9-2.1-6.2-.9-5.5-6.4-10.1-12.1-10.1-2.1 0-4.4.5-4.9 1-.8.8-1.9.8-3.8 0-3.5-1.3-8.3-1.3-9.1 0-.9 1.4-10.5 1.3-10.5-.1 0-.7-1.3-.9-3.7-.5-5.2.8-5.4.8-9.3.1-2.8-.5-3.9-.3-5.3 1.2zM818 171.5c-.7.8-2 1.5-2.9 1.5-.9 0-4.4 2.1-7.9 4.6-5.6 4.2-6.2 5-6.2 8.3 0 2.9-.7 4.2-3.7 6.7-3.7 3.1-3.7 3.3-2.5 6.6.6 1.9 1.2 5.5 1.2 8.1 0 2.6.5 4.7 1 4.7.6 0 1 1.8 1 3.9v3.9l5 .7c5.5.8 6.4 2 2.4 3.5-1.4.6-2.8 1.9-3.1 3-.5 1.9-.6 1.9-3.4-.2-1.6-1.2-3-2-3.2-1.7-5.3 6.7-5.7 7.6-5.7 14.7 0 4 .4 7.2 1.1 7.4.7.2.7 1.8-.1 5.3-1.2 5.3.3 20.7 2.3 23.2.6.8 3.5 1.3 7.8 1.3 6.7 0 6.9-.1 7.5-2.8 1.1-5.2 1.2-5.4 3.1-4.2 10.7 6.4 11.9 6.8 16.7 5.8 3.2-.7 5.6-.6 7.8.1 3.8 1.4 20.8 1.5 20.8.1 0-.5 2.8-1 6.3-1.2l6.2-.3.9-3.7c.8-3.3 1.4-3.8 6.5-5.5l5.6-1.8.6-5c.3-2.8 1.4-6.8 2.3-8.9 1.8-3.9 1.8-4-.5-5.7l-2.4-1.8 2.3-2.4c1.9-2.1 2.1-2.8 1.2-5.3-.6-1.6-2.4-4-4.1-5.4-1.6-1.4-3.7-4.1-4.7-6-1.3-2.8-2.4-3.6-4.9-3.8-4.6-.4-4.1-2.2.5-2.2 3.4 0 4-.4 6.1-4.3 2.2-4.1 2.3-4.7 1.1-9.5-1.4-5.1-1.3-5.2 1.9-9.7 3.2-4.4 3.2-4.6 2.1-10-1.2-5.9-3.1-8.5-5.9-8.5-1 0-2.4-.7-3.1-1.5-1.7-2.1-3.2-1.9-6.6.7-2.1 1.7-4.2 2.3-7.9 2.4-2.7 0-6.9.4-9.2.8l-4.3.8v-4.1c0-3.6-.3-4.1-2.3-4.1-1.2 0-3.3.7-4.6 1.6-2.1 1.5-2.5 1.5-5.6-.2-3.1-1.7-3.4-1.7-5.9 0-2.4 1.5-2.9 1.5-4.8.1-2.8-1.9-4.2-1.9-5.8 0zm20.4 22.1c.5 1.3 1.5 1.5 4.7 1 2.9-.5 5.3-.1 7.9 1 3.5 1.5 4 2.3 5.2 7.2 1.2 4.9 1.7 5.6 4.8 6.6 3.2 1 3.5 1.5 3.8 5.3.2 2.4.1 4.3-.2 4.3-2.2 0-3.6-1.6-3.6-4.1 0-3.6-1.2-3.7-3.8-.4-2.5 3.2-3 3.1-8-.5-3.9-2.8-4.3-2.9-9.7-2-4.4.7-6.2.6-7.8-.5-1.2-.8-4-1.7-6.3-2.1-3.9-.6-4.2-.8-5.9-6.2-1.3-4.1-1.4-5.7-.6-6 .7-.2 2.4-1.5 3.9-2.8 2.2-1.9 3.8-2.3 8.8-2.4 4.8 0 6.3.4 6.8 1.6zm-15.2 37.6c3 1.7 4.2 1.9 6.5 1 1.5-.6 5.5-1 8.8-.8 5.3.3 6.2.6 7.5 2.9 1.7 3 2.1 3.1 7 1.7 2.8-.8 4.4-.6 8.7 1.2 2.9 1.2 5.3 2.4 5.2 2.7 0 .3-1 2.6-2.2 5-3 6.1-10.8 10.9-15.1 9.3-2-.8-3.5-.8-4.8-.1-1.3.7-2.9.7-4.6.1-1.6-.5-3.7-.6-5-.1-1.4.6-3.8.4-6.3-.4-3.2-1-4.4-2.1-6.1-5.5-1.5-3.2-3.2-4.9-6.4-6.5l-4.4-2.1v-12.4l3.8 1c2 .5 5.4 1.9 7.4 3z"/><path d="M839 236.5c-.7.9-1 1.8-.7 2.1.7.8 4.7-1.4 4.7-2.6 0-1.5-2.6-1.2-4 .5zM312.7 289c-.7 1.8-1.9 3-2.9 3s-2.7 1.3-3.9 3c-1.2 1.6-3.5 3.3-5 3.9-2.2.7-2.6 1.4-2.2 3.1.3 1.2 1.2 2.4 1.9 2.7.8.3 1.4 1.6 1.4 2.9 0 1.2.5 4.5 1.1 7.2.9 4.5 1.3 5 4.8 6.1 2.1.6 5.2 1.1 6.9 1.1 1.7 0 3.2.4 3.4.9.2.5 3 1.2 6.3 1.6 5.9.6 6 .6 7.7-2.5 1-1.7 3.1-3.8 4.8-4.8 3.4-1.9 3.9-3.8 1.1-4.7-1.8-.6-1.8-.7.2-5.5s2-5 .2-7c-1-1.1-2.4-2-3.2-2-.8 0-1.3-1.2-1.3-3.5 0-3.3-.3-3.7-5.6-6-3.3-1.5-7.5-2.5-10.1-2.5-4.1 0-4.6.3-5.6 3zM206.7 288.3c-.9.8-2.8 1.2-4.1 1-4.5-.9-8 1.5-10.1 7.1-1.5 3.9-2.6 5.2-4.4 5.4l-2.4.4 2.6-3.2c2.9-3.4 3.2-4.7 1.8-6.9-.6-.9-1.8-1.1-3.4-.7-1.7.4-4.2-.1-7.2-1.6-3.9-1.9-5-2.1-7.7-1-1.7.6-3.6.8-4.2.4-1.7-1.1-34.7-.1-36.6 1.1-4.3 2.6-6.4 11.1-4 15.8 1.7 3.1 6.4 4.9 12.9 4.9h6l2.7 4.5c2.3 3.9 2.6 5.3 2 9.5-.5 3.5-.3 5.1.6 5.7.7.4 2.3 5.6 3.5 11.5 1.1 5.9 2.8 12.1 3.7 13.8.9 1.8 1.3 4.3 1 5.9-.4 1.6.1 4.1.9 5.8.9 1.6 2.1 6.7 2.7 11.4.6 4.6 2 11 3.1 14.2 1.1 3.1 1.9 7 1.8 8.5-.1 1.5.6 4 1.5 5.7.9 1.6 1.6 4.6 1.6 6.6 0 10.3 8.4 20.9 16.6 20.9 4.5 0 9.4-3.8 13.2-10 2.6-4.4 3.2-6.4 3.2-11.2 0-5 .2-5.8 1.9-5.8 1.1 0 2.2.6 2.5 1.2.3.7.3-1 0-3.7-.6-5.9.8-10.5 3.6-11.2 2.4-.6 2.5-1.6.5-3.7-1.9-1.8-1.9-3.7 0-6.2.8-1.1 1.4-4.2 1.5-7.6 0-3.2.6-6.2 1.3-7 1.4-1.5 9.7-26.4 9.7-29.1 0-1 1.5-7.3 3.3-13.9l3.2-12 6 .7c5.9.6 6.1.5 10.4-3.1 4.9-4.2 7.3-8.9 6.4-12.5-.9-3.8-4.9-8.5-8.6-10.3-3.6-1.6-13.2-2.2-15.4-.8-1.1.7-5.7.3-17.8-1.3-2.6-.3-4.6-.1-5.8.8zm-5.2 7.7c.3.5-.1 1-1 1s-1.3-.5-1-1c.3-.6.8-1 1-1 .2 0 .7.4 1 1zm-3.6 18c2.3.6 3.9.6 4.6 0 1.2-1 4.5-.4 4.5.9 0 .3-.7 1.4-1.4 2.4-.9 1.2-1.2 3.2-.9 5.7.5 3.5.1 4.4-3.1 8-3.5 3.9-3.6 4.1-2 6.5 1.5 2.3 1.5 2.4-.8 3-1.2.2-5.4.6-9.3.7-6.9.3-7 .3-7.3 3.2-.3 2 .4 3.6 2.2 5.5 1.4 1.5 3.2 4.4 3.9 6.6.8 2.2 2.3 4.4 3.5 5 2.7 1.2 2.8 3 .2 7.8-1.2 2.2-1.8 4.7-1.5 5.8.9 2.7-1.9 3.5-5 1.5-1.6-1.1-2.5-2.6-2.5-4.3 0-3.6-2.9-14.8-5.1-20.1-1.6-3.7-1.7-4.4-.4-4.8 2.3-.9 1.8-5.1-1-7.2-3.3-2.6-3.6-9.1-.5-9.9 3.1-.8 2.4-3-2.5-8.7-5.3-6.2-5.8-8.2-1.7-7.1 1.5.4 5 .6 7.8.6 2.8-.1 6.2.3 7.6.8 2.1.8 3 .6 4.4-.9 2.3-2.3 2.1-2.2 6.3-1zm-.5 34.1c.5.4.6 1.9.2 3.3-.6 2.5-.6 2.6-4.1.9-3.2-1.5-4.5-4-2.9-5.6.8-.8 5.5.2 6.8 1.4z"/><path d="M180.2 319.2c-1.7 1.7-1.5 4.5.4 5.2.9.4 1.8.5 1.8.4.1-.2 1-1.5 1.9-3 .9-1.5 1.7-3 1.7-3.3 0-1-4.6-.5-5.8.7zM438.2 297.3c-3.4 3.5-4.4 5.3-5.2 10-1 5.2-.9 6 1 8.7 2.1 2.9 2.1 2.9.1 4-1.7.9-1.9 1.5-1.1 3.6 1.3 3.3 1.3 3.4-.4 3.4-.7 0-1.9.7-2.6 1.5-.9 1.1-2.2 1.4-4.2 1-2.2-.5-3.7-.1-6.3 1.9-2.8 2.2-4.1 2.5-7.4 2-3.9-.6-4-.6-5 3.1-.6 2.1-2.4 4.9-4.2 6.4-3.9 3.3-3.4 6.1 1.9 9.6 3.3 2.2 4.2 2.3 8.4 1.4 4.2-.9 5-.8 7 1 1.7 1.6 3.5 2.1 8 2.1h5.8v3.7c0 2.1-.5 5.6-1 7.8-.6 2.6-.6 5.3.1 7.7.6 2.5.6 4.4 0 5.6-.7 1.3-.7 2.2.1 3 .8.8.8 2.2 0 5-1.5 4.8-1.5 8.2-.2 8.2.6 0 1 2.7 1 6s.4 6 1 6 1 2.2 1 5c0 4.4.3 5 2.5 5.6 1.3.3 4 2.6 6 5 2.1 2.5 4.5 4.4 5.6 4.4 1.1 0 3.2 1.3 4.6 3 2.3 2.8 3 3 8.9 3 3.6 0 6.4-.4 6.4-1s2.2-1 4.8-1c4.7 0 4.9-.1 8.2-5.3 2-3 5.1-6 7.2-7.2 3.3-1.7 3.8-2.5 3.8-5.6 0-2.8.6-4 3-5.7 3.5-2.6 3.9-5.7.9-7.2-1.1-.7-1.8-1.8-1.5-2.5.2-.7.8-2.9 1.1-4.9.6-2.8.3-3.8-1.4-5.2-1.2-1-2.1-2.6-2.1-3.6 0-.9-.5-2.8-1.2-4.2-.9-2.1-1.6-2.4-3.7-1.9-1.4.3-3.5 1.4-4.7 2.4-1.1 1.1-2.8 1.9-3.6 1.9-.9 0-2.5 1.1-3.6 2.5-1.6 2-2.9 2.5-6.6 2.5-5.2 0-5.3.3-3 7 .9 2.5 1.7 6.4 1.7 8.6.2 4 .1 4.2-3.6 5.1-3.8 1.1-3.9 1.1-3.2-1.6 1.3-4.8 1-5.5-2.8-7.6-2.5-1.3-3.5-2.5-3.1-3.5.3-.8.8-4.7 1.1-8.7.5-6.3.3-7.4-1.6-9.9l-2.2-2.9 2.1-.9c1.7-.8 2-1.5 1.6-3.5-.4-1.4-.9-5.4-1.3-8.8-.5-6-.5-6.3 2-7.2 1.4-.5 2.8-2 3.2-3.1.6-1.8 1.2-2.1 3.3-1.5 1.5.3 4.1.9 5.9 1.2 1.8.3 3.8 1.1 4.4 1.9 1.6 2 4.7 1.7 7.6-.6 1.4-1.1 3.4-2 4.4-2 1 0 3.4-.7 5.2-1.6 3.9-1.9 4-3.9.1-7.5-1.9-1.8-2.4-3.2-2.4-7.5 0-2.9-.5-5.6-1-5.9-.6-.4-4.6-.7-8.8-.8-6.2-.1-8.5.3-11.3 1.9-3.4 2-3.5 2-8.8.2-3-1-5.6-1.9-5.7-2.1-.2-.2.1-1.9.6-3.8.8-2.4.7-4-.2-5.7-1-1.9-.8-3.4 1-9l2.2-6.6-2.2-2.3c-1.2-1.3-2.9-2.3-3.9-2.3s-2.6-1.4-3.6-3c-2.4-4.1-5.1-3.8-10.1 1.3zM703 324c-.8.5-3.4 1-5.8 1-3.7 0-5 .6-9 4.4-3.5 3.2-6.3 4.8-10.9 6.1-5.9 1.7-6.4 2.1-10.3 7.9-2.2 3.5-4 7.5-4 9 0 1.6-1.2 4.2-2.6 5.9-1.9 2.2-2.4 3.8-2 5.7.3 1.9-.1 3.2-1.5 4.3-1.5 1.3-1.9 3-1.9 7.5 0 3.3.5 7.2 1 8.9.8 2 .8 4.4.1 7.4-1.1 4.5-.7 5.2 3.7 7.8 1.1.6 1.1 1.3.1 3.4-1.1 2.3-.9 2.9 1.2 4.6 1.3 1.1 3.6 2.5 5.1 3.1 1.8.8 2.8 2.2 3.2 4.5 1.1 5.7 4.1 8.5 9.1 8.5 4 0 4.4.2 5.4 3.3 1 3 1.7 3.5 8 5.2 6.2 1.7 7 2.2 7.5 4.7.7 3.6 2.1 3.5 5.7-.3 2.7-2.9 3.3-3.1 8-2.7 3.8.4 5.5.1 7.2-1.2 1.5-1.2 3.2-1.6 5.3-1.3 2.5.4 3.5 0 5.2-2.2 1.5-1.8 2.7-2.5 3.8-2.1 2 .8 7.4-3.9 7.4-6.3 0-2 7.7-9.4 10.4-10.1 3.6-1 4.7-10.6 1.9-16.5-1.8-3.7-4-4.6-5-1.9-.5 1.3-1.6 1.4-6.8.9-5.9-.7-6.4-.6-9.6 2.3-1.9 1.6-5 3.2-6.9 3.5-6.9 1.1-11 3-11 5.3 0 1.7-.8 2.3-3.7 2.8-5.9.9-6.2.8-7.1-2.6-1.2-4.6-3.2-4.9-2.5-.3l.6 3.7-4.4-.7c-2.6-.4-5-1.5-5.8-2.6-.7-1-2.1-1.9-3-1.9-2.2 0-4.1-1.9-4.1-4.2 0-1-.5-1.8-1.1-1.8-.7 0-.9-1-.5-2.5.4-1.4 0-4.1-.8-6-1.7-4-1.3-4.2 3.2-1.5 2.7 1.7 3.9 1.8 7.5 1 5.5-1.3 5.7-1.2 5.7.4 0 2 3.1 5.3 5.7 6.1 1.9.5 2.3.1 3.3-3.5 1-3.7 1.4-4.1 3.3-3.5 2.7.9 5.4.9 9 0 2.4-.7 2.7-.5 2.7 1.8 0 4 1 5.7 3.5 5.7 2.4 0 3.5-1.7 3.5-5.4 0-2.1.4-2.2 5.8-1.8 8.4.5 17-3.1 19.6-8.4 3.9-7.7 1.7-19.6-4-21.4-2.9-1-3.4-1.8-5-8-1.5-6-2.1-7-4.4-7.5-1.6-.3-4.5-2.8-7.1-6-4-4.9-4.8-5.4-8.4-5.5-3.3 0-4.3-.5-5.6-2.8-1.2-2.1-2.8-3-7-4-6.5-1.4-8.9-1.5-10.9-.2zm10 25.7c.1 2.3 1.8 3.5 3.7 2.4 1.7-.8 2.5-.5 4.8 1.9 2.4 2.5 2.7 3.5 2.3 7.5-.3 2.5-.7 4.7-.9 4.9-.2.2-3.9-.2-8.2-.8-5.8-.8-8.3-1.6-9.3-3.1-1.4-1.9-1.5-1.9-4.1 1.3-2.3 3.1-2.9 3.3-6.7 2.7-9.9-1.5-9.6-1.3-9.6-5.6 0-3.3.4-4 2.5-4.5 1.4-.3 3.6-.3 4.9 0 1.9.5 2.6.1 3.6-2.3l1.2-3 4.5 2c2.4 1 4.6 1.9 4.8 1.9.2 0 .8-1.4 1.4-3 .7-2 1.7-3 3-3 1.2 0 2.1.3 2.1.7z"/><path d="M713 360c0 1.1 5 3.4 5.8 2.6.2-.3.2-1.2-.1-2.1-.7-1.7-5.7-2.1-5.7-.5zM818.7 324.3c-5.8 1-7.1 1.6-8.5 3.9-1.3 2.2-2.4 2.8-5.2 2.8-3 0-4.2.7-7.1 4-1.9 2.2-4.2 4-5.1 4-1.4 0-1.8.9-1.8 3.9 0 3.1-.4 4.1-2.1 4.6-1.8.6-2 1.2-1.5 4.3.4 2.1 1 6.4 1.4 9.7.5 3.4 1.9 7.7 3.2 9.9 1.8 3 2.1 4.1 1.1 4.4-2.9 1-8.1 6.5-8.1 8.7 0 1.2-.7 2.8-1.6 3.6-.8.7-2.2 2.6-3.1 4.2-1.4 2.9-1.4 3.1.6 4.7 1.8 1.3 2 2 1.3 4.1-1.2 3.1.5 10.5 4.2 17.7 2.6 5.1 7.1 9.2 10 9.2.9 0 2.5.5 3.5 1.2 1.5.9 2.5.9 4.6 0 3.6-1.6 4.5-1.5 4.5.6 0 2.9 1.9 4.2 4.8 3.1 1.8-.7 3.7-.5 6.8.7 6.6 2.5 15.4.1 15.4-4.3 0-1.8.7-1.7 4.7.8l3.5 2.2 2.5-3.2c2.8-3.5 5.9-4.1 6.8-1.1.8 2.5 1.6 2.5 4.9-.1 1.4-1.1 2.6-1.6 2.6-1 0 .5 1.1 2.2 2.4 3.8 2.2 2.6 2.8 2.8 9.7 2.6 4.1-.1 8.1-.3 8.9-.3.8-.1 2.4.1 3.5.4 3.7 1.1 4.9-.7 3.7-5.3-.9-3.7-.8-4.3.9-5.2 1.5-.8 1.9-2.1 1.9-6.8 0-5.7.1-5.9 3-7l3.1-1-3.1-6.1c-1.9-3.8-4.3-6.8-6.3-8-4.1-2.5-4.4-2.5-6 .6l-1.3 2.6-3.2-3.7c-3.4-3.8-4-5.5-1.9-5.5.6 0 1.8-.4 2.6-.9 1.1-.7 1-1.5-.8-4.5-1.7-2.8-2-3.9-1.2-5.5.6-1.1 1.1-5.6 1.1-10 0-7-.3-8.3-2-9.3-1.7-1.1-2-2.4-2-8.5 0-6.6-.2-7.3-2.7-9.2-1.4-1.2-3.7-2.4-4.9-2.7-1.3-.3-3.3-2.2-4.5-4-3.2-5.3-9.7-8-20.4-8.7-4.9-.4-10.6-.8-12.5-1.1-1.9-.2-6.6.1-10.3.7zm14.8 23.6c1.1.5 3.4.4 5-.1 1.8-.5 5-.4 8.2.3 4.9 1 5.3 1.3 6.3 4.7 1.3 4.7 1.3 8.3 0 10.2-.9 1.3-1.2 1.2-2.5-.4-.8-1-1.6-2.3-1.8-2.9-.2-.6-1.6-.3-3.4.7-4 2-6.3 2.1-6.3.1 0-2.4-3.6-1.7-5.4 1-1.8 2.8-5.7 3.3-7.6 1-.8-.9-2.2-1.2-4.2-.8l-3 .6.7-4.9c1.1-8.4 1.4-9.2 3.8-9.7 3.6-.7 8.1-.6 10.2.2zm20.3 40.6c.1 1.1-.1 4-.6 6.5l-.7 4.4-7.9 2.3-7.9 2.2-2.6-2-2.6-2.1-.3 4.1-.3 4.2-8.7-.3-8.7-.3-.3-4.4c-.2-2.5-.9-5-1.7-5.5-.7-.6-1.6-2-1.9-3.1-.5-1.6.3-2.5 3.7-4.3 4.7-2.5 11.6-2.9 17.9-1 3.4 1 4.1.9 5.8-.8 1.6-1.5 3.4-1.9 9.2-1.9 6.5 0 7.3.2 7.6 2zm-43.9 9.4c2.1 1.3-.2 6.1-2.8 6.1-2.3 0-4.7-5.6-2.8-6.4 1.9-.7 4.1-.6 5.6.3z"/><path d="M824.2 350.9c.2 1.4.9 2.6 1.6 2.9 1.7.5 1.5-1-.3-3.4-1.5-1.8-1.5-1.8-1.3.5zM821 392.1c0 1.7 2.7 4.5 3.5 3.7.3-.3-.3-1.6-1.4-2.9-1.6-1.9-2-2-2.1-.8zM554.1 325.8c-.9 1.6-2.1 1.8-9.8 1.6-4.8-.1-9.6-.4-10.7-.6-1.3-.2-2.4.8-3.8 3.5-1.1 2-2.9 4.2-4 4.8-1.7.9-5.8 6.5-5.8 8.1 0 .9 5.9 2.8 9 2.8 1.6 0 3 .6 3.3 1.4.7 1.7 11 2.9 16 1.7 3.2-.8 3.7-.6 3.7.8 0 .9.4 2.1.9 2.6.8.9 2.1 8.4 2.1 12.5 0 3.1-1.3 10.5-1.9 11-.4.3-1.2 3.9-1.9 8-1 7.1-1 7.6 1 9.7 1.7 1.8 1.9 2.5.8 3.8-1.1 1.4-1 3.3.6 8.7.5 1.6-.2 1.8-4.5 1.8-3.7 0-5.1-.4-5.1-1.4 0-1.8-7.8-1-10.2 1.1-1.3 1.2-2.4 1.3-4.8.5-2.9-1.1-3-1-3 1.9 0 2.2.6 3.2 2 3.6 1.1.3 2 .6 2 .8 0 2.5-2.6 6.3-5 7.2-2.3.8-3 1.8-3 3.7 0 2.9 1.8 4.1 7.8 5.1 2.5.4 4.2 1.2 4.2 2 0 .7 1.4 1.6 3.1 2 2.4.5 3.6.2 5.3-1.4 1.4-1.3 3.5-2.1 5.9-2.1 2 0 3.7-.4 3.7-.9 0-1 4.7 0 9.7 2 2.8 1.2 3.8 1 8.7-1l5.6-2.3 3.4 2.1c4.2 2.6 6.3 2.6 10.1.1 1.7-1.1 4.7-2 6.7-2 2.1 0 5.4-.8 7.4-1.7 3.3-1.6 3.5-2 3-5.3-.4-2.3-1.7-4.5-4-6.5-2.8-2.4-3.7-4.1-4.5-8.5-.5-3-.7-5.8-.4-6.2.7-1.3-4.2-.9-5.5.4-.7.7-1.2 3.2-1.2 5.6v4.4l-2.5-1.6c-3.1-2-6.4-2.1-7.9 0-.9 1.2-1.7 1.3-4 .4-2.8-1-2.8-1.1-1.1-3.6 1.2-1.9 1.5-3.7 1.1-6.5-.3-2.1-.1-6 .5-8.6.9-4.4.8-4.9-1-6.2-1.7-1-2.1-2.4-2.1-6.3 0-4.6.2-5 3-5.9 4.1-1.5 4-4.6 0-6.1-2.8-.9-3-1.3-2.4-4.7 1-5.6 1.9-6.8 3.3-4.3 1.9 3.5 4 2.7 4.7-1.8l.7-4h4.7c3.2 0 5.5-.6 7.3-2 1.4-1.1 3.2-2 4-2 .7 0 2.2.9 3.2 2s2.5 2 3.4 2c1.2 0 1.1.4-.6 2.2l-2.2 2.1 2 5.3c1.5 4 1.8 5.8 1 7.3-1.8 3.2-1.3 5.1 1.6 6.2 1.9.7 3.4.7 5 0s4-.7 7.5 0c4.9.9 5.4.8 7.1-1.2.9-1.2 1.7-3.2 1.7-4.5 0-1.3.4-2.4.8-2.4s2.2-1.2 4-2.8c3.1-2.6 3.1-2.9 2.2-7-.9-3.8-.8-4.8 1-7.7 2.7-4.3 2.5-5-1-6.5-2.6-1.1-3-1.8-3-5.1 0-3-.6-4.2-2.9-5.8-1.6-1.2-4.1-2.1-5.5-2.1-2.8 0-5.8-1.5-8.8-4.3-2-1.9-4.1-2.2-6.7-.7-1.2.6-3.1.5-5.6-.3-3-.9-3.9-.9-4.3.1-.2.7-2.4 1.2-6 1.2-4.9 0-6 .4-8.7 3-2.8 2.7-3.3 2.8-7 2-2.2-.5-6.2-1-9-1-4.5 0-5.2-.3-6.7-3-2-3.5-6.1-4.1-7.7-1.2zM272.7 326.8c-.9 1-1.7 2.4-1.7 3 0 .7-.4 1.2-.9 1.2-1.3 0-5.1 6.4-5.1 8.6 0 1.3 1.1 2.4 3 3.1 2 .8 3 1.8 3 3.2 0 2.5 2.3 3.6 10.1 4.5 5.2.7 10.6-.4 11.9-2.3.3-.4 2.4-1.2 4.7-1.8 3.7-.9 4.4-.8 5.9.8.9 1.1 2.2 1.9 2.9 1.9 3.3 0 4.3 18.4 1.1 21.5-1.9 1.9-2.1 4.6-.4 6.3.8.8.9 1.8.2 3.4-1.6 3.5-.9 17 1 20.6 2 4 2.1 3.7-1.3 5.2-1.6.6-3.2 1.8-3.5 2.6-.7 1.8-6.6 1.8-10.9 0-2-.8-6.5-1.3-11.2-1.2l-7.9.1-.9 3.5c-.5 1.9-2.4 4.8-4.5 6.6l-3.6 3.1 2.7 4.6c3.3 5.6 3.1 5.5 10.4 6.7 3.2.5 7.3 1.2 9.2 1.6 2.6.5 3.7.3 4.7-1 .7-1 3.1-2 5.4-2.3 3.3-.5 4.5-.2 6.1 1.6 2 2.1 6.7 2.8 8.5 1.2.5-.5 3.5-1.1 6.6-1.4 4.4-.4 6-.2 6.9 1 1.1 1.2 3 1.4 10.3.9 5-.3 9.8-.5 10.6-.5 10.4.1 20.3-.2 23.7-.7 3.9-.5 4.4-1 5.3-4.3 2.3-8.5 1.3-11.5-6.2-17.7-1.4-1.2-2.8-2.8-3.1-3.5-.4-1.1-1.1-.8-2.6 1l-2.1 2.4-5.1-2.2c-6-2.4-8.7-2.6-10.3-.7-.6.7-3.3 1.6-6.1 2-4.8.5-5.1.5-8.1-3.2l-3.2-3.8 2.5-7.9c3.8-12.4 3.7-12.2 1.5-12.9-1.8-.6-1.9-1.1-1-4.8.6-2.7.5-4.5-.1-5.1-.7-.7-.7-1.6 0-2.8.5-1.1.6-3.3.1-5.6-.7-3-.5-4.4 1-6.8 2-3.3 2.6-13.9.8-15-.5-.3-1-1.5-1-2.6 0-1-.4-1.9-1-1.9-.5 0-1-1.3-1-2.9 0-4-6.8-9.1-12.2-9.1-2.1 0-3.8.4-3.8 1 0 1.3-2.6 1.3-6.7-.2-2.7-1-3.8-1-5.3 0-2.4 1.4-10.2 1.6-11.6.2-.6-.6-2.3-.6-4.8.1-3.5 1-6.1.8-9.8-.6-.8-.3-2.2.3-3.1 1.3zM492 334.5c0 .8.2 1.5.4 1.5s1.1.3 2 .6c1.2.4 1.6 0 1.6-1.5 0-1.4-.6-2.1-2-2.1-1.1 0-2 .7-2 1.5z"/><path d="M590 359.4c0 1.4.5 2.6 1 2.6.6 0 1-.9 1-1.9 0-1.1-.4-2.3-1-2.6-.6-.4-1 .5-1 1.9zM391 466.4c-.5.5-1 .7-1 .2 0-.4-2.6.7-5.7 2.5-9 5.1-17.3 10.9-17.3 12.1 0 1.5 25.3 45.7 26.2 45.8.4 0 3.8-2 7.6-4.4 3.7-2.4 10.4-6.3 14.7-8.6 4.4-2.4 8.5-4.7 9.2-5.2.8-.7-1.8-5.9-9.1-18.6-9.4-16.4-10.5-17.7-13.4-18.2-2.2-.3-3.8-1.5-5.1-3.6-1.9-3.1-4.2-3.9-6.1-2zM496.9 498c-22.1 1.7-46.9 8.2-67.4 17.9-20.2 9.5-35.1 19.9-51.4 35.6-17.8 17.2-28.6 31.9-39.6 53.6-22.8 45.5-26.5 99.3-10.1 148.2C349 815 400.3 862.7 463.4 879c18.9 4.9 32.4 6.3 54.1 5.7 31.2-.8 54.2-6.5 81.1-20 59.8-30 99.6-87.8 106.4-154.6 9.4-93.6-52-181.9-143.5-206.1-19.8-5.2-44.1-7.5-64.6-6zm65.9 23c.7 0-8.4 35.9-9.3 36.9-.8.7-10.5-2.4-10.5-3.4 0-1.3 9-34.6 9.6-35.7.2-.4 2.6 0 5.2.7 2.6.8 4.8 1.5 5 1.5zm-124.4 31.3c4.7 8.1 8.6 15 8.6 15.2 0 1-8.3 5.6-9.4 5.2-1.4-.6-17.8-29-18-31.3-.2-2.5 7.5-6.8 9-5.1.7.7 5 7.9 9.8 16zm88.1 20.1c12.3 16.4 14.2 18.5 17.7 19.6 12 3.5 28.4 13.2 39.1 23 12.8 11.7 25.4 32.7 29.7 49.6 2.3 8.6 4.1 24.6 3.5 29.7-2.9 22.8-5.2 31.3-12.1 44.7-15.1 29.2-42.3 49.1-74.8 54.9-8.4 1.5-28.1 1.4-36.8-.3-59.4-11.4-96.8-70.3-81.8-129.1 4.2-16.7 16.9-37.8 29.7-49.5 10.8-9.9 27.9-20 38.8-22.9 3.6-.9 5.2-2.7 17.9-19.6C505 562.3 511.6 554 512 554c.4 0 7 8.3 14.5 18.4zm139.9 31.1c1.2 2.1 1.6 3.9 1 4.5-.5.4-7.9 4.9-16.4 9.8l-15.5 9-2.9-5c-1.5-2.7-2.7-5.1-2.5-5.2.2-.2 7.6-4.4 16.3-9.4 10-5.7 16.4-8.8 17-8.2.6.5 2 2.5 3 4.5zM362 645.3c8.5 2.2 15.8 4.3 16.2 4.6.4.4 0 2.9-.8 5.8l-1.5 5.1-9.2-2.4c-26.1-7-27.5-7.5-27-9.8 1.6-7 2.4-8.4 4.6-7.9 1.2.3 9.2 2.3 17.7 4.6zM667 727c8.5 2.3 16 4.5 16.6 4.8.7.5.6 2.2-.4 5.5l-1.4 4.9-3.6-.7c-4.4-.8-32.3-8.3-32.8-8.7-.2-.2.4-2.7 1.2-5.6 1.2-4.1 2-5.2 3.2-4.8 1 .2 8.7 2.3 17.2 4.6zm-273.5 39.1c-.5.7-22.5 13.4-28.3 16.3-3.9 2-4.6 1.7-7.2-3.4l-2-3.9 12.2-7.2c6.8-3.9 14.1-8.2 16.3-9.5l3.9-2.3 2.7 4.6c1.5 2.6 2.6 5 2.4 5.4zM596 825.5c4.9 8.8 9 16.2 9 16.5 0 .3-2.1 1.6-4.6 2.9-3.8 2.1-4.7 2.2-5.5 1-2.1-3.2-17-28.9-17.4-30.1-.3-.8 1.4-2.4 4.3-3.9 2.6-1.5 4.8-2.6 4.9-2.5.2.1 4.3 7.4 9.3 16.1zm-119.4.6c2.4.6 4.4 1.6 4.4 2.3 0 2-9.1 34.1-9.8 34.7-.4.4-2.8 0-5.5-.7-5.5-1.7-5.6.9.6-22.2 2.2-8.3 4.4-15.2 4.9-15.2s2.9.5 5.4 1.1z"/><path d="M497.7 614.6c-27.2 4.9-51.1 24.1-61.3 49.2-7.7 19-8.3 40.2-1.7 58.6 11.9 33.5 41.9 54.7 77.3 54.7 58.7 0 97.7-58.5 75.6-113.3-10.3-25.5-34.2-44.4-62.1-49.3-10.5-1.8-17.4-1.8-27.8.1zm27.5 1.8c16.2 3.1 29.2 9.9 40.3 21.1 11.3 11.2 17.8 23.5 21.1 39.5 1.8 9.2 1.6 22.5-.7 31.7-1.2 5.1-1.4 5.3-4.5 5.3-2.5 0-3.8-.7-5.4-3.1-1.2-1.6-2.1-3.1-1.9-3.2.2-.2 2.8-1.4 5.6-2.7 2.9-1.3 5.1-2.5 4.9-2.8-.7-.6-22.6 2-22.6 2.7 0 .3 4.1 3.7 9.1 7.5 5 3.7 8.9 6.9 8.7 7.1-.2.1-4.3-.3-9.3-1.1-4.9-.7-10.2-1.4-11.7-1.4H556l3.6 5c3.5 4.9 3.5 4.9 1.2 5.4-5.9 1.2-8.4 1.3-9.9.5-1.3-.6-2.5-.1-4.9 2.1-5 4.7-13.2 8.9-21.6 11-9.3 2.4-14.7 2.5-23.9.3-3.8-.9-8.5-1.7-10.2-1.7-2.4-.1-3.3-.6-3.3-1.9 0-2.5-1.7-2.1-6.1 1.4-2.1 1.6-5.4 3.3-7.4 3.6-4 .6-4.1 1.7.4-9.6 1.2-2.9 2-5.5 1.9-5.6-.2-.1-5.4 1.9-11.6 4.6-6.2 2.6-10.9 4.2-10.5 3.6.5-.7 4-5.1 7.7-10 4.3-5.5 6.2-8.7 5.2-8.7-.9 0-6.3.7-12.2 1.6-5.8.8-10.7 1.4-10.9 1.2-.1-.2 3.9-3.5 9.1-7.3 5.1-3.9 9.3-7.3 9.4-7.6 0-.5-18.8-3-22-2.9-.8.1 1.1 1.4 4.3 3.1 3.8 1.9 5.5 3.4 5.1 4.2-1.9 3.3-4 4.7-6.9 4.7-3.1 0-3.3-.3-4.5-4.8-1.9-7.7-2.4-21.4-1-29.9 6.6-41.8 47.2-70.8 88.2-62.9z"/><path d="M450.7 673.8c.3 1.4-.8 2.3-5.2 4.1-3.1 1.3-5.5 2.4-5.3 2.6.5.4 19.9-2.3 20.4-2.8.8-.8-6.8-5.7-8.7-5.7-1.2 0-1.6.6-1.2 1.8zM566.7 674.6c-2.1 1.4-3.6 2.8-3.3 3.1.5.5 19.9 3.2 20.4 2.8.1-.1-2.2-1.3-5.3-2.6-4.2-1.8-5.4-2.8-5.1-4.2.6-2.5-2.3-2.2-6.7.9zM444.2 687.4l4.8 4.2-5 3.8c-2.8 2.1-4.9 4-4.7 4.2.2.2 4.9-1.5 10.6-3.7 5.6-2.3 9.9-4.4 9.7-4.7-.3-.3-5-2.2-10.3-4.3l-9.8-3.8 4.7 4.3zM574.1 687.1c-5.2 2.1-9.6 4.1-9.8 4.3-.2.2 4.2 2.2 9.8 4.5 5.7 2.2 10.4 3.9 10.6 3.7.2-.2-1.9-2.1-4.6-4.3l-5-4 5.1-4.2c2.8-2.2 4.7-4.1 4.2-4-.5 0-5.1 1.8-10.3 4zM70.2 612.5c-24 8.2-40.8 23.7-49.5 45.7l-2.7 6.6V988h46v-46c0-45.3 0-46.1 1.9-45 4.2 2.2 25.1 6.9 35.5 7.9 28.4 2.8 51.8-.4 71.1-9.8 17.1-8.4 28.5-19.7 36.4-36.1l3.6-7.5.3-29.6c.3-28.2.2-29.8-1.8-35.3-3.3-8.7-11.4-20-18.3-25.6-6.7-5.5-18.7-12.1-25.4-14.1l-4.3-1.2 7.2-3.5c14.9-7.2 26.9-22.7 31.2-40.4 2.4-9.8 2.2-29-.4-39.2-6.2-24.4-23.6-41.7-50.9-50.5-6-2-8.7-2.1-39.5-2.1-32.6.1-33.2.1-40.4 2.5zm62.9 6c18.8 3.3 32 9.6 43 20.5 8.7 8.6 12.9 16.2 15.5 27.7 2.3 10.4 1.5 29.2-1.6 38-6.8 19.4-21.6 30.8-45.7 35.4l-6.3 1.2v10.4l6.4.7c25.3 2.6 45.8 14.9 54.6 32.9 5.7 11.7 7.4 21.5 6.7 39.1-.5 15-2.2 22.8-7.4 33.1-13.8 27.4-47.9 41.3-92.1 37.6-18.4-1.6-29.6-4.6-50.9-13.8-1-.4-1.3 10.2-1.5 49.8l-.3 50.4h-29v-149c0-140.3.1-149.5 1.8-157.4 3.5-16.2 9.5-27 20.9-37.6 10-9.4 23.9-15.9 40.5-18.9 10.5-1.9 34.9-2 45.4-.1z"/><path d="M91.2 641c-4 1.1-9.6 3.2-12.3 4.7-6.7 3.6-15.1 12.8-18.8 20.6C54 679.1 54 679.4 54 772.4v84.5l4.3 2.5c7 4.3 23.7 10.3 33.2 12.1 11.6 2.2 33.3 2.3 43.2.2 26.1-5.6 41.2-25.3 41.3-53.7 0-11.9-1.6-19.7-6-28.7-4.9-10-11-15.8-22.5-21.4-10.6-5.1-18.8-6.8-35.7-7.6l-13.8-.6v-21.4l11.3-.6c13.9-.7 20.4-2 28.7-6 8.1-3.8 14.8-10.6 19.4-19.7 4.6-9.3 5.9-16.1 5.4-28.9-.9-21.2-9.8-33.5-29.4-40.8-5.9-2.2-8.9-2.6-20.9-2.9-11.6-.3-15.2-.1-21.3 1.6zm33.6 9.5c18.1 4.3 27.1 14.8 28 32.6.7 14.7-3.2 26.3-11.8 34.3-7.9 7.4-20.8 10.5-43.7 10.6H88v41.7l17.8.6c25.7.9 39.3 5 49.2 14.9 14.9 14.9 14.4 49.9-.8 65.5-8.4 8.6-17.1 11.4-37.2 12-18.6.6-29.3-1.2-43.5-7.3l-9-3.9V768c0-78.3.1-83.9 1.8-89.5 5-15.9 12.8-23.8 27.7-27.7 8.1-2.1 22.5-2.3 30.8-.3zM249.1 662.6c0 1.1.3 1.4.6.6.3-.7.2-1.6-.1-1.9-.3-.4-.6.2-.5 1.3zM774.8 667.9c.3 4.8.1 7.2-.5 6.8-.7-.4-.9 1.8-.5 6.5.3 4.6.1 6.9-.5 6.5-.7-.4-.9 1.8-.5 6.6.3 4.8.1 6.9-.6 6.2-.5-.6-1.5-7.9-2.1-16.4-.6-8.5-1.3-15.6-1.5-15.9-.3-.2-.2 6.3.1 14.5 2.8 72.2-26.4 143.9-78.9 193.8-9.1 8.6-32.9 27.5-34.7 27.5-.4 0-6.2-9.6-13-21.4-6.7-11.8-12.8-22.2-13.5-23.1-1.1-1.5-2.1-1.1-10.1 3.8-5 3-12.3 7.1-16.3 9.1-5.1 2.5-7.2 4.2-6.8 5.1.3.8 6.1 11.2 13 23.1 7 11.9 12.6 22 12.6 22.4 0 1.9-28.5 12.5-45.3 17-22.8 6-34.5 7.4-63.7 7.5-29 0-37.2-.9-60.9-6.6-54.1-13.2-104.2-45-139.2-88.4-10.3-12.7-25.6-35.3-30.7-45.2-12.5-24.3-21.6-53.7-25.2-81.3-1.9-14.9-2.1-15.5-3.1-13.9-.7 1-.9-.7-.7-5.3.2-4 0-6.4-.6-6.1-.5.4-.7-2.2-.4-6.5.4-4.7.2-6.9-.5-6.5-.6.4-.8-1.9-.5-6.5.3-3.9.1-6.9-.3-6.6-.5.3-1-1.6-1-4.3l-.1-4.8-1 5.5c-.5 3-1 15.4-1 27.5-.2 25.5 1.8 42.4 7.7 65.9 1.9 7.7 3.5 14.2 3.6 14.5.1 1.1 1.8-3.4 1.8-4.9 0-1-.3-.9-.8.4-.7 1.7-4.2-29.3-4-35.4v-2.5l1 2.4c.5 1.4.7 3.8.3 5.4-.4 2-.3 2.7.5 2.3.7-.5 1.1.2 1.1 1.6 0 3.5 6.5 27.3 10.3 37.9 19.1 52.5 54.9 98.5 100.1 128.5 8.6 5.7 8.8 5.9 6 6.5-2.4.6-2.1.7 1.8.8 2.6 0 5 .5 5.3 1.1.4.6-2 .7-6.2.4l-6.8-.6 5 3.3c14.7 9.6 43.3 22.5 60.4 27.4 31.3 8.9 108.5 9.9 148.5 1.9 15.9-3.1 44-15 63.6-26.8l9.5-5.8-6.8.6c-4.2.3-6.6.2-6.2-.4.3-.6 2.7-1.1 5.3-1.1 3.9-.1 4.2-.2 1.8-.8-2.8-.6-2.6-.8 6-6.5 54.3-36 94.7-94.9 108.7-158.4 1.3-5.6 2.7-9.9 3.1-9.5.5.5.5-.6.2-2.3-.4-1.6-.2-4.1.3-5.5l1-2.4v2.5c.2 6.1-3.3 37.1-4 35.4-.5-1.3-.8-1.4-.8-.4 0 .8.4 2.3.8 3.4.5 1.4 1.3-.3 2.9-6 8.5-31.3 11.6-61.9 9.2-91.3-.6-8.5-1.5-16.4-2-17.5-.4-1.2-.5 1.2-.2 5.3zm-2.8 39.8c0 3.2-.4 5.3-.8 4.6-.7-1.1-.4-10.3.4-10.3.2 0 .4 2.6.4 5.7zm-517 22.8c.1 1.6.1 3.7 0 4.5-.4 2.2-1.8-10.7-1.7-16.5 0-4.3.1-4 .7 2 .4 3.8.9 8.3 1 10zm515.5-5c-.4 5.9-1.1 10.2-1.4 9.6-.4-.6-.4-3.5 0-6.4.4-2.8.8-7.4.8-10.1.1-2.7.4-4.7.7-4.3.3.3.3 5.4-.1 11.2z"/><path d="M253.2 707c0 1.9.2 2.7.5 1.7.2-.9.2-2.5 0-3.5-.3-.9-.5-.1-.5 1.8z"/></svg>